SplineFontDB: 3.0
FontName: DrSugiyama-Regular
FullName: Dr Sugiyama Regular
FamilyName: Dr Sugiyama
Weight: Book
Copyright: Copyright (c) 2004 Alejandro Paul (sudtipos@sudtipos.com),\nwith Reserved Font Name "Dr Sujiyama"
Version: 1.000
ItalicAngle: 0
UnderlinePosition: -50
UnderlineWidth: 50
Ascent: 800
Descent: 200
sfntRevision: 0x00010000
LayerCount: 2
Layer: 0 1 "Back"  1
Layer: 1 1 "Fore"  0
XUID: [1021 288 713564382 7712637]
FSType: 0
OS2Version: 2
OS2_WeightWidthSlopeOnly: 0
OS2_UseTypoMetrics: 1
CreationTime: 1322171304
ModificationTime: 1322196579
PfmFamily: 17
TTFWeight: 400
TTFWidth: 5
LineGap: 0
VLineGap: 0
Panose: 2 0 5 3 0 0 0 2 0 4
OS2TypoAscent: 209
OS2TypoAOffset: 1
OS2TypoDescent: -250
OS2TypoDOffset: 1
OS2TypoLinegap: 0
OS2WinAscent: 0
OS2WinAOffset: 1
OS2WinDescent: 0
OS2WinDOffset: 1
HheadAscent: 0
HheadAOffset: 1
HheadDescent: 0
HheadDOffset: 1
OS2SubXSize: 700
OS2SubYSize: 650
OS2SubXOff: 0
OS2SubYOff: 140
OS2SupXSize: 700
OS2SupYSize: 650
OS2SupXOff: 0
OS2SupYOff: 477
OS2StrikeYSize: 50
OS2StrikeYPos: 250
OS2Vendor: 'SUDT'
OS2CodePages: 20000001.00000000
OS2UnicodeRanges: 80000027.5000004b.00000000.00000000
Lookup: 258 0 0 "'kern' Horizontal Kerning in Latin lookup 0"  {"'kern' Horizontal Kerning in Latin lookup 0 subtable"  } ['kern' ('DFLT' <'dflt' > 'latn' <'dflt' > ) ]
MarkAttachClasses: 1
DEI: 91125
TtTable: prep
PUSHW_1
 511
SCANCTRL
PUSHB_1
 4
SCANTYPE
EndTTInstrs
ShortTable: maxp 16
  1
  0
  233
  103
  7
  0
  0
  2
  0
  1
  1
  0
  64
  0
  0
  0
EndShort
LangName: 1033 "" "" "" "AlejandroPaul: Dr Sugiyama: 2004" "" "Version 1.000" "" "Dr Sujiyama is a trademark of Alejandro Paul." "Alejandro Paul" "Alejandro Paul" "" "http://www.sudtipos.com" "http://www.sudtipos.com" "This Font Software is licensed under the SIL Open Font License,+AA0A-Version 1.1. This license is available with a FAQ at:+AA0A-http://scripts.sil.org/OFL" "http://scripts.sil.org/OFL" 
GaspTable: 1 65535 15
Encoding: UnicodeBmp
UnicodeInterp: none

StartChar: exclam
Encoding: 33 33 4
Width: 243
GlyphClass: 2
Flags: W
LayerCount: 2
Fore
SplineSet
83 74.5 m 128,-1,1
 64 54 64 54 64 24.5 c 128,-1,2
 64 -5 64 -5 83 -25.5 c 128,-1,3
 102 -46 102 -46 129 -46 c 128,-1,4
 156 -46 156 -46 174.5 -25.5 c 128,-1,5
 193 -5 193 -5 193 24.5 c 128,-1,6
 193 54 193 54 174.5 74.5 c 128,-1,7
 156 95 156 95 129 95 c 128,-1,0
 102 95 102 95 83 74.5 c 128,-1,1
180.5 604 m 128,-1,9
 203 590 203 590 203 560.5 c 128,-1,10
 203 531 203 531 190 484 c 0,11,12
 151 345 151 345 151 164 c 0,13,14
 151 147 151 147 133 147 c 0,15,16
 125 147 125 147 119 152 c 128,-1,17
 113 157 113 157 113 164 c 0,18,19
 113 345 113 345 74 484 c 0,20,21
 61 531 61 531 61 558.5 c 128,-1,22
 61 586 61 586 82.5 602 c 128,-1,23
 104 618 104 618 131 618 c 128,-1,8
 158 618 158 618 180.5 604 c 128,-1,9
EndSplineSet
EndChar

StartChar: quotedbl
Encoding: 34 34 5
Width: 294
GlyphClass: 2
Flags: W
LayerCount: 2
Fore
SplineSet
227 566 m 128,-1,1
 229 554 229 554 229 528.5 c 128,-1,2
 229 503 229 503 224 468 c 0,3,4
 214 409 214 409 208 395 c 0,5,6
 194 367 194 367 181 367 c 0,7,8
 170 367 170 367 162 390 c 1,9,10
 148 465 148 465 148 533 c 128,-1,11
 148 601 148 601 186 601 c 0,12,13
 205 601 205 601 215 589.5 c 128,-1,0
 225 578 225 578 227 566 c 128,-1,1
123 566 m 128,-1,15
 125 554 125 554 125 528.5 c 128,-1,16
 125 503 125 503 120 468 c 0,17,18
 110 409 110 409 104 395 c 0,19,20
 90 367 90 367 77 367 c 0,21,22
 66 367 66 367 58 390 c 1,23,24
 44 465 44 465 44 533 c 128,-1,25
 44 601 44 601 82 601 c 0,26,27
 101 601 101 601 111 589.5 c 128,-1,14
 121 578 121 578 123 566 c 128,-1,15
EndSplineSet
EndChar

StartChar: numbersign
Encoding: 35 35 6
Width: 286
GlyphClass: 2
Flags: W
LayerCount: 2
Fore
SplineSet
143 154 m 1,0,-1
 139 124 l 1,1,2
 155 126 155 126 165 126 c 1,3,4
 167 141 167 141 169 155 c 1,5,-1
 143 154 l 1,0,-1
93 150 m 1,6,-1
 50 145 l 1,7,8
 30 145 30 145 30 170.5 c 128,-1,9
 30 196 30 196 40 196 c 0,10,11
 57 196 57 196 101 198 c 1,12,13
 113 263 113 263 116 271 c 0,14,15
 123 289 123 289 146.5 289 c 128,-1,16
 170 289 170 289 170 269 c 0,17,18
 170 266 170 266 166 250 c 1,19,20
 157 226 157 226 153 202 c 1,21,22
 169 204 169 204 176 204 c 1,23,24
 189 265 189 265 191 272 c 0,25,26
 198 289 198 289 221.5 289 c 128,-1,27
 245 289 245 289 245 269 c 0,28,29
 245 266 245 266 239 245.5 c 128,-1,30
 233 225 233 225 229 208 c 1,31,32
 267 212 267 212 273 212 c 0,33,34
 306 212 306 212 306 195 c 0,35,36
 306 185 306 185 295.5 173 c 128,-1,37
 285 161 285 161 278 159 c 1,38,39
 238 159 238 159 218 157 c 1,40,41
 216 139 216 139 214 130 c 1,42,-1
 264 135 l 1,43,44
 296 135 296 135 296 113 c 0,45,46
 296 103 296 103 289.5 93 c 128,-1,47
 283 83 283 83 277 83 c 0,48,49
 229 80 229 80 207 80 c 1,50,51
 198 30 198 30 186 -4 c 1,52,53
 174 -32 174 -32 148 -32 c 0,54,55
 134 -32 134 -32 134 -15 c 0,56,57
 134 -8 134 -8 142 19.5 c 128,-1,58
 150 47 150 47 156 78 c 1,59,-1
 131 76 l 1,60,61
 124 33 124 33 111 -4 c 0,62,63
 101 -32 101 -32 73 -32 c 0,64,65
 59 -32 59 -32 59 -15 c 0,66,67
 59 -8 59 -8 61.5 1 c 128,-1,68
 64 10 64 10 79 71 c 1,69,70
 68 70 68 70 50 68 c 1,71,72
 30 68 30 68 30 94 c 128,-1,73
 30 120 30 120 40 120 c 0,74,75
 72 120 72 120 89 122 c 1,76,77
 91 132 91 132 93 150 c 1,6,-1
EndSplineSet
EndChar

StartChar: dollar
Encoding: 36 36 7
Width: 281
GlyphClass: 2
Flags: W
LayerCount: 2
Fore
SplineSet
295 262 m 0,0,1
 295 240 295 240 273 222.5 c 128,-1,2
 251 205 251 205 233 205 c 128,-1,3
 215 205 215 205 215 222 c 0,4,5
 215 232 215 232 221 242 c 1,6,7
 217 246 217 246 202.5 246 c 128,-1,8
 188 246 188 246 168.5 233 c 128,-1,9
 149 220 149 220 148 198 c 1,10,11
 157 181 157 181 187.5 163.5 c 128,-1,12
 218 146 218 146 231 137 c 0,13,14
 266 113 266 113 266 78.5 c 128,-1,15
 266 44 266 44 231 16 c 128,-1,16
 196 -12 196 -12 150 -27 c 1,17,-1
 150 -60 l 2,18,19
 150 -90 150 -90 123 -90 c 0,20,21
 119 -90 119 -90 117 -81 c 1,22,-1
 117 -35 l 1,23,24
 104 -38 104 -38 94 -38 c 0,25,26
 12 -38 12 -38 12 17 c 0,27,28
 12 33 12 33 28.5 48 c 128,-1,29
 45 63 45 63 60 65 c 0,30,31
 64 65 64 65 74 56 c 0,32,33
 101 32 101 32 165 32 c 0,34,35
 177 32 177 32 183 39 c 128,-1,36
 189 46 189 46 189 56.5 c 128,-1,37
 189 67 189 67 170.5 79.5 c 128,-1,38
 152 92 152 92 129.5 101.5 c 128,-1,39
 107 111 107 111 88.5 129 c 128,-1,40
 70 147 70 147 70 171.5 c 128,-1,41
 70 196 70 196 95.5 224.5 c 128,-1,42
 121 253 121 253 158 274 c 1,43,-1
 158 325 l 2,44,45
 158 355 158 355 185 355 c 0,46,47
 189 355 189 355 191 346 c 1,48,-1
 191 291 l 1,49,50
 222 304 222 304 244 304 c 0,51,52
 295 304 295 304 295 262 c 0,0,1
EndSplineSet
EndChar

StartChar: percent
Encoding: 37 37 8
Width: 395
GlyphClass: 2
Flags: W
LayerCount: 2
Fore
SplineSet
252.5 266 m 128,-1,1
 286 342 286 342 292 352.5 c 128,-1,2
 298 363 298 363 306 363 c 128,-1,3
 314 363 314 363 326 360.5 c 128,-1,4
 338 358 338 358 338 355 c 0,5,6
 338 346 338 346 331.5 334 c 128,-1,7
 325 322 325 322 304 272 c 128,-1,8
 283 222 283 222 260.5 168 c 128,-1,9
 238 114 238 114 207.5 38.5 c 128,-1,10
 177 -37 177 -37 174 -44 c 0,11,12
 161 -67 161 -67 138 -67 c 0,13,14
 133 -67 133 -67 124.5 -64 c 128,-1,15
 116 -61 116 -61 116 -56 c 0,16,17
 116 -55 116 -55 122.5 -40.5 c 128,-1,18
 129 -26 129 -26 171 73 c 2,19,-1
 213 172 l 1,20,0
 219 190 219 190 252.5 266 c 128,-1,1
298 73 m 0,21,22
 298 110 298 110 332 110 c 0,23,24
 351 110 351 110 362.5 98 c 128,-1,25
 374 86 374 86 374 70.5 c 128,-1,26
 374 55 374 55 363.5 43.5 c 128,-1,27
 353 32 353 32 335 32 c 128,-1,28
 317 32 317 32 307.5 44.5 c 128,-1,29
 298 57 298 57 298 73 c 0,21,22
398 136.5 m 128,-1,31
 381 153 381 153 344.5 153 c 128,-1,32
 308 153 308 153 281 118 c 128,-1,33
 254 83 254 83 254 50 c 0,34,35
 254 -15 254 -15 309 -15 c 0,36,37
 353 -15 353 -15 384 19.5 c 128,-1,38
 415 54 415 54 415 87 c 128,-1,30
 415 120 415 120 398 136.5 c 128,-1,31
82 203 m 0,39,40
 82 240 82 240 116 240 c 0,41,42
 135 240 135 240 146.5 228 c 128,-1,43
 158 216 158 216 158 200.5 c 128,-1,44
 158 185 158 185 147.5 173.5 c 128,-1,45
 137 162 137 162 119 162 c 128,-1,46
 101 162 101 162 91.5 174.5 c 128,-1,47
 82 187 82 187 82 203 c 0,39,40
182 266.5 m 128,-1,49
 165 283 165 283 128.5 283 c 128,-1,50
 92 283 92 283 65 248 c 128,-1,51
 38 213 38 213 38 180 c 0,52,53
 38 115 38 115 93 115 c 0,54,55
 137 115 137 115 168 149.5 c 128,-1,56
 199 184 199 184 199 217 c 128,-1,48
 199 250 199 250 182 266.5 c 128,-1,49
EndSplineSet
EndChar

StartChar: ampersand
Encoding: 38 38 9
Width: 348
GlyphClass: 2
Flags: W
LayerCount: 2
Fore
SplineSet
229 389 m 1,0,-1
 232 406 l 1,1,2
 232 412 232 412 202 412 c 128,-1,3
 172 412 172 412 118 381.5 c 128,-1,4
 64 351 64 351 62 329 c 1,5,6
 67 313 67 313 113.5 285 c 128,-1,7
 160 257 160 257 160 234 c 128,-1,8
 160 211 160 211 146 193 c 128,-1,9
 132 175 132 175 115.5 164 c 128,-1,10
 99 153 99 153 85 135.5 c 128,-1,11
 71 118 71 118 71 99.5 c 128,-1,12
 71 81 71 81 86 68.5 c 128,-1,13
 101 56 101 56 119 56 c 0,14,15
 183 56 183 56 239 119 c 1,16,17
 242 200 242 200 272 251 c 128,-1,18
 302 302 302 302 333 302 c 0,19,20
 369 302 369 302 369 241 c 128,-1,21
 369 180 369 180 292 103 c 1,22,23
 295 31 295 31 322 12 c 0,24,25
 334 3 334 3 350.5 3 c 128,-1,26
 367 3 367 3 385 17 c 1,27,28
 391 24 391 24 399 24 c 0,29,30
 412 24 412 24 412 7 c 0,31,32
 412 -22 412 -22 375.5 -50.5 c 128,-1,33
 339 -79 339 -79 306 -79 c 0,34,35
 235 -79 235 -79 235 23 c 0,36,37
 235 39 235 39 236 46 c 1,38,39
 197 10 197 10 147 -15.5 c 128,-1,40
 97 -41 97 -41 58.5 -41 c 128,-1,41
 20 -41 20 -41 -3 -21.5 c 128,-1,42
 -26 -2 -26 -2 -26 26.5 c 128,-1,43
 -26 55 -26 55 -12.5 80 c 128,-1,44
 1 105 1 105 12 117.5 c 128,-1,45
 23 130 23 130 47.5 155 c 128,-1,46
 72 180 72 180 72 188 c 128,-1,47
 72 196 72 196 57 205.5 c 128,-1,48
 42 215 42 215 24.5 222.5 c 128,-1,49
 7 230 7 230 -8 244.5 c 128,-1,50
 -23 259 -23 259 -23 278 c 0,51,52
 -23 326 -23 326 41.5 377.5 c 128,-1,53
 106 429 106 429 177 458 c 128,-1,54
 248 487 248 487 276.5 487 c 128,-1,55
 305 487 305 487 319 474 c 128,-1,56
 333 461 333 461 333 439 c 128,-1,57
 333 417 333 417 303.5 396 c 128,-1,58
 274 375 274 375 255 375 c 128,-1,59
 236 375 236 375 232.5 377 c 128,-1,60
 229 379 229 379 229 389 c 1,0,-1
EndSplineSet
EndChar

StartChar: quotesingle
Encoding: 39 39 10
Width: 190
GlyphClass: 2
Flags: W
LayerCount: 2
Fore
SplineSet
123 566 m 128,-1,1
 125 554 125 554 125 528.5 c 128,-1,2
 125 503 125 503 120 468 c 0,3,4
 110 409 110 409 104 395 c 0,5,6
 90 367 90 367 77 367 c 0,7,8
 66 367 66 367 58 390 c 1,9,10
 44 465 44 465 44 533 c 128,-1,11
 44 601 44 601 82 601 c 0,12,13
 101 601 101 601 111 589.5 c 128,-1,0
 121 578 121 578 123 566 c 128,-1,1
EndSplineSet
EndChar

StartChar: parenleft
Encoding: 40 40 11
Width: 329
GlyphClass: 2
Flags: W
LayerCount: 2
Fore
SplineSet
439 800 m 0,0,1
 348 800 348 800 268 704 c 128,-1,2
 188 608 188 608 144 470.5 c 128,-1,3
 100 333 100 333 100 201.5 c 128,-1,4
 100 70 100 70 149.5 -12 c 128,-1,5
 199 -94 199 -94 299 -94 c 0,6,7
 320 -94 320 -94 350 -89 c 1,8,9
 360 -89 360 -89 366.5 -96.5 c 128,-1,10
 373 -104 373 -104 373 -115 c 0,11,12
 373 -137 373 -137 347 -155.5 c 128,-1,13
 321 -174 321 -174 268 -174 c 0,14,15
 155 -174 155 -174 98 -79 c 128,-1,16
 41 16 41 16 41 166 c 0,17,18
 41 280 41 280 74 401 c 128,-1,19
 107 522 107 522 164 624 c 128,-1,20
 221 726 221 726 308.5 791.5 c 128,-1,21
 396 857 396 857 495 857 c 0,22,23
 520 857 520 857 533 842.5 c 128,-1,24
 546 828 546 828 546 808.5 c 128,-1,25
 546 789 546 789 536 775 c 128,-1,26
 526 761 526 761 514 761 c 128,-1,27
 502 761 502 761 496.5 767 c 128,-1,28
 491 773 491 773 487 780 c 128,-1,29
 483 787 483 787 470.5 793.5 c 128,-1,30
 458 800 458 800 439 800 c 0,0,1
EndSplineSet
EndChar

StartChar: parenright
Encoding: 41 41 12
Width: 329
GlyphClass: 2
Flags: W
LayerCount: 2
Fore
SplineSet
105 803 m 0,0,1
 66 803 66 803 41 774 c 0,2,3
 33 764 33 764 24 764 c 0,4,5
 0 764 0 764 0 791 c 128,-1,6
 0 818 0 818 17.5 839 c 128,-1,7
 35 860 35 860 65 860 c 0,8,9
 140 860 140 860 199 822.5 c 128,-1,10
 258 785 258 785 294 720 c 0,11,12
 365 589 365 589 365 403 c 0,13,14
 365 261 365 261 325.5 132 c 128,-1,15
 286 3 286 3 204.5 -84 c 128,-1,16
 123 -171 123 -171 18 -171 c 0,17,18
 -27 -171 -27 -171 -48 -156.5 c 128,-1,19
 -69 -142 -69 -142 -69 -125 c 128,-1,20
 -69 -108 -69 -108 -60 -97 c 128,-1,21
 -51 -86 -51 -86 -38 -86 c 1,22,23
 -10 -91 -10 -91 11 -91 c 0,24,25
 106 -91 106 -91 177 -12 c 128,-1,26
 248 67 248 67 281 181.5 c 128,-1,27
 314 296 314 296 314 411 c 128,-1,28
 314 526 314 526 291.5 610 c 128,-1,29
 269 694 269 694 220.5 748.5 c 128,-1,30
 172 803 172 803 105 803 c 0,0,1
EndSplineSet
EndChar

StartChar: asterisk
Encoding: 42 42 13
Width: 317
GlyphClass: 2
Flags: W
LayerCount: 2
Fore
SplineSet
163 404 m 0,0,1
 180 404 180 404 180 374 c 128,-1,2
 180 344 180 344 168 293 c 1,3,4
 176 302 176 302 207 322.5 c 128,-1,5
 238 343 238 343 252.5 343 c 128,-1,6
 267 343 267 343 273.5 337 c 128,-1,7
 280 331 280 331 280 325 c 0,8,9
 280 297 280 297 177 278 c 1,10,11
 246 224 246 224 246 200 c 0,12,13
 246 184 246 184 228 184 c 0,14,15
 215 184 215 184 198 204 c 0,16,17
 175 232 175 232 159 269 c 1,18,19
 121 183 121 183 90 183 c 0,20,21
 73 183 73 183 73 200 c 0,22,23
 73 225 73 225 141 276 c 1,24,25
 60 293 60 293 45 308 c 0,26,27
 38 314 38 314 38 322 c 128,-1,28
 38 330 38 330 44.5 335.5 c 128,-1,29
 51 341 51 341 59 341 c 0,30,31
 88 341 88 341 148 293 c 1,32,33
 137 344 137 344 137 363 c 0,34,35
 137 404 137 404 163 404 c 0,0,1
EndSplineSet
EndChar

StartChar: plus
Encoding: 43 43 14
Width: 292
GlyphClass: 2
Flags: W
LayerCount: 2
Fore
SplineSet
272 113 m 0,0,1
 272 99 272 99 221 99 c 2,2,-1
 179 99 l 1,3,4
 181 52 181 52 185 9 c 0,5,6
 185 2 185 2 173 -3 c 128,-1,7
 161 -8 161 -8 150 -8 c 0,8,9
 128 -8 128 -8 128 35 c 0,10,11
 128 39 128 39 130 97 c 1,12,13
 100 96 100 96 41 92 c 0,14,15
 34 92 34 92 29 104.5 c 128,-1,16
 24 117 24 117 24 127 c 0,17,18
 24 149 24 149 67 149 c 1,19,20
 75 145 75 145 130 145 c 1,21,22
 128 210 128 210 128 213 c 0,23,24
 128 256 128 256 150 256 c 128,-1,25
 172 256 172 256 178.5 248.5 c 128,-1,26
 185 241 185 241 185 239 c 0,27,28
 181 192 181 192 179 145 c 1,29,-1
 242 145 l 2,30,31
 258 145 258 145 265 138.5 c 128,-1,32
 272 132 272 132 272 113 c 0,0,1
EndSplineSet
EndChar

StartChar: comma
Encoding: 44 44 15
Width: 223
GlyphClass: 2
Flags: W
LayerCount: 2
Fore
SplineSet
158 48 m 1,0,1
 158 -48 158 -48 97 -118 c 0,2,3
 91 -125 91 -125 85.5 -125 c 128,-1,4
 80 -125 80 -125 76 -116 c 1,5,6
 76 -113 76 -113 91 -88 c 128,-1,7
 106 -63 106 -63 106 -42.5 c 128,-1,8
 106 -22 106 -22 96.5 -15 c 128,-1,9
 87 -8 87 -8 75 -7 c 128,-1,10
 63 -6 63 -6 53.5 3.5 c 128,-1,11
 44 13 44 13 44 35.5 c 128,-1,12
 44 58 44 58 61.5 78 c 128,-1,13
 79 98 79 98 112 98 c 0,14,15
 153 98 153 98 158 48 c 1,0,1
EndSplineSet
EndChar

StartChar: hyphen
Encoding: 45 45 16
Width: 329
GlyphClass: 2
Flags: W
LayerCount: 2
Fore
SplineSet
88.5 145.5 m 128,-1,1
 123 164 123 164 152.5 164 c 128,-1,2
 182 164 182 164 215.5 150.5 c 128,-1,3
 249 137 249 137 267.5 137 c 128,-1,4
 286 137 286 137 296 139 c 1,5,6
 308 139 308 139 309 131 c 1,7,8
 309 115 309 115 274.5 97 c 128,-1,9
 240 79 240 79 210 79 c 128,-1,10
 180 79 180 79 147.5 92 c 128,-1,11
 115 105 115 105 95.5 105 c 128,-1,12
 76 105 76 105 67 103 c 1,13,14
 55 103 55 103 54 111 c 1,15,0
 54 127 54 127 88.5 145.5 c 128,-1,1
EndSplineSet
EndChar

StartChar: period
Encoding: 46 46 17
Width: 212
GlyphClass: 2
Flags: W
LayerCount: 2
Fore
SplineSet
57 37 m 128,-1,1
 57 62 57 62 72.5 79 c 128,-1,2
 88 96 88 96 111 96 c 128,-1,3
 134 96 134 96 149.5 79 c 128,-1,4
 165 62 165 62 165 37 c 128,-1,5
 165 12 165 12 149.5 -5 c 128,-1,6
 134 -22 134 -22 111 -22 c 128,-1,7
 88 -22 88 -22 72.5 -5 c 128,-1,0
 57 12 57 12 57 37 c 128,-1,1
EndSplineSet
EndChar

StartChar: slash
Encoding: 47 47 18
Width: 233
GlyphClass: 2
Flags: W
LayerCount: 2
Fore
SplineSet
322 718 m 0,0,1
 329 731 329 731 337 731 c 128,-1,2
 345 731 345 731 357 728.5 c 128,-1,3
 369 726 369 726 369 723 c 0,4,5
 369 714 369 714 345 665.5 c 128,-1,6
 321 617 321 617 189 292 c 128,-1,7
 57 -33 57 -33 52 -44 c 1,8,9
 39 -67 39 -67 16 -67 c 0,10,11
 11 -67 11 -67 2.5 -64 c 128,-1,12
 -6 -61 -6 -61 -6 -56 c 0,13,14
 -6 -55 -6 -55 -4 -49 c 0,15,16
 38 38 38 38 157 329 c 128,-1,17
 276 620 276 620 322 718 c 0,0,1
EndSplineSet
EndChar

StartChar: zero
Encoding: 48 48 19
Width: 304
GlyphClass: 2
Flags: W
LayerCount: 2
Fore
SplineSet
217 180 m 128,-1,1
 194 204 194 204 157.5 204 c 128,-1,2
 121 204 121 204 103.5 182 c 128,-1,3
 86 160 86 160 86 127.5 c 128,-1,4
 86 95 86 95 106 70.5 c 128,-1,5
 126 46 126 46 162 46 c 128,-1,6
 198 46 198 46 219 69 c 128,-1,7
 240 92 240 92 240 124 c 128,-1,0
 240 156 240 156 217 180 c 128,-1,1
58.5 212.5 m 128,-1,9
 110 280 110 280 179.5 280 c 128,-1,10
 249 280 249 280 281 248 c 128,-1,11
 313 216 313 216 313 166 c 0,12,13
 313 92 313 92 254.5 25.5 c 128,-1,14
 196 -41 196 -41 112 -41 c 0,15,16
 59 -41 59 -41 33 -10 c 128,-1,17
 7 21 7 21 7 70 c 0,18,8
 7 145 7 145 58.5 212.5 c 128,-1,9
EndSplineSet
EndChar

StartChar: one
Encoding: 49 49 20
Width: 213
GlyphClass: 2
Flags: W
LayerCount: 2
Fore
SplineSet
65 20 m 1,0,-1
 79 155 l 1,1,2
 79 180 79 180 69.5 195.5 c 128,-1,3
 60 211 60 211 48 215 c 0,4,5
 18 226 18 226 18 240 c 0,6,7
 18 252 18 252 75.5 268.5 c 128,-1,8
 133 285 133 285 144 285 c 0,9,10
 178 285 178 285 178 253 c 0,11,12
 178 243 178 243 170.5 194.5 c 128,-1,13
 163 146 163 146 163 103 c 128,-1,14
 163 60 163 60 174 9 c 1,15,16
 174 -13 174 -13 155 -29 c 128,-1,17
 136 -45 136 -45 114 -45 c 128,-1,18
 92 -45 92 -45 78.5 -29 c 128,-1,19
 65 -13 65 -13 65 20 c 1,0,-1
EndSplineSet
EndChar

StartChar: two
Encoding: 50 50 21
Width: 269
GlyphClass: 2
Flags: W
LayerCount: 2
Fore
SplineSet
72 202 m 1,0,-1
 27 190 l 1,1,2
 14 190 14 190 14 201 c 0,3,4
 14 233 14 233 72.5 266 c 128,-1,5
 131 299 131 299 163 299 c 128,-1,6
 195 299 195 299 209.5 284 c 128,-1,7
 224 269 224 269 224 246 c 0,8,9
 224 158 224 158 106 78 c 1,10,11
 127 78 127 78 173 67 c 128,-1,12
 219 56 219 56 225.5 56 c 128,-1,13
 232 56 232 56 254.5 66.5 c 128,-1,14
 277 77 277 77 282 77 c 0,15,16
 290 77 290 77 290 59.5 c 128,-1,17
 290 42 290 42 268.5 12.5 c 128,-1,18
 247 -17 247 -17 220 -21 c 1,19,20
 200 -21 200 -21 170.5 -6 c 128,-1,21
 141 9 141 9 118.5 9 c 128,-1,22
 96 9 96 9 56 -7 c 128,-1,23
 16 -23 16 -23 7 -23 c 128,-1,24
 -2 -23 -2 -23 -2 -12.5 c 128,-1,25
 -2 -2 -2 -2 5 7 c 1,26,27
 110 112 110 112 110 160 c 0,28,29
 110 176 110 176 99 189 c 128,-1,30
 88 202 88 202 72 202 c 1,0,-1
EndSplineSet
EndChar

StartChar: three
Encoding: 51 51 22
Width: 314
GlyphClass: 2
Flags: W
LayerCount: 2
Fore
SplineSet
129 140 m 1,0,-1
 144 160 l 2,1,2
 159 179 159 179 159 202 c 1,3,4
 157 219 157 219 137.5 219 c 128,-1,5
 118 219 118 219 97 196 c 128,-1,6
 76 173 76 173 52 173 c 128,-1,7
 28 173 28 173 28 196 c 0,8,9
 28 233 28 233 83.5 266 c 128,-1,10
 139 299 139 299 193 299 c 0,11,12
 282 299 282 299 282 259 c 0,13,14
 282 212 282 212 163 143 c 1,15,16
 163 141 163 141 184 139.5 c 128,-1,17
 205 138 205 138 229.5 135.5 c 128,-1,18
 254 133 254 133 275 118.5 c 128,-1,19
 296 104 296 104 296 78 c 0,20,21
 296 35 296 35 228 0 c 128,-1,22
 160 -35 160 -35 87 -35 c 128,-1,23
 14 -35 14 -35 0 12 c 1,24,25
 0 36 0 36 18 50 c 128,-1,26
 36 64 36 64 54 66 c 2,27,-1
 72 68 l 1,28,29
 88 68 88 68 93.5 62 c 128,-1,30
 99 56 99 56 99 44 c 0,31,32
 101 20 101 20 121 20 c 0,33,34
 150 20 150 20 177 33 c 128,-1,35
 204 46 204 46 204 67 c 128,-1,36
 204 88 204 88 192.5 101.5 c 128,-1,37
 181 115 181 115 166 118 c 0,38,39
 129 124 129 124 129 140 c 1,0,-1
EndSplineSet
EndChar

StartChar: four
Encoding: 52 52 23
Width: 291
GlyphClass: 2
Flags: W
LayerCount: 2
Fore
SplineSet
143 276 m 1,0,-1
 135 223 l 1,1,2
 135 154 135 154 177 154 c 1,3,4
 177 170 177 170 184 197.5 c 128,-1,5
 191 225 191 225 201.5 243 c 128,-1,6
 212 261 212 261 234 276 c 128,-1,7
 256 291 256 291 280.5 291 c 128,-1,8
 305 291 305 291 305 281 c 0,9,10
 305 276 305 276 297 255 c 0,11,12
 273 192 273 192 273 135 c 128,-1,13
 273 78 273 78 278 48.5 c 128,-1,14
 283 19 283 19 283 16 c 0,15,16
 282 -8 282 -8 260 -26.5 c 128,-1,17
 238 -45 238 -45 217 -45 c 128,-1,18
 196 -45 196 -45 187 -32 c 1,19,20
 183 -24 183 -24 183 98 c 2,21,-1
 183 121 l 2,22,23
 183 136 183 136 176 136 c 0,24,25
 173 136 173 136 160 123 c 0,26,27
 122 85 122 85 90.5 85 c 128,-1,28
 59 85 59 85 41.5 113.5 c 128,-1,29
 24 142 24 142 24 172.5 c 128,-1,30
 24 203 24 203 37 229.5 c 128,-1,31
 50 256 50 256 69 268 c 0,32,33
 105 292 105 292 124 292 c 128,-1,34
 143 292 143 292 143 276 c 1,0,-1
EndSplineSet
EndChar

StartChar: five
Encoding: 53 53 24
Width: 277
GlyphClass: 2
Flags: W
LayerCount: 2
Fore
SplineSet
109 233 m 0,0,1
 98 233 98 233 94 228.5 c 128,-1,2
 90 224 90 224 90 206 c 128,-1,3
 90 188 90 188 178 154 c 0,4,5
 210 142 210 142 237.5 122 c 128,-1,6
 265 102 265 102 265 75.5 c 128,-1,7
 265 49 265 49 246 23.5 c 128,-1,8
 227 -2 227 -2 197 -16 c 0,9,10
 138 -45 138 -45 74.5 -45 c 128,-1,11
 11 -45 11 -45 11 -24 c 0,12,13
 11 2 11 2 39.5 24.5 c 128,-1,14
 68 47 68 47 80.5 47 c 128,-1,15
 93 47 93 47 93 37 c 0,16,17
 93 5 93 5 114 5 c 0,18,19
 126 5 126 5 136.5 18 c 128,-1,20
 147 31 147 31 147 48.5 c 128,-1,21
 147 66 147 66 129 86 c 128,-1,22
 111 106 111 106 89 123 c 128,-1,23
 67 140 67 140 49 161.5 c 128,-1,24
 31 183 31 183 31 203.5 c 128,-1,25
 31 224 31 224 41.5 240.5 c 128,-1,26
 52 257 52 257 67 266 c 128,-1,27
 82 275 82 275 108 280 c 0,28,29
 147 286 147 286 213 286 c 1,30,31
 233 283 233 283 239 277.5 c 128,-1,32
 245 272 245 272 248 266 c 0,33,34
 257 253 257 253 257 233 c 0,35,36
 257 193 257 193 239 193 c 0,37,38
 232 193 232 193 188 213 c 128,-1,39
 144 233 144 233 109 233 c 0,0,1
EndSplineSet
EndChar

StartChar: six
Encoding: 54 54 25
Width: 314
GlyphClass: 2
Flags: W
LayerCount: 2
Fore
SplineSet
207 46.5 m 128,-1,1
 225 62 225 62 225 80.5 c 128,-1,2
 225 99 225 99 208.5 111.5 c 128,-1,3
 192 124 192 124 167 124 c 128,-1,4
 142 124 142 124 110 109 c 1,5,6
 113 69 113 69 129 50 c 128,-1,7
 145 31 145 31 167 31 c 128,-1,0
 189 31 189 31 207 46.5 c 128,-1,1
110 132 m 1,8,9
 157 164 157 164 204 164 c 128,-1,10
 251 164 251 164 280 136 c 128,-1,11
 309 108 309 108 309 67.5 c 128,-1,12
 309 27 309 27 258.5 -5 c 128,-1,13
 208 -37 208 -37 151.5 -37 c 128,-1,14
 95 -37 95 -37 59.5 -7.5 c 128,-1,15
 24 22 24 22 24 87 c 128,-1,16
 24 152 24 152 87.5 221 c 128,-1,17
 151 290 151 290 231 290 c 0,18,19
 256 290 256 290 271.5 278.5 c 128,-1,20
 287 267 287 267 287 249 c 0,21,22
 287 233 287 233 275 219 c 0,23,24
 254 195 254 195 222 195 c 0,25,26
 210 195 210 195 210 202 c 0,27,28
 210 206 210 206 212.5 211 c 128,-1,29
 215 216 215 216 215 224 c 0,30,31
 215 244 215 244 196 244 c 0,32,33
 157 244 157 244 134.5 211 c 128,-1,34
 112 178 112 178 110 132 c 1,8,9
EndSplineSet
EndChar

StartChar: seven
Encoding: 55 55 26
Width: 263
GlyphClass: 2
Flags: W
LayerCount: 2
Fore
SplineSet
75 277 m 1,0,-1
 182 271 l 1,1,2
 236 271 236 271 258 280.5 c 128,-1,3
 280 290 280 290 293.5 290 c 128,-1,4
 307 290 307 290 307 279 c 0,5,6
 307 278 307 278 286.5 251.5 c 128,-1,7
 266 225 266 225 245.5 182 c 128,-1,8
 225 139 225 139 225 110.5 c 128,-1,9
 225 82 225 82 231.5 60.5 c 128,-1,10
 238 39 238 39 238 29 c 0,11,12
 238 0 238 0 214.5 -20 c 128,-1,13
 191 -40 191 -40 165 -40 c 0,14,15
 126 -40 126 -40 126 1 c 0,16,17
 126 30 126 30 141 97 c 128,-1,18
 156 164 156 164 174 207 c 1,19,20
 147 211 147 211 119.5 211 c 128,-1,21
 92 211 92 211 68.5 200 c 128,-1,22
 45 189 45 189 38 189 c 0,23,24
 21 189 21 189 21 214 c 128,-1,25
 21 239 21 239 35 258 c 128,-1,26
 49 277 49 277 75 277 c 1,0,-1
EndSplineSet
EndChar

StartChar: eight
Encoding: 56 56 27
Width: 323
GlyphClass: 2
Flags: W
LayerCount: 2
Fore
SplineSet
203.5 6.5 m 128,-1,1
 218 20 218 20 218 36 c 128,-1,2
 218 52 218 52 208 60.5 c 128,-1,3
 198 69 198 69 165 83 c 1,4,5
 145 83 145 83 145 55.5 c 128,-1,6
 145 28 145 28 153.5 10.5 c 128,-1,7
 162 -7 162 -7 175.5 -7 c 128,-1,0
 189 -7 189 -7 203.5 6.5 c 128,-1,1
200 198 m 0,8,9
 200 250 200 250 174 250 c 0,10,11
 158 250 158 250 143 237 c 128,-1,12
 128 224 128 224 128 207 c 128,-1,13
 128 190 128 190 137.5 182 c 128,-1,14
 147 174 147 174 177 158 c 1,15,16
 189 160 189 160 194.5 168.5 c 128,-1,17
 200 177 200 177 200 198 c 0,8,9
231 140 m 1,18,19
 239 138 239 138 251.5 133.5 c 128,-1,20
 264 129 264 129 284.5 111 c 128,-1,21
 305 93 305 93 305 70 c 0,22,23
 305 26 305 26 248 -9.5 c 128,-1,24
 191 -45 191 -45 131 -45 c 0,25,26
 94 -45 94 -45 67.5 -30.5 c 128,-1,27
 41 -16 41 -16 41 13.5 c 128,-1,28
 41 43 41 43 59.5 62 c 128,-1,29
 78 81 78 81 96 89.5 c 128,-1,30
 114 98 114 98 114 101 c 0,31,32
 114 106 114 106 95 112.5 c 128,-1,33
 76 119 76 119 57 134 c 128,-1,34
 38 149 38 149 38 174 c 0,35,36
 38 224 38 224 98 257 c 128,-1,37
 158 290 158 290 223 290 c 0,38,39
 261 290 261 290 285 276.5 c 128,-1,40
 309 263 309 263 309 238 c 128,-1,41
 309 213 309 213 283 184 c 128,-1,42
 257 155 257 155 231 140 c 1,18,19
EndSplineSet
EndChar

StartChar: nine
Encoding: 57 57 28
Width: 318
GlyphClass: 2
Flags: W
LayerCount: 2
Fore
SplineSet
208 227 m 128,-1,1
 191 254 191 254 169 254 c 128,-1,2
 147 254 147 254 134 234.5 c 128,-1,3
 121 215 121 215 121 190.5 c 128,-1,4
 121 166 121 166 134 149 c 128,-1,5
 147 132 147 132 173 132 c 128,-1,6
 199 132 199 132 228 147 c 1,7,0
 225 200 225 200 208 227 c 128,-1,1
228 123 m 1,8,9
 181 92 181 92 130.5 92 c 128,-1,10
 80 92 80 92 54 112 c 128,-1,11
 28 132 28 132 28 163 c 0,12,13
 28 210 28 210 75.5 251.5 c 128,-1,14
 123 293 123 293 188 293 c 128,-1,15
 253 293 253 293 284 261 c 128,-1,16
 315 229 315 229 315 179 c 0,17,18
 315 95 315 95 240 27 c 128,-1,19
 165 -41 165 -41 101 -41 c 0,20,21
 51 -41 51 -41 51 7 c 0,22,23
 51 23 51 23 63 37 c 0,24,25
 84 61 84 61 116 61 c 0,26,27
 130 61 130 61 130 46 c 2,28,-1
 129 27 l 2,29,30
 129 12 129 12 140 12 c 0,31,32
 162 12 162 12 193.5 47 c 128,-1,33
 225 82 225 82 228 123 c 1,8,9
EndSplineSet
EndChar

StartChar: colon
Encoding: 58 58 29
Width: 212
GlyphClass: 2
Flags: W
LayerCount: 2
Fore
SplineSet
50 215 m 128,-1,1
 50 240 50 240 65.5 257 c 128,-1,2
 81 274 81 274 104 274 c 128,-1,3
 127 274 127 274 142.5 257 c 128,-1,4
 158 240 158 240 158 215 c 128,-1,5
 158 190 158 190 142.5 173 c 128,-1,6
 127 156 127 156 104 156 c 128,-1,7
 81 156 81 156 65.5 173 c 128,-1,0
 50 190 50 190 50 215 c 128,-1,1
57 37 m 128,-1,9
 57 62 57 62 72.5 79 c 128,-1,10
 88 96 88 96 111 96 c 128,-1,11
 134 96 134 96 149.5 79 c 128,-1,12
 165 62 165 62 165 37 c 128,-1,13
 165 12 165 12 149.5 -5 c 128,-1,14
 134 -22 134 -22 111 -22 c 128,-1,15
 88 -22 88 -22 72.5 -5 c 128,-1,8
 57 12 57 12 57 37 c 128,-1,9
EndSplineSet
EndChar

StartChar: semicolon
Encoding: 59 59 30
Width: 223
GlyphClass: 2
Flags: W
LayerCount: 2
Fore
SplineSet
50 215 m 128,-1,1
 50 240 50 240 65.5 257 c 128,-1,2
 81 274 81 274 104 274 c 128,-1,3
 127 274 127 274 142.5 257 c 128,-1,4
 158 240 158 240 158 215 c 128,-1,5
 158 190 158 190 142.5 173 c 128,-1,6
 127 156 127 156 104 156 c 128,-1,7
 81 156 81 156 65.5 173 c 128,-1,0
 50 190 50 190 50 215 c 128,-1,1
158 48 m 1,8,9
 158 -48 158 -48 97 -118 c 0,10,11
 91 -125 91 -125 85.5 -125 c 128,-1,12
 80 -125 80 -125 76 -116 c 1,13,14
 76 -113 76 -113 91 -88 c 128,-1,15
 106 -63 106 -63 106 -42.5 c 128,-1,16
 106 -22 106 -22 96.5 -15 c 128,-1,17
 87 -8 87 -8 75 -7 c 128,-1,18
 63 -6 63 -6 53.5 3.5 c 128,-1,19
 44 13 44 13 44 35.5 c 128,-1,20
 44 58 44 58 61.5 78 c 128,-1,21
 79 98 79 98 112 98 c 0,22,23
 153 98 153 98 158 48 c 1,8,9
EndSplineSet
EndChar

StartChar: less
Encoding: 60 60 31
Width: 329
GlyphClass: 2
Flags: W
LayerCount: 2
Fore
SplineSet
237 225 m 128,-1,1
 266 239 266 239 270.5 250.5 c 128,-1,2
 275 262 275 262 287 262 c 0,3,4
 297 262 297 262 297 248 c 0,5,6
 297 213 297 213 252.5 186.5 c 128,-1,7
 208 160 208 160 163 151 c 2,8,-1
 118 142 l 1,9,10
 169 139 169 139 239.5 93.5 c 128,-1,11
 310 48 310 48 310 2 c 0,12,13
 310 -8 310 -8 303 -18.5 c 128,-1,14
 296 -29 296 -29 288 -29 c 128,-1,15
 280 -29 280 -29 261.5 -9.5 c 128,-1,16
 243 10 243 10 219 33.5 c 128,-1,17
 195 57 195 57 149.5 76.5 c 128,-1,18
 104 96 104 96 52 96 c 2,19,-1
 31 96 l 2,20,21
 26 96 26 96 26 103.5 c 128,-1,22
 26 111 26 111 44 139.5 c 128,-1,23
 62 168 62 168 68.5 170 c 128,-1,24
 75 172 75 172 111 182 c 128,-1,25
 147 192 147 192 177.5 201.5 c 128,-1,0
 208 211 208 211 237 225 c 128,-1,1
EndSplineSet
EndChar

StartChar: equal
Encoding: 61 61 32
Width: 292
GlyphClass: 2
Flags: W
LayerCount: 2
Fore
SplineSet
67 199 m 1,0,1
 91 195 91 195 194 195 c 0,2,3
 220 195 220 195 246 187.5 c 128,-1,4
 272 180 272 180 272 163 c 0,5,6
 272 149 272 149 221 149 c 0,7,8
 118 149 118 149 41 142 c 0,9,10
 34 142 34 142 29 154 c 128,-1,11
 24 166 24 166 24 177 c 0,12,13
 24 199 24 199 67 199 c 1,0,1
86 109 m 1,14,15
 110 105 110 105 213 105 c 0,16,17
 291 105 291 105 291 73 c 0,18,19
 291 59 291 59 240 59 c 0,20,21
 137 59 137 59 60 52 c 0,22,23
 53 52 53 52 48 64.5 c 128,-1,24
 43 77 43 77 43 87 c 0,25,26
 43 109 43 109 86 109 c 1,14,15
EndSplineSet
EndChar

StartChar: greater
Encoding: 62 62 33
Width: 304
GlyphClass: 2
Flags: W
LayerCount: 2
Fore
SplineSet
49 283 m 0,0,1
 61 283 61 283 65.5 271.5 c 128,-1,2
 70 260 70 260 99 246 c 128,-1,3
 128 232 128 232 158.5 222.5 c 128,-1,4
 189 213 189 213 225 203 c 128,-1,5
 261 193 261 193 267.5 191 c 128,-1,6
 274 189 274 189 292 160.5 c 128,-1,7
 310 132 310 132 310 124.5 c 128,-1,8
 310 117 310 117 305 117 c 2,9,-1
 284 117 l 2,10,11
 232 117 232 117 186.5 97.5 c 128,-1,12
 141 78 141 78 117 54.5 c 128,-1,13
 93 31 93 31 74.5 11.5 c 128,-1,14
 56 -8 56 -8 48 -8 c 128,-1,15
 40 -8 40 -8 33 2.5 c 128,-1,16
 26 13 26 13 26 23 c 0,17,18
 26 69 26 69 96.5 114.5 c 128,-1,19
 167 160 167 160 218 163 c 1,20,21
 198 166 198 166 161.5 176.5 c 128,-1,22
 125 187 125 187 101.5 197.5 c 128,-1,23
 78 208 78 208 58.5 227.5 c 128,-1,24
 39 247 39 247 39 265 c 128,-1,25
 39 283 39 283 49 283 c 0,0,1
EndSplineSet
EndChar

StartChar: question
Encoding: 63 63 34
Width: 305
GlyphClass: 2
Flags: W
LayerCount: 2
Fore
SplineSet
83 -25.5 m 128,-1,1
 64 -5 64 -5 64 24.5 c 128,-1,2
 64 54 64 54 83 74.5 c 128,-1,3
 102 95 102 95 129 95 c 128,-1,4
 156 95 156 95 174.5 74.5 c 128,-1,5
 193 54 193 54 193 24.5 c 128,-1,6
 193 -5 193 -5 174.5 -25.5 c 128,-1,7
 156 -46 156 -46 129 -46 c 128,-1,0
 102 -46 102 -46 83 -25.5 c 128,-1,1
259 544.5 m 128,-1,9
 300 519 300 519 300 475.5 c 128,-1,10
 300 432 300 432 282 398 c 128,-1,11
 264 364 264 364 238 340 c 128,-1,12
 212 316 212 316 186 295 c 0,13,14
 123 245 123 245 123 220 c 0,15,16
 123 203 123 203 133 188 c 128,-1,17
 143 173 143 173 154.5 167.5 c 128,-1,18
 166 162 166 162 166 158 c 128,-1,19
 166 154 166 154 158.5 149.5 c 128,-1,20
 151 145 151 145 144 145.5 c 128,-1,21
 137 146 137 146 123 153 c 128,-1,22
 109 160 109 160 92 180.5 c 128,-1,23
 75 201 75 201 75 233.5 c 128,-1,24
 75 266 75 266 127.5 347 c 128,-1,25
 180 428 180 428 180 457.5 c 128,-1,26
 180 487 180 487 147.5 508 c 128,-1,27
 115 529 115 529 81.5 529 c 128,-1,28
 48 529 48 529 48 504 c 0,29,30
 48 494 48 494 83 494 c 0,31,32
 99 494 99 494 99 468 c 128,-1,33
 99 442 99 442 84.5 423.5 c 128,-1,34
 70 405 70 405 46.5 405 c 128,-1,35
 23 405 23 405 7 424.5 c 128,-1,36
 -9 444 -9 444 -9 471 c 0,37,38
 -9 515 -9 515 42 542.5 c 128,-1,39
 93 570 93 570 155.5 570 c 128,-1,8
 218 570 218 570 259 544.5 c 128,-1,9
EndSplineSet
EndChar

StartChar: at
Encoding: 64 64 35
Width: 530
GlyphClass: 2
Flags: W
LayerCount: 2
Fore
SplineSet
351 128 m 1,0,-1
 347 100 l 1,1,2
 347 82 347 82 362.5 62.5 c 128,-1,3
 378 43 378 43 398.5 43 c 128,-1,4
 419 43 419 43 435.5 79.5 c 128,-1,5
 452 116 452 116 452 164.5 c 128,-1,6
 452 213 452 213 423.5 249 c 128,-1,7
 395 285 395 285 331 285 c 0,8,9
 208 285 208 285 126 204.5 c 128,-1,10
 44 124 44 124 44 34 c 0,11,12
 44 -21 44 -21 80.5 -55.5 c 128,-1,13
 117 -90 117 -90 189 -90 c 0,14,15
 196 -90 196 -90 196 -93 c 0,16,17
 196 -98 196 -98 184.5 -103.5 c 128,-1,18
 173 -109 173 -109 166 -109 c 0,19,20
 89 -109 89 -109 49.5 -69 c 128,-1,21
 10 -29 10 -29 10 27 c 128,-1,22
 10 83 10 83 34.5 134.5 c 128,-1,23
 59 186 59 186 103.5 230.5 c 128,-1,24
 148 275 148 275 218 303 c 128,-1,25
 288 331 288 331 369 331 c 128,-1,26
 450 331 450 331 489.5 287.5 c 128,-1,27
 529 244 529 244 529 168 c 128,-1,28
 529 92 529 92 473.5 20.5 c 128,-1,29
 418 -51 418 -51 336 -51 c 0,30,31
 299 -51 299 -51 290 -20 c 0,32,33
 284 2 284 2 284 34 c 0,34,35
 284 38 284 38 279 38 c 128,-1,36
 274 38 274 38 256 18 c 0,37,38
 200 -40 200 -40 165.5 -40 c 128,-1,39
 131 -40 131 -40 112.5 -22 c 128,-1,40
 94 -4 94 -4 94 24 c 0,41,42
 94 73 94 73 120 117.5 c 128,-1,43
 146 162 146 162 182 189 c 0,44,45
 262 248 262 248 306 248 c 1,46,47
 372 246 372 246 372 201 c 0,48,49
 372 185 372 185 358 169.5 c 128,-1,50
 344 154 344 154 332 154 c 128,-1,51
 320 154 320 154 299 175 c 128,-1,52
 278 196 278 196 253 196 c 128,-1,53
 228 196 228 196 212 175.5 c 128,-1,54
 196 155 196 155 196 123 c 0,55,56
 196 71 196 71 251 71 c 0,57,58
 273 71 273 71 287.5 82 c 128,-1,59
 302 93 302 93 308 106 c 0,60,61
 325 140 325 140 339 140 c 0,62,63
 351 140 351 140 351 128 c 1,0,-1
EndSplineSet
EndChar

StartChar: A
Encoding: 65 65 36
Width: 764
GlyphClass: 2
Flags: W
LayerCount: 2
Fore
SplineSet
627 726 m 128,-1,1
 648 707 648 707 648 676.5 c 128,-1,2
 648 646 648 646 623 624 c 128,-1,3
 598 602 598 602 583 602 c 128,-1,4
 568 602 568 602 567 616 c 0,5,6
 565 640 565 640 535.5 661 c 128,-1,7
 506 682 506 682 475 682 c 0,8,9
 396 682 396 682 314 607 c 128,-1,10
 232 532 232 532 183 435 c 128,-1,11
 134 338 134 338 134 271 c 128,-1,12
 134 204 134 204 162.5 161.5 c 128,-1,13
 191 119 191 119 246 119 c 0,14,15
 334 119 334 119 437 274 c 0,16,17
 485 345 485 345 534 482 c 0,18,19
 552 531 552 531 553 532 c 0,20,21
 561 553 561 553 579 553 c 0,22,23
 588 553 588 553 593.5 547.5 c 128,-1,24
 599 542 599 542 599 534.5 c 128,-1,25
 599 527 599 527 596 518 c 0,26,27
 567 412 567 412 567 315.5 c 128,-1,28
 567 219 567 219 600 155 c 128,-1,29
 633 91 633 91 688 91 c 0,30,31
 716 91 716 91 738 109 c 0,32,33
 745 115 745 115 752 115 c 0,34,35
 764 115 764 115 764 104 c 0,36,37
 764 49 764 49 699 1.5 c 128,-1,38
 634 -46 634 -46 570 -46 c 0,39,40
 467 -46 467 -46 467 96 c 0,41,42
 467 153 467 153 481.5 224 c 128,-1,43
 496 295 496 295 496 297.5 c 128,-1,44
 496 300 496 300 492 300 c 128,-1,45
 488 300 488 300 483 291 c 1,46,47
 426 149 426 149 327 52.5 c 128,-1,48
 228 -44 228 -44 145 -44 c 128,-1,49
 62 -44 62 -44 26 20 c 0,50,51
 1 63 1 63 1 126 c 0,52,53
 1 250 1 250 85.5 395.5 c 128,-1,54
 170 541 170 541 303.5 643 c 128,-1,55
 437 745 437 745 563 745 c 0,56,0
 606 745 606 745 627 726 c 128,-1,1
EndSplineSet
EndChar

StartChar: B
Encoding: 66 66 37
Width: 611
GlyphClass: 2
Flags: W
LayerCount: 2
Fore
SplineSet
398 441 m 1,0,1
 447 499 447 499 447 566 c 0,2,3
 447 615 447 615 422 655.5 c 128,-1,4
 397 696 397 696 347 716 c 1,5,6
 329 725 329 725 309 725 c 0,7,8
 250 725 250 725 196 671 c 128,-1,9
 142 617 142 617 111.5 540 c 128,-1,10
 81 463 81 463 81 384 c 128,-1,11
 81 305 81 305 103 234 c 128,-1,12
 125 163 125 163 157 163 c 0,13,14
 166 163 166 163 168 174 c 0,15,16
 189 252 189 252 211 474 c 0,17,18
 219 555 219 555 220 556 c 0,19,20
 257 581 257 581 266 581 c 0,21,22
 272 581 272 581 272 566 c 128,-1,23
 272 551 272 551 263 510 c 0,24,25
 229 353 229 353 170 -5 c 1,26,27
 166 -21 166 -21 153 -21 c 0,28,29
 104 -21 104 -21 68 100 c 128,-1,30
 32 221 32 221 32 345 c 128,-1,31
 32 469 32 469 81 574.5 c 128,-1,32
 130 680 130 680 216.5 743 c 128,-1,33
 303 806 303 806 406 806 c 0,34,35
 478 806 478 806 523 758.5 c 128,-1,36
 568 711 568 711 568 639 c 128,-1,37
 568 567 568 567 529 515 c 128,-1,38
 490 463 490 463 439 432 c 1,39,40
 494 413 494 413 532 364 c 0,41,42
 601 277 601 277 601 181.5 c 128,-1,43
 601 86 601 86 530 8.5 c 128,-1,44
 459 -69 459 -69 371 -69 c 0,45,46
 304 -69 304 -69 253.5 -2 c 128,-1,47
 203 65 203 65 203 109 c 0,48,49
 203 117 203 117 212.5 123 c 128,-1,50
 222 129 222 129 267 153.5 c 128,-1,51
 312 178 312 178 317 179 c 128,-1,52
 322 180 322 180 328 180 c 1,53,54
 331 179 331 179 336 170 c 1,55,56
 355 123 355 123 393 71 c 128,-1,57
 431 19 431 19 469 19 c 0,58,59
 502 19 502 19 502 77.5 c 128,-1,60
 502 136 502 136 469.5 201 c 128,-1,61
 437 266 437 266 392 310.5 c 128,-1,62
 347 355 347 355 314 355 c 0,63,64
 303 355 303 355 283.5 347.5 c 128,-1,65
 264 340 264 340 257 340 c 1,66,67
 239 344 239 344 239 369.5 c 128,-1,68
 239 395 239 395 275.5 419.5 c 128,-1,69
 312 444 312 444 364 444 c 0,70,71
 381 444 381 444 398 441 c 1,0,1
EndSplineSet
EndChar

StartChar: C
Encoding: 67 67 38
Width: 504
GlyphClass: 2
Flags: W
LayerCount: 2
Fore
SplineSet
478 165 m 128,-1,1
 489 165 489 165 489 153.5 c 128,-1,2
 489 142 489 142 481 134 c 1,3,4
 431 67 431 67 347.5 12.5 c 128,-1,5
 264 -42 264 -42 177.5 -42 c 128,-1,6
 91 -42 91 -42 45.5 13.5 c 128,-1,7
 0 69 0 69 0 161 c 128,-1,8
 0 253 0 253 42 361.5 c 128,-1,9
 84 470 84 470 151.5 563.5 c 128,-1,10
 219 657 219 657 315.5 719.5 c 128,-1,11
 412 782 412 782 511 782 c 0,12,13
 597 782 597 782 597 703 c 0,14,15
 597 645 597 645 554 568 c 128,-1,16
 511 491 511 491 445 434.5 c 128,-1,17
 379 378 379 378 323 378 c 0,18,19
 293 378 293 378 293 410 c 0,20,21
 293 434 293 434 321 470 c 128,-1,22
 349 506 349 506 373 506 c 0,23,24
 386 506 386 506 383 483 c 128,-1,25
 380 460 380 460 405 460 c 0,26,27
 441 460 441 460 472.5 515 c 128,-1,28
 504 570 504 570 504 618 c 0,29,30
 504 717 504 717 422 717 c 0,31,32
 347 717 347 717 277.5 649 c 128,-1,33
 208 581 208 581 167.5 483.5 c 128,-1,34
 127 386 127 386 127 296 c 128,-1,35
 127 206 127 206 170.5 151.5 c 128,-1,36
 214 97 214 97 306 97 c 0,37,38
 345 97 345 97 381 110 c 0,39,40
 431 127 431 127 449 146 c 128,-1,0
 467 165 467 165 478 165 c 128,-1,1
EndSplineSet
EndChar

StartChar: D
Encoding: 68 68 39
Width: 693
GlyphClass: 2
Flags: W
LayerCount: 2
Fore
SplineSet
243 139 m 1,0,1
 249 73 249 73 249 60 c 0,2,3
 249 38 249 38 231 38 c 128,-1,4
 213 38 213 38 211 54 c 0,5,6
 211 57 211 57 209.5 69 c 128,-1,7
 208 81 208 81 206 105 c 128,-1,8
 204 129 204 129 202 150 c 1,9,-1
 199 151 l 1,10,11
 147 151 147 151 147 90 c 0,12,13
 147 45 147 45 195 11.5 c 128,-1,14
 243 -22 243 -22 293 -22 c 128,-1,15
 343 -22 343 -22 408 24 c 1,16,17
 389 37 389 37 354 64 c 0,18,19
 280 122 280 122 243 139 c 1,0,1
208.5 567.5 m 128,-1,21
 214 553 214 553 214 539 c 128,-1,22
 214 525 214 525 236 232 c 1,23,24
 269 242 269 242 298.5 242 c 128,-1,25
 328 242 328 242 360 229.5 c 128,-1,26
 392 217 392 217 409 206 c 128,-1,27
 426 195 426 195 462.5 167 c 128,-1,28
 499 139 499 139 508 133 c 1,29,30
 534 180 534 180 534 231.5 c 128,-1,31
 534 283 534 283 485.5 364.5 c 128,-1,32
 437 446 437 446 367.5 520 c 128,-1,33
 298 594 298 594 212 647 c 128,-1,34
 126 700 126 700 59 700 c 0,35,36
 8 700 8 700 -46 649 c 1,37,38
 -88 604 -88 604 -106 567 c 0,39,40
 -111 558 -111 558 -119.5 558 c 128,-1,41
 -128 558 -128 558 -134.5 563.5 c 128,-1,42
 -141 569 -141 569 -141 576 c 2,43,-1
 -140 583 l 1,44,45
 -115 629 -115 629 -38 702 c 0,46,47
 0 739 0 739 48.5 764.5 c 128,-1,48
 97 790 97 790 143.5 790 c 128,-1,49
 190 790 190 790 252 766 c 128,-1,50
 314 742 314 742 376 696.5 c 128,-1,51
 438 651 438 651 490.5 593.5 c 128,-1,52
 543 536 543 536 575.5 461.5 c 128,-1,53
 608 387 608 387 608 304.5 c 128,-1,54
 608 222 608 222 543 111 c 1,55,56
 580 90 580 90 615 90 c 0,57,58
 626 90 626 90 644 102.5 c 128,-1,59
 662 115 662 115 669 115 c 0,60,61
 683 115 683 115 683 101 c 0,62,63
 683 73 683 73 627.5 24.5 c 128,-1,64
 572 -24 572 -24 518 -24 c 0,65,66
 490 -24 490 -24 452 -4 c 1,67,68
 320 -136 320 -136 167 -136 c 0,69,70
 111 -136 111 -136 81.5 -106 c 128,-1,71
 52 -76 52 -76 52 -19 c 128,-1,72
 52 38 52 38 92 108 c 128,-1,73
 132 178 132 178 196 214 c 1,74,75
 169 511 169 511 168.5 517 c 128,-1,76
 168 523 168 523 161.5 528.5 c 128,-1,77
 155 534 155 534 155 544.5 c 128,-1,78
 155 555 155 555 168 568.5 c 128,-1,79
 181 582 181 582 192 582 c 128,-1,20
 203 582 203 582 208.5 567.5 c 128,-1,21
EndSplineSet
EndChar

StartChar: E
Encoding: 69 69 40
Width: 472
GlyphClass: 2
Flags: W
LayerCount: 2
Fore
SplineSet
428 666 m 1,0,-1
 433 686 l 1,1,2
 433 704 433 704 414.5 712.5 c 128,-1,3
 396 721 396 721 378 721 c 0,4,5
 336 721 336 721 274 694 c 128,-1,6
 212 667 212 667 165 629.5 c 128,-1,7
 118 592 118 592 117.5 566 c 128,-1,8
 117 540 117 540 142.5 518 c 128,-1,9
 168 496 168 496 198.5 482 c 128,-1,10
 229 468 229 468 254.5 446.5 c 128,-1,11
 280 425 280 425 280 399.5 c 128,-1,12
 280 374 280 374 264.5 351 c 128,-1,13
 249 328 249 328 227 310.5 c 128,-1,14
 205 293 205 293 184 275 c 0,15,16
 131 231 131 231 131 177 c 0,17,18
 131 142 131 142 160.5 116.5 c 128,-1,19
 190 91 190 91 228.5 91 c 128,-1,20
 267 91 267 91 304 103.5 c 128,-1,21
 341 116 341 116 374 142 c 0,22,23
 418 178 418 178 463 226 c 0,24,25
 470 233 470 233 477 233 c 128,-1,26
 484 233 484 233 489 226 c 128,-1,27
 494 219 494 219 494 211 c 0,28,29
 494 191 494 191 458.5 150 c 128,-1,30
 423 109 423 109 370.5 67 c 128,-1,31
 318 25 318 25 248 -7 c 128,-1,32
 178 -39 178 -39 123 -39 c 128,-1,33
 68 -39 68 -39 34 -11 c 128,-1,34
 0 17 0 17 0 63.5 c 128,-1,35
 0 110 0 110 26 154 c 128,-1,36
 52 198 52 198 82.5 226 c 128,-1,37
 113 254 113 254 139 281 c 128,-1,38
 165 308 165 308 165 325.5 c 128,-1,39
 165 343 165 343 140 359.5 c 128,-1,40
 115 376 115 376 85 386.5 c 128,-1,41
 55 397 55 397 30 421 c 128,-1,42
 5 445 5 445 5 479 c 0,43,44
 5 538 5 538 68 601.5 c 128,-1,45
 131 665 131 665 216 709.5 c 128,-1,46
 301 754 301 754 381 783 c 128,-1,47
 461 812 461 812 496.5 812 c 128,-1,48
 532 812 532 812 550.5 796 c 128,-1,49
 569 780 569 780 569 756 c 0,50,51
 569 721 569 721 517 689.5 c 128,-1,52
 465 658 465 658 446.5 658.5 c 128,-1,53
 428 659 428 659 428 666 c 1,0,-1
EndSplineSet
EndChar

StartChar: F
Encoding: 70 70 41
Width: 382
GlyphClass: 2
Flags: W
LayerCount: 2
Fore
SplineSet
215.5 280 m 128,-1,1
 210 285 210 285 210 292 c 128,-1,2
 210 299 210 299 233.5 325 c 128,-1,3
 257 351 257 351 289 380.5 c 128,-1,4
 321 410 321 410 365 430 c 128,-1,5
 409 450 409 450 454 451 c 0,6,7
 484 451 484 451 501 436.5 c 128,-1,8
 518 422 518 422 518 403 c 128,-1,9
 518 384 518 384 484 345.5 c 128,-1,10
 450 307 450 307 424 307 c 0,11,12
 418 307 418 307 404.5 314.5 c 128,-1,13
 391 322 391 322 377.5 322 c 128,-1,14
 364 322 364 322 316.5 308.5 c 128,-1,15
 269 295 269 295 252.5 285 c 128,-1,16
 236 275 236 275 228.5 275 c 128,-1,0
 221 275 221 275 215.5 280 c 128,-1,1
200 218 m 2,17,-1
 207 571 l 1,18,19
 205 576 205 576 201 576 c 0,20,21
 184 575 184 575 174.5 565.5 c 128,-1,22
 165 556 165 556 165 546 c 128,-1,23
 165 536 165 536 162 445 c 0,24,25
 151 172 151 172 151 74 c 1,26,-1
 152 -12 l 1,27,-1
 152 -27 l 2,28,29
 152 -35 152 -35 158.5 -47 c 128,-1,30
 165 -59 165 -59 176.5 -59 c 128,-1,31
 188 -59 188 -59 201.5 -50 c 128,-1,32
 215 -41 215 -41 215 -26.5 c 128,-1,33
 215 -12 215 -12 207.5 88.5 c 128,-1,34
 200 189 200 189 200 218 c 2,17,-1
530 680 m 1,35,-1
 478 685 l 1,36,37
 357 685 357 685 17 496 c 0,38,39
 7 491 7 491 3.5 491 c 128,-1,40
 0 491 0 491 0 505.5 c 128,-1,41
 0 520 0 520 13 567 c 128,-1,42
 26 614 26 614 39 622 c 0,43,44
 359 814 359 814 575 814 c 0,45,46
 629 814 629 814 629 779 c 0,47,48
 629 756 629 756 593.5 718 c 128,-1,49
 558 680 558 680 530 680 c 1,35,-1
EndSplineSet
EndChar

StartChar: G
Encoding: 71 71 42
Width: 589
GlyphClass: 2
Flags: W
LayerCount: 2
Fore
SplineSet
174 417 m 0,0,1
 174 448 174 448 202.5 502 c 128,-1,2
 231 556 231 556 264 556 c 0,3,4
 283 556 283 556 283 541 c 0,5,6
 283 536 283 536 269 515.5 c 128,-1,7
 255 495 255 495 255 485 c 0,8,9
 255 435 255 435 317 435 c 0,10,11
 353 435 353 435 399.5 468 c 128,-1,12
 446 501 446 501 483 546 c 128,-1,13
 520 591 520 591 546 637 c 128,-1,14
 572 683 572 683 572 708.5 c 128,-1,15
 572 734 572 734 554.5 748.5 c 128,-1,16
 537 763 537 763 507 763 c 0,17,18
 450 763 450 763 381 721 c 128,-1,19
 312 679 312 679 254 615 c 128,-1,20
 196 551 196 551 156.5 467 c 128,-1,21
 117 383 117 383 117 301 c 128,-1,22
 117 219 117 219 168.5 163.5 c 128,-1,23
 220 108 220 108 297 108 c 0,24,25
 339 108 339 108 383.5 129 c 128,-1,26
 428 150 428 150 464 182 c 1,27,28
 517 232 517 232 545 267 c 1,29,30
 552 278 552 278 557.5 278 c 128,-1,31
 563 278 563 278 567 273.5 c 128,-1,32
 571 269 571 269 571 262.5 c 128,-1,33
 571 256 571 256 563.5 229.5 c 128,-1,34
 556 203 556 203 539.5 113.5 c 128,-1,35
 523 24 523 24 523 -16.5 c 128,-1,36
 523 -57 523 -57 528 -82 c 0,37,38
 535 -122 535 -122 542 -129 c 0,39,40
 543 -130 543 -130 548 -132 c 0,41,42
 559 -137 559 -137 559 -145 c 0,43,44
 559 -167 559 -167 541.5 -189 c 128,-1,45
 524 -211 524 -211 510 -211 c 128,-1,46
 496 -211 496 -211 489 -208 c 128,-1,47
 482 -205 482 -205 477.5 -198 c 128,-1,48
 473 -191 473 -191 470 -184 c 128,-1,49
 467 -177 467 -177 465.5 -165.5 c 128,-1,50
 464 -154 464 -154 463.5 -146 c 128,-1,51
 463 -138 463 -138 462.5 -124 c 128,-1,52
 462 -110 462 -110 461.5 -91.5 c 128,-1,53
 461 -73 461 -73 466 -34.5 c 128,-1,54
 471 4 471 4 478.5 37.5 c 128,-1,55
 486 71 486 71 493 99.5 c 128,-1,56
 500 128 500 128 505 146.5 c 128,-1,57
 510 165 510 165 510 167.5 c 128,-1,58
 510 170 510 170 505.5 170 c 128,-1,59
 501 170 501 170 467 141 c 128,-1,60
 433 112 433 112 390.5 77 c 128,-1,61
 348 42 348 42 283.5 13 c 128,-1,62
 219 -16 219 -16 151 -16 c 128,-1,63
 83 -16 83 -16 42 38 c 128,-1,64
 1 92 1 92 1 179 c 128,-1,65
 1 266 1 266 42.5 367.5 c 128,-1,66
 84 469 84 469 150 550 c 128,-1,67
 216 631 216 631 295 695.5 c 128,-1,68
 374 760 374 760 453.5 795.5 c 128,-1,69
 533 831 533 831 593.5 831 c 128,-1,70
 654 831 654 831 660 770 c 1,71,72
 660 703 660 703 582.5 602.5 c 128,-1,73
 505 502 505 502 403.5 427.5 c 128,-1,74
 302 353 302 353 238 353 c 128,-1,75
 174 353 174 353 174 417 c 0,0,1
EndSplineSet
EndChar

StartChar: H
Encoding: 72 72 43
Width: 659
GlyphClass: 2
Flags: W
LayerCount: 2
Fore
SplineSet
503 12 m 2,0,-1
 502 35 l 1,1,2
 486 33 486 33 477 32 c 1,3,4
 481 28 481 28 486 20 c 0,5,6
 494 8 494 8 498.5 8 c 128,-1,7
 503 8 503 8 503 12 c 2,0,-1
533 729 m 2,8,-1
 530 551 l 1,9,10
 530 369 530 369 547 133 c 1,11,12
 557 132 557 132 575.5 132 c 128,-1,13
 594 132 594 132 606 141.5 c 128,-1,14
 618 151 618 151 625.5 160.5 c 128,-1,15
 633 170 633 170 641 170 c 0,16,17
 659 170 659 170 659 130 c 1,18,19
 643 107 643 107 611.5 84 c 128,-1,20
 580 61 580 61 552 50 c 1,21,22
 555 -7 555 -7 555 -43 c 128,-1,23
 555 -79 555 -79 551.5 -83 c 128,-1,24
 548 -87 548 -87 537 -92.5 c 128,-1,25
 526 -98 526 -98 521.5 -98 c 128,-1,26
 517 -98 517 -98 515.5 -96.5 c 128,-1,27
 514 -95 514 -95 496 -69 c 0,28,29
 451 -1 451 -1 426 32 c 1,30,31
 356 39 356 39 289 83 c 1,32,33
 290 57 290 57 290 14 c 0,34,35
 290 -162 290 -162 189 -162 c 0,36,37
 151 -162 151 -162 104 -119 c 128,-1,38
 57 -76 57 -76 29 -36 c 128,-1,39
 1 4 1 4 1 8 c 0,40,41
 1 20 1 20 11 29 c 0,42,43
 95 96 95 96 102 96 c 0,44,45
 106 96 106 96 125 67.5 c 128,-1,46
 144 39 144 39 171.5 10.5 c 128,-1,47
 199 -18 199 -18 224 -18 c 0,48,49
 244 -18 244 -18 244 50 c 0,50,51
 244 79 244 79 240 119 c 1,52,53
 180 171 180 171 140 235.5 c 128,-1,54
 100 300 100 300 100 326 c 128,-1,55
 100 352 100 352 117 374 c 128,-1,56
 134 396 134 396 145 396 c 128,-1,57
 156 396 156 396 163.5 392.5 c 128,-1,58
 171 389 171 389 177.5 384 c 128,-1,59
 184 379 184 379 200 366.5 c 128,-1,60
 216 354 216 354 231 343 c 1,61,-1
 231 348 l 1,62,63
 230 375 230 375 225 476 c 128,-1,64
 220 577 220 577 220 696 c 128,-1,65
 220 815 220 815 228 843 c 1,66,67
 228 850 228 850 250.5 868 c 128,-1,68
 273 886 273 886 281 886 c 128,-1,69
 289 886 289 886 289 874 c 0,70,71
 289 873 289 873 286 848 c 0,72,73
 276 743 276 743 276 612.5 c 128,-1,74
 276 482 276 482 283 293 c 1,75,76
 318 257 318 257 341.5 227.5 c 128,-1,77
 365 198 365 198 366.5 197 c 128,-1,78
 368 196 368 196 371 193.5 c 128,-1,79
 374 191 374 191 378.5 187.5 c 128,-1,80
 383 184 383 184 389.5 180 c 128,-1,81
 396 176 396 176 404 171.5 c 128,-1,82
 412 167 412 167 422 162 c 128,-1,83
 432 157 432 157 444 153 c 0,84,85
 470 144 470 144 499 138 c 1,86,-1
 484 718 l 2,87,88
 484 732 484 732 513 748 c 0,89,90
 521 753 521 753 525 753 c 0,91,92
 533 753 533 753 533 729 c 2,8,-1
EndSplineSet
EndChar

StartChar: I
Encoding: 73 73 44
Width: 382
GlyphClass: 2
Flags: W
LayerCount: 2
Fore
SplineSet
70 -5 m 0,0,1
 74 -3 74 -3 105 18 c 128,-1,2
 136 39 136 39 165 57.5 c 128,-1,3
 194 76 194 76 230 92.5 c 128,-1,4
 266 109 266 109 283 109 c 128,-1,5
 300 109 300 109 308 99 c 1,6,7
 317 85 317 85 330 56 c 128,-1,8
 343 27 343 27 343 21 c 128,-1,9
 343 15 343 15 342 12 c 0,10,11
 339 4 339 4 336 2 c 0,12,13
 324 -4 324 -4 318.5 -7 c 128,-1,14
 313 -10 313 -10 264 -40 c 0,15,16
 128 -124 128 -124 114 -124 c 0,17,18
 94 -124 94 -124 74 -82.5 c 128,-1,19
 54 -41 54 -41 54 -27.5 c 128,-1,20
 54 -14 54 -14 70 -5 c 0,0,1
194 343 m 1,21,-1
 204 129 l 2,22,23
 204 110 204 110 192 93.5 c 128,-1,24
 180 77 180 77 160 77 c 0,25,26
 151 77 151 77 151 91 c 0,27,28
 151 243 151 243 143.5 369 c 128,-1,29
 136 495 136 495 136 660 c 0,30,31
 136 676 136 676 143 680 c 0,32,33
 163 693 163 693 171.5 693 c 128,-1,34
 180 693 180 693 182 691 c 0,35,36
 186 684 186 684 186 629.5 c 128,-1,37
 186 575 186 575 194 343 c 1,21,-1
17 736 m 2,38,39
 18 743 18 743 73 772 c 0,40,41
 225 852 225 852 258 852 c 0,42,43
 268 852 268 852 269.5 848 c 128,-1,44
 271 844 271 844 278 828.5 c 128,-1,45
 285 813 285 813 289 800.5 c 128,-1,46
 293 788 293 788 293 778 c 128,-1,47
 293 768 293 768 279 761 c 0,48,49
 276 759 276 759 239 742.5 c 128,-1,50
 202 726 202 726 164 708 c 0,51,52
 67 664 67 664 42 644.5 c 128,-1,53
 17 625 17 625 8.5 625 c 128,-1,54
 0 625 0 625 0 635 c 1,55,-1
 17 736 l 2,38,39
EndSplineSet
EndChar

StartChar: J
Encoding: 74 74 45
Width: 404
GlyphClass: 2
Flags: W
LayerCount: 2
Fore
SplineSet
259 702 m 1,0,1
 277 712 277 712 285 712 c 128,-1,2
 293 712 293 712 293 705 c 1,3,4
 283 650 283 650 283 641 c 0,5,6
 283 597 283 597 319 398 c 128,-1,7
 355 199 355 199 355 159.5 c 128,-1,8
 355 120 355 120 347 88.5 c 128,-1,9
 339 57 339 57 322.5 23 c 128,-1,10
 306 -11 306 -11 272 -33.5 c 128,-1,11
 238 -56 238 -56 190 -56 c 128,-1,12
 142 -56 142 -56 71.5 10.5 c 128,-1,13
 1 77 1 77 1 116 c 0,14,15
 1 129 1 129 8.5 136.5 c 128,-1,16
 16 144 16 144 38 165.5 c 128,-1,17
 60 187 60 187 72.5 201.5 c 128,-1,18
 85 216 85 216 92 216 c 0,19,20
 96 216 96 216 124 173.5 c 128,-1,21
 152 131 152 131 192.5 88.5 c 128,-1,22
 233 46 233 46 269 46 c 128,-1,23
 305 46 305 46 305 138 c 0,24,25
 305 210 305 210 270.5 389.5 c 128,-1,26
 236 569 236 569 236 620 c 128,-1,27
 236 671 236 671 259 702 c 1,0,1
47 732 m 0,28,29
 98 764 98 764 261 829.5 c 128,-1,30
 424 895 424 895 471 895 c 0,31,32
 488 895 488 895 488 877.5 c 128,-1,33
 488 860 488 860 477 832.5 c 128,-1,34
 466 805 466 805 458 792 c 1,35,36
 448 779 448 779 406 765 c 0,37,38
 319 738 319 738 203.5 692 c 128,-1,39
 88 646 88 646 59.5 627 c 128,-1,40
 31 608 31 608 22.5 608 c 128,-1,41
 14 608 14 608 14 626.5 c 128,-1,42
 14 645 14 645 26.5 686 c 128,-1,43
 39 727 39 727 47 732 c 0,28,29
EndSplineSet
EndChar

StartChar: K
Encoding: 75 75 46
Width: 524
GlyphClass: 2
Flags: W
LayerCount: 2
Fore
SplineSet
1 490 m 2,0,1
 1 585 1 585 18 715 c 0,2,3
 18 720 18 720 25 731 c 1,4,5
 38 744 38 744 59 747 c 1,6,7
 68 747 68 747 68 739 c 1,8,9
 48 633 48 633 48 430 c 0,10,11
 48 409 48 409 49.5 409 c 128,-1,12
 51 409 51 409 55.5 415.5 c 128,-1,13
 60 422 60 422 63 422 c 0,14,15
 78 422 78 422 79 415 c 1,16,17
 119 364 119 364 180 364 c 0,18,19
 225 364 225 364 261.5 385 c 128,-1,20
 298 406 298 406 319 435.5 c 128,-1,21
 340 465 340 465 354 500 c 0,22,23
 379 558 379 558 379 603 c 128,-1,24
 379 648 379 648 357.5 685 c 128,-1,25
 336 722 336 722 302 722 c 0,26,27
 297 722 297 722 290.5 717.5 c 128,-1,28
 284 713 284 713 278.5 713 c 128,-1,29
 273 713 273 713 266 717.5 c 128,-1,30
 259 722 259 722 259 727 c 0,31,32
 259 750 259 750 300 784.5 c 128,-1,33
 341 819 341 819 367 819 c 0,34,35
 419 819 419 819 445 785.5 c 128,-1,36
 471 752 471 752 471 686.5 c 128,-1,37
 471 621 471 621 435 538 c 128,-1,38
 399 455 399 455 330 393.5 c 128,-1,39
 261 332 261 332 180 332 c 0,40,41
 146 332 146 332 127 340.5 c 128,-1,42
 108 349 108 349 105 349 c 128,-1,43
 102 349 102 349 102 343.5 c 128,-1,44
 102 338 102 338 106 326 c 1,45,46
 178 200 178 200 260 132.5 c 128,-1,47
 342 65 342 65 423 65 c 0,48,49
 452 65 452 65 464.5 74.5 c 128,-1,50
 477 84 477 84 484 91 c 0,51,52
 497 104 497 104 504 104 c 128,-1,53
 511 104 511 104 517 95 c 128,-1,54
 523 86 523 86 523 79 c 0,55,56
 523 44 523 44 460.5 0 c 128,-1,57
 398 -44 398 -44 315 -44 c 0,58,59
 226 -44 226 -44 177 5 c 0,60,61
 152 30 152 30 134.5 55 c 128,-1,62
 117 80 117 80 103 118.5 c 128,-1,63
 89 157 89 157 82 182 c 128,-1,64
 75 207 75 207 66 248 c 0,65,66
 52 307 52 307 49 307 c 128,-1,67
 46 307 46 307 46 299 c 2,68,-1
 45 211 l 1,69,70
 45 86 45 86 55 0 c 0,71,72
 55 -6 55 -6 43.5 -17.5 c 128,-1,73
 32 -29 32 -29 20 -29 c 128,-1,74
 8 -29 8 -29 8 -8 c 0,75,76
 8 0 8 0 6 40 c 0,77,78
 0 160 0 160 0 252 c 2,79,-1
 0 387 l 1,80,-1
 1 490 l 2,0,1
EndSplineSet
EndChar

StartChar: L
Encoding: 76 76 47
Width: 641
GlyphClass: 2
Flags: W
LayerCount: 2
Fore
SplineSet
285.5 770 m 128,-1,1
 299 756 299 756 299 732 c 128,-1,2
 299 708 299 708 274.5 667.5 c 128,-1,3
 250 627 250 627 230 627 c 0,4,5
 226 627 226 627 217.5 633.5 c 128,-1,6
 209 640 209 640 209 644.5 c 128,-1,7
 209 649 209 649 214 654 c 128,-1,8
 219 659 219 659 219 663 c 0,9,10
 216 700 216 700 180 700 c 128,-1,11
 144 700 144 700 114.5 676 c 128,-1,12
 85 652 85 652 69 614 c 0,13,14
 38 539 38 539 38 464 c 128,-1,15
 38 389 38 389 46.5 248 c 128,-1,16
 55 107 55 107 55 71.5 c 128,-1,17
 55 36 55 36 60 36 c 0,18,19
 61 36 61 36 70 45 c 1,20,21
 93 74 93 74 151.5 122 c 128,-1,22
 210 170 210 170 251 170 c 128,-1,23
 292 170 292 170 345 137.5 c 128,-1,24
 398 105 398 105 452.5 72 c 128,-1,25
 507 39 507 39 550 39 c 0,26,27
 586 39 586 39 596 57 c 128,-1,28
 606 75 606 75 615 75 c 128,-1,29
 624 75 624 75 632 65.5 c 128,-1,30
 640 56 640 56 640 49 c 0,31,32
 640 21 640 21 571.5 -20 c 128,-1,33
 503 -61 503 -61 461 -61 c 128,-1,34
 419 -61 419 -61 361 -31 c 128,-1,35
 303 -1 303 -1 248.5 29 c 128,-1,36
 194 59 194 59 165 59 c 128,-1,37
 136 59 136 59 104 30 c 128,-1,38
 72 1 72 1 57 -21 c 128,-1,39
 42 -43 42 -43 33.5 -43 c 128,-1,40
 25 -43 25 -43 17 -36 c 128,-1,41
 9 -29 9 -29 9 -23.5 c 128,-1,42
 9 -18 9 -18 14.5 4.5 c 128,-1,43
 20 27 20 27 20 87.5 c 128,-1,44
 20 148 20 148 10.5 252 c 128,-1,45
 1 356 1 356 1 497 c 0,46,47
 1 613 1 613 81.5 698.5 c 128,-1,48
 162 784 162 784 248 784 c 0,49,0
 272 784 272 784 285.5 770 c 128,-1,1
EndSplineSet
EndChar

StartChar: M
Encoding: 77 77 48
Width: 919
GlyphClass: 2
Flags: W
LayerCount: 2
Fore
SplineSet
567 350 m 1,0,-1
 570 571 l 1,1,2
 569 578 569 578 562.5 578 c 128,-1,3
 556 578 556 578 551 571 c 1,4,5
 502 449 502 449 427.5 234.5 c 128,-1,6
 353 20 353 20 349.5 9 c 128,-1,7
 346 -2 346 -2 330 -17.5 c 128,-1,8
 314 -33 314 -33 302 -33 c 128,-1,9
 290 -33 290 -33 290 -14 c 1,10,11
 289 -7 289 -7 287 52.5 c 128,-1,12
 285 112 285 112 281 174 c 128,-1,13
 277 236 277 236 270.5 302.5 c 128,-1,14
 264 369 264 369 252 411.5 c 128,-1,15
 240 454 240 454 225 454 c 0,16,17
 199 454 199 454 78 44 c 0,18,19
 62 -12 62 -12 61 -14 c 0,20,21
 57 -27 57 -27 42.5 -36.5 c 128,-1,22
 28 -46 28 -46 15 -46 c 0,23,24
 4 -46 4 -46 4 -30 c 0,25,26
 11 176 11 176 11 311 c 0,27,28
 11 566 11 566 3 654 c 2,29,-1
 0 687 l 2,30,31
 0 694 0 694 14 707.5 c 128,-1,32
 28 721 28 721 40 721 c 128,-1,33
 52 721 52 721 52 699 c 2,34,-1
 52 692 l 1,35,-1
 54 608 l 1,36,-1
 54 567 l 2,37,38
 54 186 54 186 49 106 c 1,39,40
 49 88 49 88 52 88 c 128,-1,41
 55 88 55 88 135.5 332.5 c 128,-1,42
 216 577 216 577 225 607 c 128,-1,43
 234 637 234 637 248 652.5 c 128,-1,44
 262 668 262 668 278 668 c 0,45,46
 301 668 301 668 316 537 c 128,-1,47
 331 406 331 406 339.5 275 c 128,-1,48
 348 144 348 144 352.5 144 c 128,-1,49
 357 144 357 144 379 201 c 128,-1,50
 401 258 401 258 429.5 339 c 128,-1,51
 458 420 458 420 486 501 c 0,52,53
 555 695 555 695 562 691 c 1,54,55
 560 692 560 692 568 699 c 0,56,57
 592 719 592 719 607 721 c 1,58,59
 629 718 629 718 629 694 c 2,60,-1
 629 668 l 2,61,62
 629 593 629 593 632 548 c 0,63,64
 662 49 662 49 855 49 c 0,65,66
 871 49 871 49 884 58 c 128,-1,67
 897 67 897 67 901.5 67 c 128,-1,68
 906 67 906 67 912 61 c 128,-1,69
 918 55 918 55 918 48 c 0,70,71
 918 22 918 22 863.5 -13.5 c 128,-1,72
 809 -49 809 -49 757 -49 c 0,73,74
 567 -49 567 -49 567 350 c 1,0,-1
EndSplineSet
EndChar

StartChar: N
Encoding: 78 78 49
Width: 543
GlyphClass: 2
Flags: W
LayerCount: 2
Fore
SplineSet
150 592 m 1,0,1
 143 560 143 560 132 377 c 128,-1,2
 121 194 121 194 121 102.5 c 128,-1,3
 121 11 121 11 124 -15.5 c 128,-1,4
 127 -42 127 -42 145 -42 c 0,5,6
 159 -42 159 -42 174 -29.5 c 128,-1,7
 189 -17 189 -17 189 -5 c 128,-1,8
 189 7 189 7 179.5 88.5 c 128,-1,9
 170 170 170 170 170 236.5 c 128,-1,10
 170 303 170 303 176.5 445 c 128,-1,11
 183 587 183 587 188 611 c 1,12,13
 188 620 188 620 181 620 c 0,14,15
 171 620 171 620 163 609 c 128,-1,16
 155 598 155 598 150 592 c 1,0,1
494 26 m 0,17,18
 477 -42 477 -42 446 -42 c 0,19,20
 400 -42 400 -42 400 73 c 0,21,22
 400 105 400 105 405.5 141 c 128,-1,23
 411 177 411 177 411 179 c 0,24,25
 411 207 411 207 386.5 283.5 c 128,-1,26
 362 360 362 360 323 446.5 c 128,-1,27
 284 533 284 533 225.5 599 c 128,-1,28
 167 665 167 665 110 665 c 0,29,30
 74 665 74 665 48 627 c 1,31,32
 28 600 28 600 22 600 c 0,33,34
 12 600 12 600 0 630 c 1,35,36
 29 670 29 670 90 713.5 c 128,-1,37
 151 757 151 757 208 757 c 0,38,39
 279 757 279 757 351.5 643.5 c 128,-1,40
 424 530 424 530 466 365 c 1,41,42
 468 371 468 371 476.5 404.5 c 128,-1,43
 485 438 485 438 488.5 449 c 128,-1,44
 492 460 492 460 501 491 c 128,-1,45
 510 522 510 522 517.5 541.5 c 128,-1,46
 525 561 525 561 536 591 c 0,47,48
 551 630 551 630 592 711 c 0,49,50
 607 740 607 740 662 747 c 1,51,52
 674 747 674 747 674 738 c 0,53,54
 674 733 674 733 670 728 c 0,55,56
 624 675 624 675 570.5 541 c 128,-1,57
 517 407 517 407 484 278 c 1,58,59
 502 175 502 175 502 118 c 128,-1,60
 502 61 502 61 494 26 c 0,17,18
EndSplineSet
EndChar

StartChar: O
Encoding: 79 79 50
Width: 530
GlyphClass: 2
Flags: W
LayerCount: 2
Fore
SplineSet
238 226.5 m 128,-1,1
 196 281 196 281 196 345.5 c 128,-1,2
 196 410 196 410 228.5 490.5 c 128,-1,3
 261 571 261 571 323 636.5 c 128,-1,4
 385 702 385 702 456 713 c 1,5,6
 455 714 455 714 455 718 c 0,7,8
 455 743 455 743 443.5 752.5 c 128,-1,9
 432 762 432 762 404 762 c 0,10,11
 339 762 339 762 267 689.5 c 128,-1,12
 195 617 195 617 147.5 513 c 128,-1,13
 100 409 100 409 100 321 c 0,14,15
 100 242 100 242 134 172 c 0,16,17
 151 136 151 136 186 114 c 128,-1,18
 221 92 221 92 269 92 c 0,19,20
 355 92 355 92 428 189 c 1,21,22
 388 172 388 172 349 172 c 0,23,0
 280 172 280 172 238 226.5 c 128,-1,1
417 263 m 0,24,25
 448 263 448 263 480 273 c 1,26,27
 542 399 542 399 542 507 c 0,28,29
 542 566 542 566 515.5 609 c 128,-1,30
 489 652 489 652 439 652 c 0,31,32
 375 652 375 652 324 580.5 c 128,-1,33
 273 509 273 509 273 428.5 c 128,-1,34
 273 348 273 348 320.5 305.5 c 128,-1,35
 368 263 368 263 417 263 c 0,24,25
512.5 824 m 128,-1,37
 531 808 531 808 531 787.5 c 128,-1,38
 531 767 531 767 517 745.5 c 128,-1,39
 503 724 503 724 484 715 c 1,40,41
 535 715 535 715 563 673.5 c 128,-1,42
 591 632 591 632 591 575 c 0,43,44
 591 447 591 447 529 298 c 1,45,46
 562 322 562 322 590 356 c 0,47,48
 599 368 599 368 602.5 368 c 128,-1,49
 606 368 606 368 610 363.5 c 128,-1,50
 614 359 614 359 614 354 c 0,51,52
 613 338 613 338 578 298 c 128,-1,53
 543 258 543 258 496 225 c 1,54,55
 432 102 432 102 346 24 c 128,-1,56
 260 -54 260 -54 175 -54 c 128,-1,57
 90 -54 90 -54 45 11 c 128,-1,58
 0 76 0 76 0 175 c 128,-1,59
 0 274 0 274 32.5 374 c 128,-1,60
 65 474 65 474 117 555.5 c 128,-1,61
 169 637 169 637 231.5 702.5 c 128,-1,62
 294 768 294 768 358 804 c 128,-1,63
 422 840 422 840 474 840 c 0,64,36
 494 840 494 840 512.5 824 c 128,-1,37
EndSplineSet
EndChar

StartChar: P
Encoding: 80 80 51
Width: 484
GlyphClass: 2
Flags: W
LayerCount: 2
Fore
SplineSet
366 582 m 0,0,1
 366 408 366 408 379 281 c 0,2,3
 379 272 379 272 392 158.5 c 128,-1,4
 405 45 405 45 405 17 c 128,-1,5
 405 -11 405 -11 389.5 -35.5 c 128,-1,6
 374 -60 374 -60 345 -60 c 0,7,8
 273 -60 273 -60 192.5 10.5 c 128,-1,9
 112 81 112 81 57.5 189.5 c 128,-1,10
 3 298 3 298 3 397 c 0,11,12
 3 525 3 525 48 627 c 128,-1,13
 93 729 93 729 187 792 c 128,-1,14
 281 855 281 855 411 855 c 0,15,16
 536 855 536 855 596 745 c 0,17,18
 626 691 626 691 626 634.5 c 128,-1,19
 626 578 626 578 613.5 525 c 128,-1,20
 601 472 601 472 580 433.5 c 128,-1,21
 559 395 559 395 537.5 364 c 128,-1,22
 516 333 516 333 492 311 c 0,23,24
 451 274 451 274 438.5 267 c 128,-1,25
 426 260 426 260 419 260 c 0,26,27
 402 260 402 260 402 281 c 0,28,29
 402 292 402 292 417 299 c 1,30,31
 536 383 536 383 536 512 c 0,32,33
 536 578 536 578 515 627 c 128,-1,34
 494 676 494 676 470 703.5 c 128,-1,35
 446 731 446 731 405.5 749.5 c 128,-1,36
 365 768 365 768 314 768 c 0,37,38
 194 768 194 768 125.5 681.5 c 128,-1,39
 57 595 57 595 57 470 c 0,40,41
 57 381 57 381 102 288 c 128,-1,42
 147 195 147 195 213.5 135.5 c 128,-1,43
 280 76 280 76 341 76 c 0,44,45
 354 76 354 76 357 103 c 1,46,47
 356 123 356 123 346 188 c 0,48,49
 323 349 323 349 323 561 c 0,50,51
 323 581 323 581 332.5 595 c 128,-1,52
 342 609 342 609 360 609 c 0,53,54
 366 609 366 609 366 582 c 0,0,1
EndSplineSet
EndChar

StartChar: Q
Encoding: 81 81 52
Width: 651
GlyphClass: 2
Flags: W
LayerCount: 2
Fore
SplineSet
310 384 m 0,0,1
 326 367 326 367 359 348 c 0,2,3
 399 326 399 326 471 298 c 1,4,5
 517 401 517 401 517 484 c 0,6,7
 517 650 517 650 407 650 c 0,8,9
 350 650 350 650 309 598 c 128,-1,10
 268 546 268 546 268 487.5 c 128,-1,11
 268 429 268 429 310 384 c 0,0,1
495 752.5 m 128,-1,13
 474 727 474 727 463.5 727 c 128,-1,14
 453 727 453 727 448 734 c 128,-1,15
 443 741 443 741 439 749 c 128,-1,16
 435 757 435 757 422.5 764 c 128,-1,17
 410 771 410 771 390 771 c 0,18,19
 323 771 323 771 255.5 700 c 128,-1,20
 188 629 188 629 146 524.5 c 128,-1,21
 104 420 104 420 104 325 c 0,22,23
 104 206 104 206 162 138 c 1,24,25
 195 101 195 101 241 101 c 0,26,27
 323 101 323 101 394 179 c 1,28,29
 385 184 385 184 360 197 c 128,-1,30
 335 210 335 210 323.5 216 c 128,-1,31
 312 222 312 222 290.5 235.5 c 128,-1,32
 269 249 269 249 258.5 258 c 128,-1,33
 248 267 248 267 233 282 c 128,-1,34
 218 297 218 297 211 311 c 0,35,36
 193 347 193 347 193 382 c 0,37,38
 193 518 193 518 282 616 c 128,-1,39
 371 714 371 714 465 714 c 0,40,41
 522 714 522 714 548 670.5 c 128,-1,42
 574 627 574 627 574 575 c 0,43,44
 574 442 574 442 504 282 c 1,45,46
 561 253 561 253 592.5 217.5 c 128,-1,47
 624 182 624 182 624 131.5 c 128,-1,48
 624 81 624 81 592.5 27 c 128,-1,49
 561 -27 561 -27 522 -61.5 c 128,-1,50
 483 -96 483 -96 464.5 -96 c 128,-1,51
 446 -96 446 -96 446 -83 c 0,52,53
 446 -75 446 -75 453 -69 c 0,54,55
 515 -21 515 -21 515 42 c 128,-1,56
 515 105 515 105 437 154 c 1,57,58
 378 62 378 62 306 7 c 128,-1,59
 234 -48 234 -48 156 -48 c 0,60,61
 105 -48 105 -48 68 -10 c 0,62,63
 1 59 1 59 1 198 c 0,64,65
 1 283 1 283 39.5 395.5 c 128,-1,66
 78 508 78 508 139 609.5 c 128,-1,67
 200 711 200 711 286.5 781.5 c 128,-1,68
 373 852 373 852 458 852 c 0,69,70
 519 852 519 852 519 806 c 1,71,12
 516 778 516 778 495 752.5 c 128,-1,13
EndSplineSet
EndChar

StartChar: R
Encoding: 82 82 53
Width: 681
GlyphClass: 2
Flags: W
LayerCount: 2
Fore
SplineSet
196 173 m 1,0,-1
 195 299 l 1,1,2
 195 431 195 431 201 498 c 128,-1,3
 207 565 207 565 207 569 c 1,4,5
 218 604 218 604 249 604 c 0,6,7
 256 604 256 604 256 596 c 0,8,9
 256 595 256 595 254 580 c 0,10,11
 236 440 236 440 236 210 c 0,12,13
 236 182 236 182 244 82 c 128,-1,14
 252 -18 252 -18 251 -34.5 c 128,-1,15
 250 -51 250 -51 235 -51 c 1,16,17
 203 -48 203 -48 164.5 -1 c 128,-1,18
 126 46 126 46 93 118 c 128,-1,19
 60 190 60 190 38 286 c 128,-1,20
 16 382 16 382 16 474 c 256,21,22
 16 566 16 566 54 666 c 0,23,24
 76 722 76 722 106.5 768 c 128,-1,25
 137 814 137 814 187 844.5 c 128,-1,26
 237 875 237 875 297 875 c 0,27,28
 408 875 408 875 477.5 778.5 c 128,-1,29
 547 682 547 682 547 559 c 0,30,31
 547 415 547 415 454 342 c 0,32,33
 404 302 404 302 333 294 c 1,34,35
 326 292 326 292 326 286 c 0,36,37
 326 266 326 266 363.5 213.5 c 128,-1,38
 401 161 401 161 464.5 109.5 c 128,-1,39
 528 58 528 58 585 53 c 1,40,41
 622 53 622 53 649 82 c 0,42,43
 659 94 659 94 665 94 c 1,44,45
 683 83 683 83 683 71 c 0,46,47
 683 58 683 58 658 31.5 c 128,-1,48
 633 5 633 5 610 -12 c 0,49,50
 557 -51 557 -51 490.5 -51 c 128,-1,51
 424 -51 424 -51 376.5 -11 c 128,-1,52
 329 29 329 29 304 94 c 0,53,54
 255 221 255 221 255 362 c 0,55,56
 255 377 255 377 266 377 c 1,57,58
 270 376 270 376 280 368 c 0,59,60
 309 345 309 345 348 341 c 1,61,62
 393 341 393 341 416.5 379.5 c 128,-1,63
 440 418 440 418 440 481.5 c 128,-1,64
 440 545 440 545 417 611.5 c 128,-1,65
 394 678 394 678 342 728 c 128,-1,66
 290 778 290 778 222 778 c 0,67,68
 169 778 169 778 115.5 699 c 128,-1,69
 62 620 62 620 62 510 c 0,70,71
 62 426 62 426 95 323.5 c 128,-1,72
 128 221 128 221 191 140 c 1,73,-1
 192 140 l 2,74,75
 195 140 195 140 195 148 c 2,76,-1
 196 173 l 1,0,-1
EndSplineSet
EndChar

StartChar: S
Encoding: 83 83 54
Width: 648
GlyphClass: 2
Flags: W
LayerCount: 2
Fore
SplineSet
595 613 m 0,0,1
 588 613 588 613 583.5 617.5 c 128,-1,2
 579 622 579 622 579 627 c 128,-1,3
 579 632 579 632 584 641 c 128,-1,4
 589 650 589 650 589 658 c 0,5,6
 589 681 589 681 565.5 691.5 c 128,-1,7
 542 702 542 702 517 702 c 0,8,9
 443 702 443 702 362.5 652 c 128,-1,10
 282 602 282 602 268 532 c 1,11,12
 273 490 273 490 309.5 453.5 c 128,-1,13
 346 417 346 417 394 390.5 c 128,-1,14
 442 364 442 364 489 337 c 128,-1,15
 536 310 536 310 568 273 c 128,-1,16
 600 236 600 236 600 197.5 c 128,-1,17
 600 159 600 159 572 122.5 c 128,-1,18
 544 86 544 86 516.5 61 c 128,-1,19
 489 36 489 36 489 34.5 c 128,-1,20
 489 33 489 33 492 33 c 0,21,22
 553 33 553 33 659 100 c 1,23,-1
 669 107 l 2,24,25
 676 111 676 111 679.5 111 c 128,-1,26
 683 111 683 111 687 105 c 128,-1,27
 691 99 691 99 691 92 c 128,-1,28
 691 85 691 85 678 78 c 1,29,30
 620 23 620 23 461.5 -27 c 128,-1,31
 303 -77 303 -77 175 -77 c 0,32,33
 0 -77 0 -77 0 25 c 0,34,35
 0 40 0 40 30 68 c 0,36,37
 76 110 76 110 86 110 c 128,-1,38
 96 110 96 110 137 85 c 128,-1,39
 178 60 178 60 240 35 c 128,-1,40
 302 10 302 10 363 10 c 128,-1,41
 424 10 424 10 456.5 48 c 128,-1,42
 489 86 489 86 489 126 c 128,-1,43
 489 166 489 166 455 198 c 128,-1,44
 421 230 421 230 372.5 254.5 c 128,-1,45
 324 279 324 279 275 305 c 128,-1,46
 226 331 226 331 192 368 c 128,-1,47
 158 405 158 405 158 449 c 0,48,49
 158 520 158 520 237 598 c 128,-1,50
 316 676 316 676 418 724 c 128,-1,51
 520 772 520 772 592 772 c 0,52,53
 682 772 682 772 682 712 c 0,54,55
 682 676 682 676 649.5 644.5 c 128,-1,56
 617 613 617 613 595 613 c 0,0,1
EndSplineSet
EndChar

StartChar: T
Encoding: 84 84 55
Width: 524
GlyphClass: 2
Flags: W
LayerCount: 2
Fore
SplineSet
472 43 m 1,0,-1
 454 40 l 1,1,2
 398 40 398 40 363.5 121.5 c 128,-1,3
 329 203 329 203 329 329.5 c 128,-1,4
 329 456 329 456 357 597 c 1,5,6
 357 605 357 605 347 605 c 0,7,8
 322 603 322 603 315 589.5 c 128,-1,9
 308 576 308 576 292 521 c 128,-1,10
 276 466 276 466 257.5 366 c 128,-1,11
 239 266 239 266 239 164 c 128,-1,12
 239 62 239 62 264.5 2 c 128,-1,13
 290 -58 290 -58 353 -58 c 0,14,15
 395 -58 395 -58 439.5 -30.5 c 128,-1,16
 484 -3 484 -3 484 28 c 0,17,18
 484 43 484 43 472 43 c 1,0,-1
34 635 m 0,19,20
 144 694 144 694 327 744 c 128,-1,21
 510 794 510 794 648 801 c 1,22,23
 670 798 670 798 670 778.5 c 128,-1,24
 670 759 670 759 658.5 728 c 128,-1,25
 647 697 647 697 629 696 c 0,26,27
 535 690 535 690 320.5 634 c 128,-1,28
 106 578 106 578 20 516 c 1,29,30
 14 513 14 513 9 513 c 0,31,32
 0 513 0 513 0 530 c 128,-1,33
 0 547 0 547 13.5 589 c 128,-1,34
 27 631 27 631 34 635 c 0,19,20
EndSplineSet
EndChar

StartChar: U
Encoding: 85 85 56
Width: 744
GlyphClass: 2
Flags: W
LayerCount: 2
Fore
SplineSet
511 562 m 1,0,1
 510 566 510 566 510 590 c 0,2,3
 508 648 508 648 487 648 c 128,-1,4
 466 648 466 648 456 598.5 c 128,-1,5
 446 549 446 549 446 472 c 128,-1,6
 446 395 446 395 464 316 c 1,7,8
 511 442 511 442 511 562 c 1,0,1
176 725 m 1,9,10
 102 574 102 574 102 371 c 0,11,12
 102 341 102 341 107 293 c 128,-1,13
 112 245 112 245 122 217 c 128,-1,14
 132 189 132 189 147 162 c 0,15,16
 179 104 179 104 250.5 104 c 128,-1,17
 322 104 322 104 382 174 c 1,18,19
 371 234 371 234 371 303 c 1,20,21
 383 494 383 494 425.5 620 c 128,-1,22
 468 746 468 746 522 746 c 0,23,24
 561 746 561 746 561 644 c 0,25,26
 561 570 561 570 538.5 469 c 128,-1,27
 516 368 516 368 475 273 c 1,28,29
 502 176 502 176 550.5 113.5 c 128,-1,30
 599 51 599 51 668 51 c 0,31,32
 686 51 686 51 702 63.5 c 128,-1,33
 718 76 718 76 725 76 c 128,-1,34
 732 76 732 76 738 68 c 128,-1,35
 744 60 744 60 744 52 c 0,36,37
 744 24 744 24 687.5 -16.5 c 128,-1,38
 631 -57 631 -57 559 -57 c 0,39,40
 511 -57 511 -57 465 -8.5 c 128,-1,41
 419 40 419 40 394 126 c 1,42,43
 285 -29 285 -29 153 -29 c 0,44,45
 0 -29 0 -29 0 211 c 0,46,47
 0 341 0 341 40 494.5 c 128,-1,48
 80 648 80 648 131 729 c 0,49,50
 144 750 144 750 170 750 c 0,51,52
 179 750 179 750 179 740 c 0,53,54
 179 734 179 734 176 725 c 1,9,10
EndSplineSet
EndChar

StartChar: V
Encoding: 86 86 57
Width: 429
GlyphClass: 2
Flags: W
LayerCount: 2
Fore
SplineSet
1 620 m 0,0,1
 1 623 1 623 47.5 671.5 c 128,-1,2
 94 720 94 720 104 720 c 128,-1,3
 114 720 114 720 114 680 c 0,4,5
 114 599 114 599 135.5 509.5 c 128,-1,6
 157 420 157 420 187 350 c 128,-1,7
 217 280 217 280 249 220 c 128,-1,8
 281 160 281 160 302.5 127.5 c 128,-1,9
 324 95 324 95 328 92 c 1,10,11
 365 565 365 565 463 689 c 0,12,13
 493 726 493 726 526 727 c 0,14,15
 543 727 543 727 553 716 c 128,-1,16
 563 705 563 705 563 682 c 128,-1,17
 563 659 563 659 542.5 617.5 c 128,-1,18
 522 576 522 576 506 576 c 0,19,20
 500 576 500 576 497 584.5 c 128,-1,21
 494 593 494 593 492 593 c 0,22,23
 461 593 461 593 431 498 c 128,-1,24
 401 403 401 403 384 291.5 c 128,-1,25
 367 180 367 180 367 110 c 1,26,-1
 372 24 l 1,27,28
 328 -32 328 -32 312.5 -46.5 c 128,-1,29
 297 -61 297 -61 288 -61 c 0,30,31
 272 -61 272 -61 226 14 c 128,-1,32
 180 89 180 89 130 192 c 128,-1,33
 80 295 80 295 41 417 c 128,-1,34
 2 539 2 539 1 620 c 0,0,1
EndSplineSet
EndChar

StartChar: W
Encoding: 87 87 58
Width: 860
GlyphClass: 2
Flags: W
LayerCount: 2
Fore
SplineSet
239 705 m 0,0,1
 245 712 245 712 251 712 c 128,-1,2
 257 712 257 712 262.5 707 c 128,-1,3
 268 702 268 702 268 694.5 c 128,-1,4
 268 687 268 687 258 674 c 0,5,6
 209 602 209 602 163 479 c 128,-1,7
 117 356 117 356 117 266.5 c 128,-1,8
 117 177 117 177 148 136 c 128,-1,9
 179 95 179 95 218.5 95 c 128,-1,10
 258 95 258 95 300 136 c 128,-1,11
 342 177 342 177 380 242 c 0,12,13
 447 360 447 360 481 440 c 0,14,15
 493 466 493 466 500 466 c 128,-1,16
 507 466 507 466 512.5 461 c 128,-1,17
 518 456 518 456 518 452 c 128,-1,18
 518 448 518 448 512.5 412 c 128,-1,19
 507 376 507 376 507 323 c 0,20,21
 507 86 507 86 647 86 c 0,22,23
 692 86 692 86 729 112.5 c 128,-1,24
 766 139 766 139 787 178 c 0,25,26
 831 261 831 261 831 322.5 c 128,-1,27
 831 384 831 384 804.5 453 c 128,-1,28
 778 522 778 522 725.5 577.5 c 128,-1,29
 673 633 673 633 611 635 c 0,30,31
 593 636 593 636 593 649 c 0,32,33
 593 670 593 670 629 698.5 c 128,-1,34
 665 727 665 727 709 727 c 0,35,36
 782 727 782 727 837.5 652.5 c 128,-1,37
 893 578 893 578 893 437 c 0,38,39
 893 341 893 341 860 248.5 c 128,-1,40
 827 156 827 156 776.5 90.5 c 128,-1,41
 726 25 726 25 665.5 -15.5 c 128,-1,42
 605 -56 605 -56 552 -56 c 0,43,44
 517 -56 517 -56 492 -37.5 c 128,-1,45
 467 -19 467 -19 454 10 c 1,46,47
 432 64 432 64 432 124 c 0,48,49
 432 177 432 177 440 217 c 128,-1,50
 448 257 448 257 452 276.5 c 128,-1,51
 456 296 456 296 456 299.5 c 128,-1,52
 456 303 456 303 455 303 c 0,53,54
 449 303 449 303 436 275.5 c 128,-1,55
 423 248 423 248 413 229 c 0,56,57
 350 110 350 110 257 10 c 0,58,59
 191 -61 191 -61 122 -61 c 0,60,61
 87 -61 87 -61 48 -28 c 0,62,63
 27 -10 27 -10 14 26.5 c 128,-1,64
 1 63 1 63 1 119 c 128,-1,65
 1 175 1 175 29.5 270 c 128,-1,66
 58 365 58 365 110 474 c 0,67,68
 183 629 183 629 239 705 c 0,0,1
EndSplineSet
EndChar

StartChar: X
Encoding: 88 88 59
Width: 773
GlyphClass: 2
Flags: W
LayerCount: 2
Fore
SplineSet
665 769 m 0,0,1
 684 769 684 769 697 756 c 128,-1,2
 710 743 710 743 710 726 c 0,3,4
 710 696 710 696 671 647.5 c 128,-1,5
 632 599 632 599 607 599 c 0,6,7
 601 599 601 599 599.5 606.5 c 128,-1,8
 598 614 598 614 591 614 c 0,9,10
 553 614 553 614 467 517.5 c 128,-1,11
 381 421 381 421 302 283 c 1,12,13
 480 88 480 88 645 88 c 0,14,15
 681 88 681 88 696 95.5 c 128,-1,16
 711 103 711 103 716 106 c 0,17,18
 728 114 728 114 735.5 121 c 128,-1,19
 743 128 743 128 750.5 128 c 128,-1,20
 758 128 758 128 765.5 119 c 128,-1,21
 773 110 773 110 773 99.5 c 128,-1,22
 773 89 773 89 763 81 c 1,23,24
 659 -27 659 -27 533 -27 c 0,25,26
 460 -27 460 -27 389 13 c 128,-1,27
 318 53 318 53 236 157 c 1,28,29
 183 42 183 42 159 -64 c 0,30,31
 156 -77 156 -77 151 -81 c 128,-1,32
 146 -85 146 -85 132 -85 c 0,33,34
 109 -85 109 -85 109 -63 c 0,35,36
 110 19 110 19 203 201 c 1,37,38
 92 358 92 358 36 553 c 0,39,40
 1 674 1 674 1 739 c 0,41,42
 1 749 1 749 9.5 761 c 128,-1,43
 18 773 18 773 30 773 c 0,44,45
 39 773 39 773 39 755 c 1,46,47
 56 668 56 668 119 547 c 128,-1,48
 182 426 182 426 269 322 c 1,49,50
 374 503 374 503 487.5 636 c 128,-1,51
 601 769 601 769 665 769 c 0,0,1
EndSplineSet
EndChar

StartChar: Y
Encoding: 89 89 60
Width: 530
GlyphClass: 2
Flags: W
LayerCount: 2
Fore
SplineSet
590 692 m 0,0,1
 559 692 559 692 529 616.5 c 128,-1,2
 499 541 499 541 477 422 c 1,3,4
 529 482 529 482 563.5 557.5 c 128,-1,5
 598 633 598 633 598 681 c 0,6,7
 598 692 598 692 590 692 c 0,0,1
458 -31 m 1,8,-1
 470 -27 l 1,9,10
 485 -29 485 -29 486 -44 c 1,11,12
 483 -106 483 -106 449 -156 c 0,13,14
 430 -183 430 -183 407 -183 c 0,15,16
 377 -183 377 -183 377 -72 c 0,17,18
 377 125 377 125 412 317 c 1,19,20
 289 214 289 214 176 214 c 0,21,22
 108 214 108 214 54.5 276.5 c 128,-1,23
 1 339 1 339 1 433 c 0,24,25
 1 554 1 554 75 697 c 1,26,27
 81 712 81 712 90.5 712 c 128,-1,28
 100 712 100 712 105 707 c 128,-1,29
 110 702 110 702 110 697 c 128,-1,30
 110 692 110 692 107 686 c 0,31,32
 89 636 89 636 89 581.5 c 128,-1,33
 89 527 89 527 112 469 c 128,-1,34
 135 411 135 411 185.5 367.5 c 128,-1,35
 236 324 236 324 300 324 c 128,-1,36
 364 324 364 324 423 372 c 1,37,38
 461 551 461 551 518.5 662.5 c 128,-1,39
 576 774 576 774 635 774 c 0,40,41
 671 774 671 774 671 735 c 0,42,43
 671 671 671 671 612.5 564 c 128,-1,44
 554 457 554 457 467 368 c 1,45,46
 445 230 445 230 445 116.5 c 128,-1,47
 445 3 445 3 450 -16 c 1,48,49
 452 -31 452 -31 458 -31 c 1,8,-1
EndSplineSet
EndChar

StartChar: Z
Encoding: 90 90 61
Width: 765
GlyphClass: 2
Flags: W
LayerCount: 2
Fore
SplineSet
358 133 m 1,0,1
 415 126 415 126 514 69 c 128,-1,2
 613 12 613 12 647.5 12 c 128,-1,3
 682 12 682 12 702 23.5 c 128,-1,4
 722 35 722 35 731.5 46.5 c 128,-1,5
 741 58 741 58 744 58 c 0,6,7
 752 58 752 58 758 45 c 128,-1,8
 764 32 764 32 764 27 c 0,9,10
 764 -15 764 -15 690.5 -54.5 c 128,-1,11
 617 -94 617 -94 574 -94 c 128,-1,12
 531 -94 531 -94 477.5 -73 c 128,-1,13
 424 -52 424 -52 383 -28 c 0,14,15
 272 39 272 39 246.5 39 c 128,-1,16
 221 39 221 39 186 8 c 128,-1,17
 151 -23 151 -23 119.5 -54 c 128,-1,18
 88 -85 88 -85 75.5 -85 c 128,-1,19
 63 -85 63 -85 54 -75 c 128,-1,20
 45 -65 45 -65 45 -56 c 128,-1,21
 45 -47 45 -47 70.5 -19.5 c 128,-1,22
 96 8 96 8 144 44.5 c 128,-1,23
 192 81 192 81 240 103 c 1,24,25
 261 147 261 147 322.5 281.5 c 128,-1,26
 384 416 384 416 385 417.5 c 128,-1,27
 386 419 386 419 405.5 460.5 c 128,-1,28
 425 502 425 502 432 516 c 128,-1,29
 439 530 439 530 458.5 568 c 128,-1,30
 478 606 478 606 490 626 c 0,31,32
 530 687 530 687 551 708 c 1,33,34
 551 711 551 711 548 711 c 128,-1,35
 545 711 545 711 540 708.5 c 128,-1,36
 535 706 535 706 484 684 c 128,-1,37
 433 662 433 662 397.5 647 c 128,-1,38
 362 632 362 632 304.5 608.5 c 128,-1,39
 247 585 247 585 206 571 c 0,40,41
 99 535 99 535 57 535 c 0,42,43
 0 535 0 535 0 577 c 0,44,45
 0 593 0 593 15 608 c 128,-1,46
 30 623 30 623 41 632.5 c 128,-1,47
 52 642 52 642 63 650 c 0,48,49
 102 681 102 681 109.5 681 c 128,-1,50
 117 681 117 681 123 676 c 128,-1,51
 129 671 129 671 129 664.5 c 128,-1,52
 129 658 129 658 114 646 c 128,-1,53
 99 634 99 634 99 630.5 c 128,-1,54
 99 627 99 627 107 627 c 0,55,56
 130 627 130 627 337 691 c 0,57,58
 600 772 600 772 626 790 c 0,59,60
 642 801 642 801 650 801 c 128,-1,61
 658 801 658 801 663 790.5 c 128,-1,62
 668 780 668 780 668 767 c 128,-1,63
 668 754 668 754 657 750 c 0,64,65
 589 722 589 722 494 544 c 0,66,67
 446 454 446 454 301 125 c 1,68,69
 331 133 331 133 358 133 c 1,0,1
EndSplineSet
EndChar

StartChar: bracketleft
Encoding: 91 91 62
Width: 253
GlyphClass: 2
Flags: W
LayerCount: 2
Fore
SplineSet
215 729 m 1,0,-1
 164 736 l 1,1,2
 131 736 131 736 131 438 c 0,3,4
 131 256 131 256 143.5 88.5 c 128,-1,5
 156 -79 156 -79 172 -79 c 1,6,-1
 215 -74 l 1,7,8
 224 -74 224 -74 228.5 -97.5 c 128,-1,9
 233 -121 233 -121 233 -144 c 0,10,11
 233 -155 233 -155 190.5 -160.5 c 128,-1,12
 148 -166 148 -166 124 -166 c 0,13,14
 110 -166 110 -166 100 -2.5 c 128,-1,15
 90 161 90 161 90 361 c 128,-1,16
 90 561 90 561 102 695.5 c 128,-1,17
 114 830 114 830 138 830 c 0,18,19
 156 830 156 830 194.5 821.5 c 128,-1,20
 233 813 233 813 233 801 c 0,21,22
 233 778 233 778 228.5 753.5 c 128,-1,23
 224 729 224 729 215 729 c 1,0,-1
EndSplineSet
EndChar

StartChar: backslash
Encoding: 92 92 63
Width: 312
GlyphClass: 2
Flags: W
LayerCount: 2
Fore
SplineSet
-48 718 m 1,0,1
 -2 620 -2 620 117 329 c 128,-1,2
 236 38 236 38 278 -49 c 0,3,4
 280 -55 280 -55 280 -56 c 0,5,6
 280 -61 280 -61 271.5 -64 c 128,-1,7
 263 -67 263 -67 258 -67 c 0,8,9
 235 -67 235 -67 222 -44 c 1,10,11
 217 -33 217 -33 85 292 c 128,-1,12
 -47 617 -47 617 -71 665.5 c 128,-1,13
 -95 714 -95 714 -95 723 c 0,14,15
 -95 726 -95 726 -83 728.5 c 128,-1,16
 -71 731 -71 731 -64 731 c 128,-1,17
 -57 731 -57 731 -48 718 c 1,0,1
EndSplineSet
EndChar

StartChar: bracketright
Encoding: 93 93 64
Width: 253
GlyphClass: 2
Flags: W
LayerCount: 2
Fore
SplineSet
109 -74 m 1,0,-1
 152 -79 l 1,1,2
 168 -79 168 -79 180.5 88.5 c 128,-1,3
 193 256 193 256 193 438 c 0,4,5
 193 736 193 736 160 736 c 1,6,-1
 109 729 l 1,7,8
 100 729 100 729 95.5 753.5 c 128,-1,9
 91 778 91 778 91 801 c 0,10,11
 91 813 91 813 129.5 821.5 c 128,-1,12
 168 830 168 830 186 830 c 0,13,14
 210 830 210 830 222 695.5 c 128,-1,15
 234 561 234 561 234 361 c 128,-1,16
 234 161 234 161 224 -2.5 c 128,-1,17
 214 -166 214 -166 200 -166 c 0,18,19
 176 -166 176 -166 133.5 -160.5 c 128,-1,20
 91 -155 91 -155 91 -144 c 0,21,22
 91 -121 91 -121 95.5 -97.5 c 128,-1,23
 100 -74 100 -74 109 -74 c 1,0,-1
EndSplineSet
EndChar

StartChar: asciicircum
Encoding: 94 94 65
Width: 329
GlyphClass: 2
Flags: W
LayerCount: 2
Fore
SplineSet
171 111 m 1,0,1
 130 75 130 75 84.5 75 c 128,-1,2
 39 75 39 75 39 93 c 0,3,4
 39 104 39 104 65.5 113.5 c 128,-1,5
 92 123 92 123 108 137.5 c 128,-1,6
 124 152 124 152 130 164.5 c 128,-1,7
 136 177 136 177 146 186 c 128,-1,8
 156 195 156 195 171 195 c 128,-1,9
 186 195 186 195 196 186 c 128,-1,10
 206 177 206 177 212 164.5 c 128,-1,11
 218 152 218 152 234 137.5 c 128,-1,12
 250 123 250 123 276.5 113.5 c 128,-1,13
 303 104 303 104 303 93 c 0,14,15
 303 75 303 75 257.5 75 c 128,-1,16
 212 75 212 75 171 111 c 1,0,1
EndSplineSet
EndChar

StartChar: underscore
Encoding: 95 95 66
Width: 370
GlyphClass: 2
Flags: W
LayerCount: 2
Fore
SplineSet
56 -12 m 1,0,-1
 262 -16 l 1,1,-1
 294 -16 l 2,2,3
 333 -16 333 -16 333 -48 c 0,4,5
 333 -62 333 -62 308 -62 c 0,6,7
 71 -62 71 -62 33 -69 c 0,8,9
 30 -69 30 -69 27 -56.5 c 128,-1,10
 24 -44 24 -44 24 -34 c 0,11,12
 24 -12 24 -12 46 -12 c 2,13,-1
 56 -12 l 1,0,-1
EndSplineSet
EndChar

StartChar: grave
Encoding: 96 96 67
Width: 305
GlyphClass: 2
Flags: W
LayerCount: 2
Fore
SplineSet
51 373 m 0,0,1
 51 386 51 386 60.5 398 c 128,-1,2
 70 410 70 410 90 410 c 128,-1,3
 110 410 110 410 121 400.5 c 128,-1,4
 132 391 132 391 136.5 378.5 c 128,-1,5
 141 366 141 366 160 350 c 128,-1,6
 179 334 179 334 209.5 324.5 c 128,-1,7
 240 315 240 315 240 300 c 0,8,9
 240 288 240 288 225.5 288 c 128,-1,10
 211 288 211 288 191.5 290 c 128,-1,11
 172 292 172 292 135.5 298.5 c 128,-1,12
 99 305 99 305 75 324.5 c 128,-1,13
 51 344 51 344 51 373 c 0,0,1
EndSplineSet
EndChar

StartChar: a
Encoding: 97 97 68
Width: 358
GlyphClass: 2
Flags: W
LayerCount: 2
Fore
SplineSet
257 128 m 1,0,-1
 253 100 l 1,1,2
 253 82 253 82 268.5 62.5 c 128,-1,3
 284 43 284 43 305 43 c 0,4,5
 321 43 321 43 331 50 c 0,6,7
 353 65 353 65 358.5 70.5 c 128,-1,8
 364 76 364 76 376.5 76 c 128,-1,9
 389 76 389 76 389 67 c 0,10,11
 389 57 389 57 342 4 c 0,12,13
 327 -13 327 -13 298 -32 c 128,-1,14
 269 -51 269 -51 246.5 -51 c 128,-1,15
 224 -51 224 -51 212.5 -43.5 c 128,-1,16
 201 -36 201 -36 196 -20 c 0,17,18
 190 2 190 2 190 34 c 0,19,20
 190 38 190 38 185 38 c 128,-1,21
 180 38 180 38 162 18 c 0,22,23
 106 -40 106 -40 71.5 -40 c 128,-1,24
 37 -40 37 -40 18.5 -22 c 128,-1,25
 0 -4 0 -4 0 24 c 0,26,27
 0 73 0 73 26 117.5 c 128,-1,28
 52 162 52 162 88 189 c 0,29,30
 168 248 168 248 212 248 c 1,31,32
 278 246 278 246 278 201 c 0,33,34
 278 185 278 185 264 169.5 c 128,-1,35
 250 154 250 154 238 154 c 128,-1,36
 226 154 226 154 205 175 c 128,-1,37
 184 196 184 196 159 196 c 128,-1,38
 134 196 134 196 118 175.5 c 128,-1,39
 102 155 102 155 102 123 c 0,40,41
 102 71 102 71 157 71 c 0,42,43
 179 71 179 71 193.5 82 c 128,-1,44
 208 93 208 93 214 106 c 0,45,46
 231 140 231 140 245 140 c 0,47,48
 257 140 257 140 257 128 c 1,0,-1
EndSplineSet
EndChar

StartChar: b
Encoding: 98 98 69
Width: 308
GlyphClass: 2
Flags: W
LayerCount: 2
Fore
SplineSet
114.5 312.5 m 128,-1,1
 138 405 138 405 138 458 c 128,-1,2
 138 511 138 511 119 511 c 0,3,4
 90 511 90 511 72 430 c 128,-1,5
 54 349 54 349 54 295.5 c 128,-1,6
 54 242 54 242 62 194 c 1,7,0
 91 220 91 220 114.5 312.5 c 128,-1,1
90 -43 m 0,8,9
 63 -43 63 -43 43.5 -24 c 128,-1,10
 24 -5 24 -5 14.5 18 c 128,-1,11
 5 41 5 41 0 74 c 0,12,13
 -17 184 -17 184 18 344 c 1,14,15
 39 445 39 445 76 516.5 c 128,-1,16
 113 588 113 588 151 588 c 0,17,18
 167 588 167 588 176.5 568.5 c 128,-1,19
 186 549 186 549 186 533 c 0,20,21
 185 437 185 437 147 323.5 c 128,-1,22
 109 210 109 210 69 161 c 1,23,24
 100 52 100 52 166 52 c 0,25,26
 182 52 182 52 202 61 c 1,27,28
 163 75 163 75 163 118.5 c 128,-1,29
 163 162 163 162 195.5 203 c 128,-1,30
 228 244 228 244 263 244 c 0,31,32
 274 244 274 244 281.5 235.5 c 128,-1,33
 289 227 289 227 289 215 c 128,-1,34
 289 203 289 203 284 190 c 128,-1,35
 279 177 279 177 279 163 c 0,36,37
 279 134 279 134 317 134 c 0,38,39
 330 134 330 134 348 145.5 c 128,-1,40
 366 157 366 157 372 157 c 0,41,42
 385 157 385 157 385 147 c 128,-1,43
 385 137 385 137 366 119.5 c 128,-1,44
 347 102 347 102 311 83.5 c 128,-1,45
 275 65 275 65 237 60 c 1,46,47
 194 -43 194 -43 90 -43 c 0,8,9
EndSplineSet
EndChar

StartChar: c
Encoding: 99 99 70
Width: 269
GlyphClass: 2
Flags: W
LayerCount: 2
Fore
SplineSet
109 69.5 m 128,-1,1
 130 45 130 45 164.5 45 c 128,-1,2
 199 45 199 45 221.5 53.5 c 128,-1,3
 244 62 244 62 256 70.5 c 128,-1,4
 268 79 268 79 274 79 c 0,5,6
 283 79 283 79 283 70 c 0,7,8
 283 39 283 39 225 -3.5 c 128,-1,9
 167 -46 167 -46 90 -46 c 0,10,11
 41 -46 41 -46 16.5 -21.5 c 128,-1,12
 -8 3 -8 3 -8 43 c 0,13,14
 -8 115 -8 115 53.5 186.5 c 128,-1,15
 115 258 115 258 195 258 c 0,16,17
 214 258 214 258 225.5 246.5 c 128,-1,18
 237 235 237 235 237 213.5 c 128,-1,19
 237 192 237 192 212.5 165.5 c 128,-1,20
 188 139 188 139 163 139 c 0,21,22
 156 139 156 139 156 146 c 128,-1,23
 156 153 156 153 163.5 161 c 128,-1,24
 171 169 171 169 171 180.5 c 128,-1,25
 171 192 171 192 163.5 203 c 128,-1,26
 156 214 156 214 147 214 c 0,27,28
 120 214 120 214 104 189.5 c 128,-1,29
 88 165 88 165 88 129.5 c 128,-1,0
 88 94 88 94 109 69.5 c 128,-1,1
EndSplineSet
EndChar

StartChar: d
Encoding: 100 100 71
Width: 427
GlyphClass: 2
Flags: W
LayerCount: 2
Fore
SplineSet
228 379 m 0,0,1
 228 256 228 256 249 178 c 1,2,3
 274 242 274 242 290.5 321.5 c 128,-1,4
 307 401 307 401 307 434 c 0,5,6
 307 540 307 540 280 540 c 0,7,8
 257 540 257 540 242.5 482.5 c 128,-1,9
 228 425 228 425 228 379 c 0,0,1
376 51 m 1,10,-1
 414 61 l 1,11,12
 427 61 427 61 427 50 c 0,13,14
 427 41 427 41 410 22.5 c 128,-1,15
 393 4 393 4 361 -16 c 128,-1,16
 329 -36 329 -36 299 -36 c 0,17,18
 233 -36 233 -36 204 36 c 1,19,20
 146 -35 146 -35 72 -35 c 0,21,22
 34 -35 34 -35 17 -7.5 c 128,-1,23
 0 20 0 20 0 61 c 0,24,25
 0 116 0 116 60.5 174 c 128,-1,26
 121 232 121 232 156 232 c 0,27,28
 165 232 165 232 168 221 c 1,29,30
 168 213 168 213 142 196 c 0,31,32
 103 172 103 172 103 134 c 0,33,34
 103 92 103 92 126 80 c 1,35,36
 143 70 143 70 157.5 70 c 128,-1,37
 172 70 172 70 189 84 c 1,38,39
 178 138 178 138 178 214.5 c 128,-1,40
 178 291 178 291 190.5 376.5 c 128,-1,41
 203 462 203 462 231.5 532 c 128,-1,42
 260 602 260 602 296 602 c 0,43,44
 319 602 319 602 330 570 c 128,-1,45
 341 538 341 538 341 491 c 128,-1,46
 341 444 341 444 321.5 335.5 c 128,-1,47
 302 227 302 227 263 137 c 1,48,49
 300 51 300 51 376 51 c 1,10,-1
EndSplineSet
EndChar

StartChar: e
Encoding: 101 101 72
Width: 241
GlyphClass: 2
Flags: W
LayerCount: 2
Fore
SplineSet
116.5 153.5 m 128,-1,1
 134 186 134 186 134 207 c 128,-1,2
 134 228 134 228 118 229 c 1,3,4
 94 229 94 229 84 207.5 c 128,-1,5
 74 186 74 186 74 160.5 c 128,-1,6
 74 135 74 135 82 115 c 1,7,0
 99 121 99 121 116.5 153.5 c 128,-1,1
168 50 m 0,8,9
 196 50 196 50 214.5 62.5 c 128,-1,10
 233 75 233 75 249.5 95 c 128,-1,11
 266 115 266 115 275.5 115 c 128,-1,12
 285 115 285 115 285 106 c 0,13,14
 285 100 285 100 281 92 c 0,15,16
 248 39 248 39 199 -1.5 c 128,-1,17
 150 -42 150 -42 95 -42 c 128,-1,18
 40 -42 40 -42 15.5 -15.5 c 128,-1,19
 -9 11 -9 11 -9 55 c 0,20,21
 -9 131 -9 131 48 210.5 c 128,-1,22
 105 290 105 290 166 290 c 0,23,24
 198 290 198 290 198 264 c 0,25,26
 198 229 198 229 176 191.5 c 128,-1,27
 154 154 154 154 95 90 c 1,28,29
 122 50 122 50 168 50 c 0,8,9
EndSplineSet
EndChar

StartChar: f
Encoding: 102 102 73
Width: 219
GlyphClass: 2
Flags: W
LayerCount: 2
Fore
SplineSet
168 458 m 0,0,1
 168 471 168 471 161.5 484 c 128,-1,2
 155 497 155 497 147 497 c 0,3,4
 115 497 115 497 105 322 c 1,5,6
 100 253 100 253 97 183 c 1,7,8
 168 359 168 359 168 458 c 0,0,1
-1 -34.5 m 128,-1,10
 -24 -17 -24 -17 -24 -7.5 c 128,-1,11
 -24 2 -24 2 -17 10 c 0,12,13
 -11 18 -11 18 2 34 c 0,14,15
 33 69 33 69 37 75 c 128,-1,16
 41 81 41 81 47 81 c 128,-1,17
 53 81 53 81 59 79 c 1,18,19
 65 503 65 503 122 583 c 0,20,21
 137 605 137 605 157 605 c 0,22,23
 209 605 209 605 209 524 c 128,-1,24
 209 443 209 443 169.5 320 c 128,-1,25
 130 197 130 197 95 129 c 1,26,27
 94 102 94 102 94 61 c 1,28,-1
 93 54 l 1,29,30
 115 41 115 41 143.5 41 c 128,-1,31
 172 41 172 41 187 50 c 128,-1,32
 202 59 202 59 209 59 c 128,-1,33
 216 59 216 59 216 52 c 0,34,35
 216 16 216 16 170.5 -21 c 128,-1,36
 125 -58 125 -58 87 -59 c 1,37,-1
 86 -81 l 1,38,39
 91 -87 91 -87 98.5 -97.5 c 128,-1,40
 106 -108 106 -108 119 -145 c 128,-1,41
 132 -182 132 -182 132 -228.5 c 128,-1,42
 132 -275 132 -275 111.5 -318 c 128,-1,43
 91 -361 91 -361 69 -361 c 0,44,45
 50 -361 50 -361 49 -347 c 0,46,47
 47 -321 47 -321 47 -289.5 c 128,-1,48
 47 -258 47 -258 52 -177 c 128,-1,49
 57 -96 57 -96 57 -89 c 2,50,-1
 57 -57 l 1,51,9
 22 -52 22 -52 -1 -34.5 c 128,-1,10
EndSplineSet
EndChar

StartChar: g
Encoding: 103 103 74
Width: 324
GlyphClass: 2
Flags: W
LayerCount: 2
Fore
SplineSet
178 -179 m 128,-1,1
 169 -215 169 -215 169 -265 c 128,-1,2
 169 -315 169 -315 196 -318 c 1,3,4
 219 -318 219 -318 219 -176 c 0,5,6
 219 -127 219 -127 218 -97 c 1,7,0
 187 -143 187 -143 178 -179 c 128,-1,1
218 -62 m 1,8,9
 216 -30 216 -30 216 36 c 1,10,11
 214 36 214 36 201.5 23.5 c 128,-1,12
 189 11 189 11 173.5 -3.5 c 128,-1,13
 158 -18 158 -18 134.5 -30.5 c 128,-1,14
 111 -43 111 -43 80 -43 c 128,-1,15
 49 -43 49 -43 29.5 -24 c 128,-1,16
 10 -5 10 -5 10 27 c 0,17,18
 10 96 10 96 77.5 169.5 c 128,-1,19
 145 243 145 243 225 243 c 0,20,21
 250 243 250 243 265.5 231.5 c 128,-1,22
 281 220 281 220 281 202 c 0,23,24
 281 186 281 186 269 172 c 0,25,26
 248 148 248 148 216 148 c 0,27,28
 204 148 204 148 204 155 c 0,29,30
 204 159 204 159 206.5 164 c 128,-1,31
 209 169 209 169 209 177 c 0,32,33
 209 197 209 197 190 197 c 0,34,35
 159 197 159 197 138 170 c 128,-1,36
 117 143 117 143 117 117 c 128,-1,37
 117 91 117 91 129.5 78.5 c 128,-1,38
 142 66 142 66 158 66 c 128,-1,39
 174 66 174 66 195 81 c 128,-1,40
 216 96 216 96 222 115 c 0,41,42
 229 141 229 141 253 141 c 0,43,44
 262 141 262 141 262 127.5 c 128,-1,45
 262 114 262 114 255.5 90.5 c 128,-1,46
 249 67 249 67 246.5 48.5 c 128,-1,47
 244 30 244 30 244 -30 c 1,48,49
 305 42 305 42 355 88 c 0,50,51
 366 99 366 99 377 99 c 128,-1,52
 388 99 388 99 388 91.5 c 128,-1,53
 388 84 388 84 377 74 c 0,54,55
 290 -5 290 -5 245 -61 c 1,56,57
 247 -133 247 -133 247 -178 c 0,58,59
 247 -301 247 -301 228.5 -375.5 c 128,-1,60
 210 -450 210 -450 158 -450 c 0,61,62
 125 -450 125 -450 107 -418.5 c 128,-1,63
 89 -387 89 -387 89 -333 c 0,64,65
 89 -224 89 -224 218 -62 c 1,8,9
EndSplineSet
EndChar

StartChar: h
Encoding: 104 104 75
Width: 330
GlyphClass: 2
Flags: W
LayerCount: 2
Fore
SplineSet
78 567 m 0,0,1
 37 567 37 567 37 296 c 2,2,-1
 37 236 l 1,3,4
 63 302 63 302 85.5 382 c 128,-1,5
 108 462 108 462 108 514.5 c 128,-1,6
 108 567 108 567 78 567 c 0,0,1
47 49 m 0,7,8
 57 49 57 49 105 115 c 128,-1,9
 153 181 153 181 166 181.5 c 128,-1,10
 179 182 179 182 192 160 c 128,-1,11
 205 138 205 138 217.5 111.5 c 128,-1,12
 230 85 230 85 258 62.5 c 128,-1,13
 286 40 286 40 314 40 c 128,-1,14
 342 40 342 40 348 44 c 128,-1,15
 354 48 354 48 357.5 48 c 128,-1,16
 361 48 361 48 361 40 c 0,17,18
 360 20 360 20 329 -8.5 c 128,-1,19
 298 -37 298 -37 247 -37 c 0,20,21
 161 -37 161 -37 127 62 c 0,22,23
 124 68 124 68 121.5 68 c 128,-1,24
 119 68 119 68 114 64 c 128,-1,25
 109 60 109 60 93 41 c 128,-1,26
 77 22 77 22 60.5 2 c 128,-1,27
 44 -18 44 -18 40 -22 c 128,-1,28
 36 -26 36 -26 25 -26 c 128,-1,29
 14 -26 14 -26 13 -14 c 0,30,31
 4 76 4 76 4 174.5 c 128,-1,32
 4 273 4 273 6.5 327 c 128,-1,33
 9 381 9 381 17 466 c 128,-1,34
 25 551 25 551 45.5 605 c 128,-1,35
 66 659 66 659 97 659 c 0,36,37
 162 659 162 659 162 568 c 0,38,39
 162 490 162 490 120 371.5 c 128,-1,40
 78 253 78 253 39 184 c 1,41,42
 43 49 43 49 47 49 c 0,7,8
EndSplineSet
EndChar

StartChar: i
Encoding: 105 105 76
Width: 234
GlyphClass: 2
Flags: W
LayerCount: 2
Fore
SplineSet
10 353 m 128,-1,1
 10 378 10 378 25.5 395 c 128,-1,2
 41 412 41 412 64 412 c 128,-1,3
 87 412 87 412 102.5 395 c 128,-1,4
 118 378 118 378 118 353 c 128,-1,5
 118 328 118 328 102.5 311 c 128,-1,6
 87 294 87 294 64 294 c 128,-1,7
 41 294 41 294 25.5 311 c 128,-1,0
 10 328 10 328 10 353 c 128,-1,1
233 93 m 0,8,9
 243 101 243 101 251 101 c 0,10,11
 265 101 265 101 265 83 c 0,12,13
 265 58 265 58 203 8.5 c 128,-1,14
 141 -41 141 -41 96 -41 c 128,-1,15
 51 -41 51 -41 26 -9 c 128,-1,16
 1 23 1 23 1 73.5 c 128,-1,17
 1 124 1 124 18 171 c 128,-1,18
 35 218 35 218 52 218 c 1,19,20
 60 217 60 217 60 193.5 c 128,-1,21
 60 170 60 170 67 142 c 128,-1,22
 74 114 74 114 97.5 88.5 c 128,-1,23
 121 63 121 63 158.5 63 c 128,-1,24
 196 63 196 63 233 93 c 0,8,9
EndSplineSet
EndChar

StartChar: j
Encoding: 106 106 77
Width: 228
GlyphClass: 2
Flags: W
LayerCount: 2
Fore
SplineSet
30 353 m 128,-1,1
 30 378 30 378 45.5 395 c 128,-1,2
 61 412 61 412 84 412 c 128,-1,3
 107 412 107 412 122.5 395 c 128,-1,4
 138 378 138 378 138 353 c 128,-1,5
 138 328 138 328 122.5 311 c 128,-1,6
 107 294 107 294 84 294 c 128,-1,7
 61 294 61 294 45.5 311 c 128,-1,0
 30 328 30 328 30 353 c 128,-1,1
56 -293 m 0,8,9
 75 -293 75 -293 75 -233 c 128,-1,10
 75 -173 75 -173 69 -23 c 1,11,12
 33 -26 33 -26 4 -56.5 c 128,-1,13
 -25 -87 -25 -87 -25 -133.5 c 128,-1,14
 -25 -180 -25 -180 -2 -236.5 c 128,-1,15
 21 -293 21 -293 56 -293 c 0,8,9
65 164 m 2,16,17
 65 170 65 170 61.5 170 c 128,-1,18
 58 170 58 170 51 161 c 128,-1,19
 44 152 44 152 33.5 152 c 128,-1,20
 23 152 23 152 23 159 c 128,-1,21
 23 166 23 166 32 176.5 c 128,-1,22
 41 187 41 187 50.5 210 c 128,-1,23
 60 233 60 233 67 247 c 128,-1,24
 74 261 74 261 83.5 261 c 128,-1,25
 93 261 93 261 99 251.5 c 128,-1,26
 105 242 105 242 105 235 c 128,-1,27
 105 228 105 228 100.5 212 c 128,-1,28
 96 196 96 196 96 182 c 0,29,30
 96 82 96 82 97 40 c 1,31,32
 134 53 134 53 162.5 53 c 128,-1,33
 191 53 191 53 207.5 34 c 128,-1,34
 224 15 224 15 224 -8.5 c 128,-1,35
 224 -32 224 -32 199.5 -62.5 c 128,-1,36
 175 -93 175 -93 163.5 -93 c 128,-1,37
 152 -93 152 -93 147 -80 c 1,38,39
 144 -76 144 -76 138.5 -67 c 128,-1,40
 133 -58 133 -58 130.5 -54.5 c 128,-1,41
 128 -51 128 -51 123.5 -45 c 128,-1,42
 119 -39 119 -39 116 -36 c 0,43,44
 107 -29 107 -29 100 -26 c 1,45,46
 108 -269 108 -269 108 -308 c 0,47,48
 108 -401 108 -401 30 -401 c 0,49,50
 -10 -401 -10 -401 -44.5 -356.5 c 128,-1,51
 -79 -312 -79 -312 -79 -231 c 128,-1,52
 -79 -150 -79 -150 -38 -78.5 c 128,-1,53
 3 -7 3 -7 67 27 c 1,54,55
 65 69 65 69 65 153 c 2,56,-1
 65 164 l 2,16,17
EndSplineSet
EndChar

StartChar: k
Encoding: 107 107 78
Width: 271
GlyphClass: 2
Flags: W
LayerCount: 2
Fore
SplineSet
82 366.5 m 128,-1,1
 103 444 103 444 103 481 c 128,-1,2
 103 518 103 518 96.5 535 c 128,-1,3
 90 552 90 552 81 552 c 0,4,5
 48 552 48 552 37 368 c 1,6,-1
 37 229 l 1,7,0
 61 289 61 289 82 366.5 c 128,-1,1
303 122 m 0,8,9
 298 122 298 122 293.5 116.5 c 128,-1,10
 289 111 289 111 282 103.5 c 128,-1,11
 275 96 275 96 252 83.5 c 128,-1,12
 229 71 229 71 205 71 c 0,13,14
 162 71 162 71 131.5 105.5 c 128,-1,15
 101 140 101 140 101 157.5 c 128,-1,16
 101 175 101 175 96 177 c 1,17,18
 91 177 91 177 83 162 c 0,19,20
 62 123 62 123 62 70.5 c 128,-1,21
 62 18 62 18 90.5 -11.5 c 128,-1,22
 119 -41 119 -41 151 -41 c 0,23,24
 206 -41 206 -41 261 16.5 c 128,-1,25
 316 74 316 74 316 103 c 0,26,27
 316 122 316 122 303 122 c 0,8,9
38 181 m 1,28,-1
 38 175 l 2,29,30
 38 163 38 163 40.5 163 c 128,-1,31
 43 163 43 163 47 167 c 1,32,33
 69 230 69 230 102 276.5 c 128,-1,34
 135 323 135 323 174 323 c 0,35,36
 209 323 209 323 209 276 c 0,37,38
 209 259 209 259 192.5 229.5 c 128,-1,39
 176 200 176 200 161 200 c 0,40,41
 155 200 155 200 149 209.5 c 128,-1,42
 143 219 143 219 128 219 c 0,43,44
 99 219 99 219 79 193.5 c 128,-1,45
 59 168 59 168 50 128 c 0,46,47
 36 60 36 60 36 -2 c 0,48,49
 36 -32 36 -32 9 -32 c 0,50,51
 4 -32 4 -32 4 -23 c 0,52,53
 8 42 8 42 8 140 c 2,54,-1
 8 282 l 2,55,56
 8 467 8 467 21 534 c 0,57,58
 36 608 36 608 59 630 c 0,59,60
 73 643 73 643 92 643 c 0,61,62
 146 643 146 643 146 562 c 128,-1,63
 146 481 146 481 108.5 363 c 128,-1,64
 71 245 71 245 38 181 c 1,28,-1
EndSplineSet
EndChar

StartChar: l
Encoding: 108 108 79
Width: 256
GlyphClass: 2
Flags: W
LayerCount: 2
Fore
SplineSet
59.5 489 m 128,-1,1
 45 424 45 424 45 357 c 128,-1,2
 45 290 45 290 59 225 c 1,3,4
 128 328 128 328 128 501 c 0,5,6
 128 526 128 526 120.5 540 c 128,-1,7
 113 554 113 554 102 554 c 0,8,0
 74 554 74 554 59.5 489 c 128,-1,1
199 68 m 0,9,10
 215 68 215 68 245 80 c 128,-1,11
 275 92 275 92 286 92 c 128,-1,12
 297 92 297 92 297 82 c 0,13,14
 297 59 297 59 234.5 14.5 c 128,-1,15
 172 -30 172 -30 134 -30 c 128,-1,16
 96 -30 96 -30 72 -18 c 128,-1,17
 48 -6 48 -6 33.5 17.5 c 128,-1,18
 19 41 19 41 10 64 c 128,-1,19
 1 87 1 87 -2 120 c 0,20,21
 -8 171 -8 171 -8 239 c 128,-1,22
 -8 307 -8 307 10 402 c 128,-1,23
 28 497 28 497 60.5 563 c 128,-1,24
 93 629 93 629 129 631 c 1,25,26
 139 630 139 630 145.5 627.5 c 128,-1,27
 152 625 152 625 158.5 610.5 c 128,-1,28
 165 596 165 596 165 569 c 0,29,30
 165 323 165 323 68 191 c 1,31,32
 108 68 108 68 199 68 c 0,9,10
EndSplineSet
EndChar

StartChar: m
Encoding: 109 109 80
Width: 658
GlyphClass: 2
Flags: W
LayerCount: 2
Fore
SplineSet
230 30 m 1,0,1
 230 73 230 73 220.5 73 c 128,-1,2
 211 73 211 73 194.5 48 c 128,-1,3
 178 23 178 23 159 -2.5 c 128,-1,4
 140 -28 140 -28 124 -28 c 0,5,6
 115 -28 115 -28 96.5 4 c 128,-1,7
 78 36 78 36 56 67.5 c 128,-1,8
 34 99 34 99 17 99 c 0,9,10
 12 99 12 99 12 104 c 0,11,12
 12 120 12 120 50 162 c 128,-1,13
 88 204 88 204 104.5 204 c 128,-1,14
 121 204 121 204 153.5 152 c 128,-1,15
 186 100 186 100 197 100 c 128,-1,16
 208 100 208 100 241.5 141 c 128,-1,17
 275 182 275 182 294.5 182 c 128,-1,18
 314 182 314 182 323.5 166.5 c 128,-1,19
 333 151 333 151 334.5 133 c 128,-1,20
 336 115 336 115 338 99.5 c 128,-1,21
 340 84 340 84 346 84 c 0,22,23
 356 84 356 84 397.5 133.5 c 128,-1,24
 439 183 439 183 458 183 c 0,25,26
 479 183 479 183 528 120 c 0,27,28
 546 96 546 96 573.5 76.5 c 128,-1,29
 601 57 601 57 619 57 c 128,-1,30
 637 57 637 57 654 63 c 128,-1,31
 671 69 671 69 683 69 c 128,-1,32
 695 69 695 69 695 61 c 0,33,34
 695 57 695 57 691.5 54 c 128,-1,35
 688 51 688 51 674.5 38.5 c 128,-1,36
 661 26 661 26 652.5 19 c 128,-1,37
 644 12 644 12 628.5 -0.5 c 128,-1,38
 613 -13 613 -13 602 -20 c 0,39,40
 572 -38 572 -38 545.5 -38 c 128,-1,41
 519 -38 519 -38 486.5 -8.5 c 128,-1,42
 454 21 454 21 430.5 50.5 c 128,-1,43
 407 80 407 80 396 80 c 128,-1,44
 385 80 385 80 360.5 50 c 128,-1,45
 336 20 336 20 310.5 -10 c 128,-1,46
 285 -40 285 -40 266.5 -40 c 128,-1,47
 248 -40 248 -40 238.5 -23 c 128,-1,48
 229 -6 229 -6 229 14 c 1,49,-1
 230 30 l 1,0,1
EndSplineSet
EndChar

StartChar: n
Encoding: 110 110 81
Width: 444
GlyphClass: 2
Flags: W
LayerCount: 2
Fore
SplineSet
10 86 m 1,0,1
 10 102 10 102 41 138.5 c 128,-1,2
 72 175 72 175 91.5 175 c 128,-1,3
 111 175 111 175 120.5 160 c 128,-1,4
 130 145 130 145 132 127 c 128,-1,5
 134 109 134 109 143.5 94 c 128,-1,6
 153 79 153 79 171.5 79 c 128,-1,7
 190 79 190 79 204.5 95.5 c 128,-1,8
 219 112 219 112 228 132.5 c 128,-1,9
 237 153 237 153 252 169.5 c 128,-1,10
 267 186 267 186 281.5 186 c 128,-1,11
 296 186 296 186 302 174 c 0,12,13
 364 41 364 41 428 41 c 0,14,15
 438 41 438 41 446 44 c 128,-1,16
 454 47 454 47 458 47 c 0,17,18
 470 47 470 47 470 28 c 0,19,20
 470 -6 470 -6 434.5 -33 c 128,-1,21
 399 -60 399 -60 362 -60 c 128,-1,22
 325 -60 325 -60 299.5 -36 c 128,-1,23
 274 -12 274 -12 264.5 13.5 c 128,-1,24
 255 39 255 39 250.5 63 c 128,-1,25
 246 87 246 87 241 87 c 0,26,27
 233 87 233 87 209.5 55.5 c 128,-1,28
 186 24 186 24 156.5 -8 c 128,-1,29
 127 -40 127 -40 104 -40 c 1,30,31
 80 -37 80 -37 66 -16.5 c 128,-1,32
 52 4 52 4 48 26 c 0,33,34
 39 86 39 86 10 86 c 1,0,1
EndSplineSet
EndChar

StartChar: o
Encoding: 111 111 82
Width: 280
GlyphClass: 2
Flags: W
LayerCount: 2
Fore
SplineSet
223 105 m 1,0,1
 176 105 176 105 149 129 c 128,-1,2
 122 153 122 153 118 190 c 1,3,4
 102 178 102 178 102 145.5 c 128,-1,5
 102 113 102 113 120.5 88.5 c 128,-1,6
 139 64 139 64 166.5 64 c 128,-1,7
 194 64 194 64 208.5 78 c 128,-1,8
 223 92 223 92 223 105 c 1,0,1
262 172 m 0,9,10
 265 163 265 163 269.5 163 c 128,-1,11
 274 163 274 163 285 168.5 c 128,-1,12
 296 174 296 174 304 174 c 128,-1,13
 312 174 312 174 312 164 c 128,-1,14
 312 154 312 154 290.5 131 c 128,-1,15
 269 108 269 108 254 108 c 1,16,17
 233 51 233 51 184.5 2.5 c 128,-1,18
 136 -46 136 -46 85 -46 c 0,19,20
 49 -46 49 -46 25 -22.5 c 128,-1,21
 1 1 1 1 1 46.5 c 128,-1,22
 1 92 1 92 39 145.5 c 128,-1,23
 77 199 77 199 117 199 c 1,24,-1
 117 203 l 2,25,26
 117 225 117 225 132 238.5 c 128,-1,27
 147 252 147 252 169 252 c 0,28,29
 237 252 237 252 262 172 c 0,9,10
EndSplineSet
EndChar

StartChar: p
Encoding: 112 112 83
Width: 316
GlyphClass: 2
Flags: W
LayerCount: 2
Fore
SplineSet
142 135 m 0,0,1
 114 135 114 135 101 32 c 1,2,3
 127 1 127 1 162 1 c 0,4,5
 178 1 178 1 198 11 c 1,6,7
 206 35 206 35 206 61 c 128,-1,8
 206 87 206 87 185 111 c 128,-1,9
 164 135 164 135 142 135 c 0,0,1
62 77 m 1,10,-1
 69 203 l 2,11,12
 69 209 69 209 65.5 209 c 128,-1,13
 62 209 62 209 55.5 200 c 128,-1,14
 49 191 49 191 38 191 c 128,-1,15
 27 191 27 191 27 198 c 128,-1,16
 27 205 27 205 36 215.5 c 128,-1,17
 45 226 45 226 56.5 253.5 c 128,-1,18
 68 281 68 281 77 299.5 c 128,-1,19
 86 318 86 318 94 318 c 0,20,21
 105 318 105 318 111 308.5 c 128,-1,22
 117 299 117 299 117 291 c 128,-1,23
 117 283 117 283 108 237 c 128,-1,24
 99 191 99 191 99 169.5 c 128,-1,25
 99 148 99 148 104 148 c 0,26,27
 106 148 106 148 122.5 169.5 c 128,-1,28
 139 191 139 191 162.5 212.5 c 128,-1,29
 186 234 186 234 206 234 c 0,30,31
 280 234 280 234 280 149 c 0,32,33
 280 90 280 90 247 41 c 1,34,35
 297 76 297 76 338 114 c 2,36,-1
 352 127 l 1,37,38
 364 127 364 127 364 120 c 0,39,40
 364 103 364 103 321.5 63.5 c 128,-1,41
 279 24 279 24 212.5 -15 c 128,-1,42
 146 -54 146 -54 90 -66 c 1,43,44
 88 -116 88 -116 88 -147 c 128,-1,45
 88 -178 88 -178 91.5 -202.5 c 128,-1,46
 95 -227 95 -227 95 -238.5 c 128,-1,47
 95 -250 95 -250 86 -257.5 c 128,-1,48
 77 -265 77 -265 67 -265 c 0,49,50
 54 -265 54 -265 53 -248 c 128,-1,51
 52 -231 52 -231 52 -165 c 128,-1,52
 52 -99 52 -99 53 -71 c 1,53,54
 26 -71 26 -71 10 -46.5 c 128,-1,55
 -6 -22 -6 -22 -6 0 c 128,-1,56
 -6 22 -6 22 13.5 49 c 128,-1,57
 33 76 33 76 62 77 c 1,10,-1
EndSplineSet
EndChar

StartChar: q
Encoding: 113 113 84
Width: 364
GlyphClass: 2
Flags: W
LayerCount: 2
Fore
SplineSet
182 -138 m 1,0,-1
 188 27 l 1,1,2
 188 56 188 56 181.5 56 c 128,-1,3
 175 56 175 56 165.5 43.5 c 128,-1,4
 156 31 156 31 146.5 15.5 c 128,-1,5
 137 0 137 0 114.5 -12.5 c 128,-1,6
 92 -25 92 -25 62 -25 c 0,7,8
 4 -25 4 -25 4 35 c 0,9,10
 4 78 4 78 32 129 c 128,-1,11
 60 180 60 180 111 218.5 c 128,-1,12
 162 257 162 257 216 257 c 0,13,14
 229 257 229 257 229 248 c 0,15,16
 229 233 229 233 209 216.5 c 128,-1,17
 189 200 189 200 166 188 c 0,18,19
 102 157 102 157 102 137.5 c 128,-1,20
 102 118 102 118 114 99 c 128,-1,21
 126 80 126 80 146.5 80 c 128,-1,22
 167 80 167 80 184 94.5 c 128,-1,23
 201 109 201 109 204 124 c 0,24,25
 223 243 223 243 270 243 c 1,26,27
 282 242 282 242 282 224.5 c 128,-1,28
 282 207 282 207 257 164.5 c 128,-1,29
 232 122 232 122 228 112 c 128,-1,30
 224 102 224 102 224 89.5 c 128,-1,31
 224 77 224 77 226.5 77 c 128,-1,32
 229 77 229 77 244.5 90.5 c 128,-1,33
 260 104 260 104 270.5 104 c 128,-1,34
 281 104 281 104 297.5 87.5 c 128,-1,35
 314 71 314 71 330.5 71 c 128,-1,36
 347 71 347 71 371 88 c 1,37,38
 388 83 388 83 388 71 c 0,39,40
 388 44 388 44 343 12.5 c 128,-1,41
 298 -19 298 -19 266 -30 c 1,42,43
 295 -102 295 -102 295 -139.5 c 128,-1,44
 295 -177 295 -177 293.5 -199 c 128,-1,45
 292 -221 292 -221 287 -246 c 0,46,47
 277 -298 277 -298 240 -298 c 0,48,49
 182 -298 182 -298 182 -138 c 1,0,-1
EndSplineSet
EndChar

StartChar: r
Encoding: 114 114 85
Width: 216
GlyphClass: 2
Flags: W
LayerCount: 2
Fore
SplineSet
11 131 m 1,0,-1
 -16 129 l 1,1,2
 -34 129 -34 129 -34 138 c 0,3,4
 -34 152 -34 152 1.5 191.5 c 128,-1,5
 37 231 37 231 65 231 c 0,6,7
 77 231 77 231 86.5 224 c 128,-1,8
 96 217 96 217 97 207 c 2,9,-1
 102 162 l 1,10,11
 105 158 105 158 108 158 c 128,-1,12
 111 158 111 158 124 174 c 0,13,14
 166 223 166 223 199 223 c 0,15,16
 212 223 212 223 220 219 c 128,-1,17
 228 215 228 215 238.5 203.5 c 128,-1,18
 249 192 249 192 250 191 c 1,19,20
 257 194 257 194 264 194 c 0,21,22
 275 194 275 194 275 180.5 c 128,-1,23
 275 167 275 167 236 130.5 c 128,-1,24
 197 94 197 94 178 94 c 128,-1,25
 159 94 159 94 146 111 c 128,-1,26
 133 128 133 128 127 128 c 0,27,28
 104 128 104 128 104 104 c 0,29,30
 104 86 104 86 120.5 43 c 128,-1,31
 137 0 137 0 137 -8 c 0,32,33
 137 -28 137 -28 116.5 -39.5 c 128,-1,34
 96 -51 96 -51 71.5 -51 c 128,-1,35
 47 -51 47 -51 32 -43 c 128,-1,36
 17 -35 17 -35 17 -21 c 1,37,-1
 45 100 l 1,38,39
 45 131 45 131 11 131 c 1,0,-1
EndSplineSet
EndChar

StartChar: s
Encoding: 115 115 86
Width: 317
GlyphClass: 2
Flags: W
LayerCount: 2
Fore
SplineSet
296 76 m 128,-1,1
 314 88 314 88 325 100 c 2,2,-1
 336 111 l 2,3,4
 343 118 343 118 350 118 c 0,5,6
 362 118 362 118 362 104 c 0,7,8
 362 99 362 99 361 96 c 0,9,10
 335 33 335 33 265 -5.5 c 128,-1,11
 195 -44 195 -44 140 -44 c 0,12,13
 33 -44 33 -44 33 40 c 0,14,15
 33 51 33 51 59 75 c 128,-1,16
 85 99 85 99 97 105 c 1,17,18
 105 111 105 111 109.5 111 c 128,-1,19
 114 111 114 111 117 107 c 128,-1,20
 120 103 120 103 124 97 c 128,-1,21
 128 91 128 91 131 87 c 128,-1,22
 134 83 134 83 139 76 c 128,-1,23
 144 69 144 69 149.5 64.5 c 128,-1,24
 155 60 155 60 162 56 c 1,25,26
 175 46 175 46 189.5 46 c 128,-1,27
 204 46 204 46 204 63 c 0,28,29
 204 105 204 105 173 135.5 c 128,-1,30
 142 166 142 166 121 166 c 0,31,32
 116 166 116 166 111 160 c 2,33,-1
 74 123 l 2,34,35
 65 114 65 114 61 114 c 0,36,37
 46 114 46 114 46 127 c 1,38,39
 153 258 153 258 173 258 c 0,40,41
 201 258 201 258 237 220 c 128,-1,42
 273 182 273 182 273 144 c 0,43,44
 273 108 273 108 267.5 89 c 128,-1,45
 262 70 262 70 262 67 c 128,-1,46
 262 64 262 64 270 64 c 128,-1,0
 278 64 278 64 296 76 c 128,-1,1
EndSplineSet
EndChar

StartChar: t
Encoding: 116 116 87
Width: 238
GlyphClass: 2
Flags: W
LayerCount: 2
Fore
SplineSet
-171 307 m 0,0,1
 -171 327 -171 327 -139 337 c 1,2,3
 -90 358 -90 358 21 402 c 1,4,5
 41 554 41 554 81 554 c 0,6,7
 107 554 107 554 107 471 c 0,8,9
 107 447 107 447 106 435 c 1,10,11
 258 493 258 493 310 506 c 128,-1,12
 362 519 362 519 393 519 c 0,13,14
 440 519 440 519 440 485 c 0,15,16
 440 474 440 474 426 467 c 0,17,18
 364 436 364 436 349 436 c 0,19,20
 346 436 346 436 339 440.5 c 128,-1,21
 332 445 332 445 323 445 c 128,-1,22
 314 445 314 445 286 438 c 0,23,24
 229 423 229 423 99 380 c 1,25,26
 87 302 87 302 64 268 c 1,27,28
 68 154 68 154 94 114 c 0,29,30
 106 95 106 95 128.5 81 c 128,-1,31
 151 67 151 67 184 67 c 128,-1,32
 217 67 217 67 249 97 c 0,33,34
 255 103 255 103 259 103 c 0,35,36
 267 103 267 103 267 90 c 0,37,38
 267 48 267 48 211 5.5 c 128,-1,39
 155 -37 155 -37 104 -37 c 0,40,41
 3 -37 3 -37 3 127 c 0,42,43
 3 230 3 230 15 349 c 1,44,45
 -68 317 -68 317 -107.5 297 c 128,-1,46
 -147 277 -147 277 -154 277 c 128,-1,47
 -161 277 -161 277 -166 287 c 128,-1,48
 -171 297 -171 297 -171 307 c 0,0,1
EndSplineSet
EndChar

StartChar: u
Encoding: 117 117 88
Width: 447
GlyphClass: 2
Flags: W
LayerCount: 2
Fore
SplineSet
483 97 m 0,0,1
 463 61 463 61 407.5 14.5 c 128,-1,2
 352 -32 352 -32 310 -32 c 0,3,4
 231 -32 231 -32 227 65 c 0,5,6
 227 74 227 74 223 74 c 0,7,8
 221 74 221 74 202.5 50 c 128,-1,9
 184 26 184 26 151.5 1.5 c 128,-1,10
 119 -23 119 -23 84.5 -23 c 128,-1,11
 50 -23 50 -23 29.5 -2 c 128,-1,12
 9 19 9 19 9 54.5 c 128,-1,13
 9 90 9 90 30 148 c 128,-1,14
 51 206 51 206 71 206 c 1,15,16
 81 205 81 205 87.5 196 c 128,-1,17
 94 187 94 187 94.5 176 c 128,-1,18
 95 165 95 165 99 149 c 128,-1,19
 103 133 103 133 121 113.5 c 128,-1,20
 139 94 139 94 168 94 c 0,21,22
 218 94 218 94 250 180 c 0,23,24
 250 181 250 181 252 185.5 c 128,-1,25
 254 190 254 190 255 192.5 c 128,-1,26
 256 195 256 195 258 199.5 c 128,-1,27
 260 204 260 204 262 206 c 0,28,29
 276 217 276 217 285 206 c 0,30,31
 291 198 291 198 292 177 c 1,32,33
 292 145 292 145 319.5 114.5 c 128,-1,34
 347 84 347 84 391 84 c 128,-1,35
 435 84 435 84 461 110 c 1,36,37
 471 122 471 122 481 122 c 0,38,39
 488 122 488 122 488 114 c 128,-1,40
 488 106 488 106 483 97 c 0,0,1
EndSplineSet
EndChar

StartChar: v
Encoding: 118 118 89
Width: 274
GlyphClass: 2
Flags: W
LayerCount: 2
Fore
SplineSet
6 150 m 0,0,1
 20 168 20 168 33 197 c 1,2,3
 44 216 44 216 61.5 216 c 128,-1,4
 79 216 79 216 89 196 c 128,-1,5
 99 176 99 176 103.5 152.5 c 128,-1,6
 108 129 108 129 122 109 c 128,-1,7
 136 89 136 89 162.5 89 c 128,-1,8
 189 89 189 89 189 114 c 1,9,10
 171 126 171 126 150 149 c 128,-1,11
 129 172 129 172 129 192 c 128,-1,12
 129 212 129 212 153.5 247.5 c 128,-1,13
 178 283 178 283 190 283 c 0,14,15
 198 283 198 283 203 271.5 c 128,-1,16
 208 260 208 260 208 253 c 0,17,18
 208 233 208 233 232 214 c 128,-1,19
 256 195 256 195 293 195 c 1,20,21
 299 204 299 204 306 204 c 1,22,23
 316 202 316 202 316 185.5 c 128,-1,24
 316 169 316 169 288 145.5 c 128,-1,25
 260 122 260 122 225 111 c 1,26,27
 219 107 219 107 218 103.5 c 128,-1,28
 217 100 217 100 210 73 c 128,-1,29
 203 46 203 46 198 34.5 c 128,-1,30
 193 23 193 23 182 3 c 0,31,32
 162 -34 162 -34 116 -34 c 0,33,34
 88 -34 88 -34 70 -18 c 128,-1,35
 52 -2 52 -2 44 24 c 0,36,37
 33 63 33 63 33 101 c 0,38,39
 33 116 33 116 24 117 c 0,40,41
 1 119 1 119 1 135 c 0,42,43
 1 142 1 142 6 150 c 0,0,1
EndSplineSet
EndChar

StartChar: w
Encoding: 119 119 90
Width: 450
GlyphClass: 2
Flags: W
LayerCount: 2
Fore
SplineSet
259 162 m 2,0,-1
 256 134 l 1,1,2
 256 113 256 113 269.5 96 c 128,-1,3
 283 79 283 79 307.5 79 c 128,-1,4
 332 79 332 79 346.5 90 c 128,-1,5
 361 101 361 101 361 113 c 0,6,7
 361 115 361 115 354 124 c 0,8,9
 330 150 330 150 330 185 c 128,-1,10
 330 220 330 220 351.5 254 c 128,-1,11
 373 288 373 288 394 288 c 128,-1,12
 415 288 415 288 426 242 c 0,13,14
 430 225 430 225 442.5 210.5 c 128,-1,15
 455 196 455 196 476 196 c 0,16,17
 478 196 478 196 487 200.5 c 128,-1,18
 496 205 496 205 501 205 c 0,19,20
 510 205 510 205 510 190 c 0,21,22
 510 151 510 151 470 122.5 c 128,-1,23
 430 94 430 94 397 94 c 0,24,25
 390 94 390 94 387 95 c 1,26,27
 370 61 370 61 344 28 c 128,-1,28
 318 -5 318 -5 304 -18 c 0,29,30
 270 -49 270 -49 239 -49 c 0,31,32
 184 -49 184 -49 184 32 c 1,33,34
 182 37 182 37 178 37 c 128,-1,35
 174 37 174 37 172 34 c 0,36,37
 122 -33 122 -33 61.5 -33 c 128,-1,38
 1 -33 1 -33 1 56 c 0,39,40
 1 111 1 111 25.5 174 c 128,-1,41
 50 237 50 237 77 237 c 0,42,43
 89 237 89 237 89 219 c 1,44,-1
 85 180 l 1,45,46
 85 146 85 146 99 124 c 0,47,48
 121 90 121 90 147.5 90 c 128,-1,49
 174 90 174 90 192 102.5 c 128,-1,50
 210 115 210 115 217 130 c 0,51,52
 236 171 236 171 253 171 c 1,53,54
 259 170 259 170 259 162 c 2,0,-1
EndSplineSet
EndChar

StartChar: x
Encoding: 120 120 91
Width: 305
GlyphClass: 2
Flags: W
LayerCount: 2
Fore
SplineSet
0 -21 m 0,0,1
 0 -4 0 -4 70 68 c 1,2,3
 26 132 26 132 26 193 c 0,4,5
 26 210 26 210 55.5 239 c 128,-1,6
 85 268 85 268 102 268 c 0,7,8
 112 268 112 268 116 256 c 0,9,10
 120 245 120 245 122 243 c 1,11,12
 135 208 135 208 169 157 c 1,13,14
 213 191 213 191 230.5 203 c 128,-1,15
 248 215 248 215 256 215 c 0,16,17
 269 215 269 215 269 204 c 0,18,19
 269 196 269 196 257 187 c 1,20,21
 232 171 232 171 186 133 c 1,22,23
 241 61 241 61 293 61 c 0,24,25
 304 61 304 61 309.5 64 c 128,-1,26
 315 67 315 67 317 67 c 0,27,28
 327 67 327 67 327 57 c 0,29,30
 327 51 327 51 312 32.5 c 128,-1,31
 297 14 297 14 267 -5 c 128,-1,32
 237 -24 237 -24 206 -24 c 0,33,34
 147 -24 147 -24 89 43 c 1,35,36
 54 5 54 5 34 -24 c 1,37,38
 21 -37 21 -37 15 -37 c 128,-1,39
 9 -37 9 -37 4.5 -32 c 128,-1,40
 0 -27 0 -27 0 -21 c 0,0,1
EndSplineSet
EndChar

StartChar: y
Encoding: 121 121 92
Width: 336
GlyphClass: 2
Flags: W
LayerCount: 2
Fore
SplineSet
229 -300 m 0,0,1
 253 -300 253 -300 253 -102 c 0,2,3
 253 -60 253 -60 252 -40 c 1,4,5
 189 -125 189 -125 189 -193 c 0,6,7
 189 -232 189 -232 198.5 -266 c 128,-1,8
 208 -300 208 -300 229 -300 c 0,0,1
71 219 m 1,9,-1
 67 179 l 1,10,11
 67 136 67 136 95.5 106.5 c 128,-1,12
 124 77 124 77 165 76 c 1,13,14
 190 77 190 77 211.5 90.5 c 128,-1,15
 233 104 233 104 242 116 c 1,16,-1
 250 129 l 1,17,18
 251 163 251 163 260 186 c 0,19,20
 274 225 274 225 293 225 c 2,21,-1
 296 225 l 1,22,23
 307 221 307 221 307 193 c 0,24,25
 307 181 307 181 284 146 c 1,26,-1
 276 133 l 1,27,28
 276 56 276 56 277 19 c 1,29,30
 335 74 335 74 363 109 c 1,31,32
 376 119 376 119 383.5 119 c 128,-1,33
 391 119 391 119 391 111.5 c 128,-1,34
 391 104 391 104 378 93 c 0,35,36
 348 69 348 69 278 -8 c 1,37,-1
 281 -161 l 1,38,39
 281 -285 281 -285 264 -349 c 128,-1,40
 247 -413 247 -413 200 -413 c 0,41,42
 162 -413 162 -413 137 -374 c 128,-1,43
 112 -335 112 -335 112 -289 c 0,44,45
 112 -201 112 -201 148.5 -136.5 c 128,-1,46
 185 -72 185 -72 252 -6 c 1,47,48
 250 66 250 66 250 73 c 128,-1,49
 250 80 250 80 244.5 80 c 128,-1,50
 239 80 239 80 232 70 c 1,51,52
 197 33 197 33 181 18 c 0,53,54
 138 -24 138 -24 94.5 -24 c 128,-1,55
 51 -24 51 -24 25.5 5 c 128,-1,56
 0 34 0 34 0 87.5 c 128,-1,57
 0 141 0 141 20.5 185.5 c 128,-1,58
 41 230 41 230 59 230 c 0,59,60
 71 230 71 230 71 219 c 1,9,-1
EndSplineSet
EndChar

StartChar: z
Encoding: 122 122 93
Width: 284
GlyphClass: 2
Flags: W
LayerCount: 2
Fore
SplineSet
163.5 -252 m 128,-1,1
 176 -204 176 -204 176 -157.5 c 128,-1,2
 176 -111 176 -111 160 -66 c 1,3,4
 88 -143 88 -143 88 -223 c 0,5,6
 88 -257 88 -257 100.5 -278.5 c 128,-1,7
 113 -300 113 -300 128 -300 c 0,8,0
 151 -300 151 -300 163.5 -252 c 128,-1,1
79 169 m 1,9,-1
 41 159 l 1,10,11
 30 159 30 159 30 168 c 0,12,13
 30 195 30 195 79 222.5 c 128,-1,14
 128 250 128 250 154.5 250 c 128,-1,15
 181 250 181 250 193 237.5 c 128,-1,16
 205 225 205 225 205 206 c 0,17,18
 205 166 205 166 148 102 c 0,19,20
 146 100 146 100 146 97 c 0,21,22
 146 89 146 89 160 89 c 1,23,24
 203 79 203 79 226 25 c 1,25,26
 257 49 257 49 278.5 61.5 c 128,-1,27
 300 74 300 74 303 74 c 0,28,29
 316 74 316 74 316 60 c 1,30,31
 315 56 315 56 294.5 42.5 c 128,-1,32
 274 29 274 29 267 24 c 2,33,-1
 234 0 l 1,34,35
 240 -21 240 -21 240 -48.5 c 128,-1,36
 240 -76 240 -76 229 -131.5 c 128,-1,37
 218 -187 218 -187 198 -249 c 128,-1,38
 178 -311 178 -311 141.5 -355 c 128,-1,39
 105 -399 105 -399 62 -399 c 0,40,41
 35 -399 35 -399 18 -376.5 c 128,-1,42
 1 -354 1 -354 1 -325 c 0,43,44
 1 -193 1 -193 149 -43 c 1,45,46
 122 10 122 10 78 10 c 0,47,48
 58 10 58 10 45 0 c 128,-1,49
 32 -10 32 -10 24.5 -10 c 128,-1,50
 17 -10 17 -10 17 -0.5 c 128,-1,51
 17 9 17 9 21 13 c 128,-1,52
 25 17 25 17 36.5 28 c 128,-1,53
 48 39 48 39 55 46.5 c 128,-1,54
 62 54 62 54 74 67 c 128,-1,55
 86 80 86 80 92 90 c 0,56,57
 110 117 110 117 110 132.5 c 128,-1,58
 110 148 110 148 101.5 158.5 c 128,-1,59
 93 169 93 169 79 169 c 1,9,-1
EndSplineSet
EndChar

StartChar: braceleft
Encoding: 123 123 94
Width: 308
GlyphClass: 2
Flags: W
LayerCount: 2
Fore
SplineSet
192 211 m 1,0,-1
 187 73 l 1,1,2
 187 -70 187 -70 246 -108 c 0,3,4
 271 -125 271 -125 306.5 -125 c 128,-1,5
 342 -125 342 -125 374 -95 c 0,6,7
 380 -89 380 -89 384 -89 c 0,8,9
 392 -89 392 -89 392 -102 c 0,10,11
 392 -144 392 -144 336 -186.5 c 128,-1,12
 280 -229 280 -229 228 -229 c 128,-1,13
 176 -229 176 -229 155.5 -188.5 c 128,-1,14
 135 -148 135 -148 135 -92 c 128,-1,15
 135 -36 135 -36 142 45 c 128,-1,16
 149 126 149 126 149 160 c 0,17,18
 149 266 149 266 94 266 c 0,19,20
 66 266 66 266 49.5 283.5 c 128,-1,21
 33 301 33 301 33 324 c 128,-1,22
 33 347 33 347 49.5 364.5 c 128,-1,23
 66 382 66 382 94 382 c 0,24,25
 149 382 149 382 149 488 c 0,26,27
 149 521 149 521 142 602 c 128,-1,28
 135 683 135 683 135 739 c 128,-1,29
 135 795 135 795 155.5 836 c 128,-1,30
 176 877 176 877 231 877 c 128,-1,31
 286 877 286 877 317 855 c 128,-1,32
 348 833 348 833 348 807 c 0,33,34
 348 793 348 793 337.5 783 c 128,-1,35
 327 773 327 773 308 773 c 0,36,37
 235 773 235 773 213 701 c 128,-1,38
 191 629 191 629 191 437 c 0,39,40
 191 386 191 386 183 358 c 128,-1,41
 175 330 175 330 152 324 c 1,42,43
 192 313 192 313 192 211 c 1,0,-1
EndSplineSet
EndChar

StartChar: bar
Encoding: 124 124 95
Width: 168
GlyphClass: 2
Flags: W
LayerCount: 2
Fore
SplineSet
102 542 m 2,0,-1
 100 -26 l 2,1,2
 100 -49 100 -49 105 -80.5 c 128,-1,3
 110 -112 110 -112 110 -119 c 0,4,5
 110 -140 110 -140 86.5 -140 c 128,-1,6
 63 -140 63 -140 55.5 -134.5 c 128,-1,7
 48 -129 48 -129 48 -108 c 2,8,9
 48 -108 48 -108 60 600 c 0,10,11
 60 651 60 651 44 722 c 1,12,13
 46 736 46 736 58 749.5 c 128,-1,14
 70 763 70 763 79.5 763 c 128,-1,15
 89 763 89 763 93 752 c 0,16,17
 102 726 102 726 102 542 c 2,0,-1
EndSplineSet
EndChar

StartChar: braceright
Encoding: 125 125 96
Width: 262
GlyphClass: 2
Flags: W
LayerCount: 2
Fore
SplineSet
195 73 m 1,0,-1
 190 211 l 1,1,2
 190 313 190 313 230 324 c 1,3,4
 207 330 207 330 199 358 c 128,-1,5
 191 386 191 386 191 437 c 0,6,7
 191 629 191 629 169 701 c 128,-1,8
 147 773 147 773 74 773 c 0,9,10
 55 773 55 773 44.5 783 c 128,-1,11
 34 793 34 793 34 807 c 0,12,13
 34 833 34 833 65 855 c 128,-1,14
 96 877 96 877 151 877 c 128,-1,15
 206 877 206 877 226.5 836 c 128,-1,16
 247 795 247 795 247 739 c 128,-1,17
 247 683 247 683 240 602 c 128,-1,18
 233 521 233 521 233 488 c 0,19,20
 233 382 233 382 288 382 c 0,21,22
 317 382 317 382 333 365 c 128,-1,23
 349 348 349 348 349 324 c 128,-1,24
 349 300 349 300 333 283 c 128,-1,25
 317 266 317 266 288 266 c 0,26,27
 233 266 233 266 233 160 c 0,28,29
 233 126 233 126 240 45 c 128,-1,30
 247 -36 247 -36 247 -92 c 128,-1,31
 247 -148 247 -148 226.5 -188.5 c 128,-1,32
 206 -229 206 -229 154 -229 c 128,-1,33
 102 -229 102 -229 46 -186.5 c 128,-1,34
 -10 -144 -10 -144 -10 -102 c 0,35,36
 -10 -89 -10 -89 -2 -89 c 0,37,38
 2 -89 2 -89 8 -95 c 0,39,40
 40 -125 40 -125 75.5 -125 c 128,-1,41
 111 -125 111 -125 136 -108.5 c 128,-1,42
 161 -92 161 -92 174 -62 c 0,43,44
 195 -10 195 -10 195 73 c 1,0,-1
EndSplineSet
EndChar

StartChar: asciitilde
Encoding: 126 126 97
Width: 329
GlyphClass: 2
Flags: W
LayerCount: 2
Fore
SplineSet
88.5 145.5 m 128,-1,1
 123 164 123 164 152.5 164 c 128,-1,2
 182 164 182 164 215.5 150.5 c 128,-1,3
 249 137 249 137 267.5 137 c 128,-1,4
 286 137 286 137 296 139 c 1,5,6
 308 139 308 139 309 131 c 1,7,8
 309 115 309 115 274.5 97 c 128,-1,9
 240 79 240 79 210 79 c 128,-1,10
 180 79 180 79 147.5 92 c 128,-1,11
 115 105 115 105 95.5 105 c 128,-1,12
 76 105 76 105 67 103 c 1,13,14
 55 103 55 103 54 111 c 1,15,0
 54 127 54 127 88.5 145.5 c 128,-1,1
EndSplineSet
EndChar

StartChar: exclamdown
Encoding: 161 161 98
Width: 243
GlyphClass: 2
Flags: W
LayerCount: 2
Fore
SplineSet
83 148.5 m 128,-1,1
 64 169 64 169 64 198.5 c 128,-1,2
 64 228 64 228 83 248.5 c 128,-1,3
 102 269 102 269 129 269 c 128,-1,4
 156 269 156 269 174.5 248.5 c 128,-1,5
 193 228 193 228 193 198.5 c 128,-1,6
 193 169 193 169 174.5 148.5 c 128,-1,7
 156 128 156 128 129 128 c 128,-1,0
 102 128 102 128 83 148.5 c 128,-1,1
180.5 -381 m 128,-1,9
 203 -367 203 -367 203 -337.5 c 128,-1,10
 203 -308 203 -308 190 -262 c 0,11,12
 151 -122 151 -122 151 59 c 0,13,14
 151 76 151 76 133 76 c 0,15,16
 125 76 125 76 119 71 c 128,-1,17
 113 66 113 66 113 59 c 0,18,19
 113 -122 113 -122 74 -262 c 0,20,21
 61 -308 61 -308 61 -335.5 c 128,-1,22
 61 -363 61 -363 82.5 -379 c 128,-1,23
 104 -395 104 -395 131 -395 c 128,-1,8
 158 -395 158 -395 180.5 -381 c 128,-1,9
EndSplineSet
EndChar

StartChar: cent
Encoding: 162 162 99
Width: 280
GlyphClass: 2
Flags: W
LayerCount: 2
Fore
SplineSet
129 90.5 m 128,-1,1
 150 66 150 66 184.5 66 c 128,-1,2
 219 66 219 66 241.5 74.5 c 128,-1,3
 264 83 264 83 276 91.5 c 128,-1,4
 288 100 288 100 294 100 c 0,5,6
 303 100 303 100 303 91 c 0,7,8
 303 64 303 64 255.5 25.5 c 128,-1,9
 208 -13 208 -13 143 -22 c 1,10,-1
 143 -58 l 2,11,12
 143 -88 143 -88 116 -88 c 0,13,14
 112 -88 112 -88 110 -79 c 1,15,-1
 110 -25 l 1,16,17
 61 -25 61 -25 36.5 0 c 128,-1,18
 12 25 12 25 12 68.5 c 128,-1,19
 12 112 12 112 42.5 164.5 c 128,-1,20
 73 217 73 217 120 249 c 1,21,-1
 120 301 l 2,22,23
 120 331 120 331 147 331 c 0,24,25
 151 331 151 331 153 322 c 1,26,-1
 153 266 l 1,27,28
 184 279 184 279 209 279 c 128,-1,29
 234 279 234 279 245.5 267.5 c 128,-1,30
 257 256 257 256 257 234.5 c 128,-1,31
 257 213 257 213 232.5 186.5 c 128,-1,32
 208 160 208 160 183 160 c 0,33,34
 176 160 176 160 176 167 c 128,-1,35
 176 174 176 174 183.5 182 c 128,-1,36
 191 190 191 190 191 201.5 c 128,-1,37
 191 213 191 213 183.5 224 c 128,-1,38
 176 235 176 235 167 235 c 0,39,40
 140 235 140 235 124 210.5 c 128,-1,41
 108 186 108 186 108 150.5 c 128,-1,0
 108 115 108 115 129 90.5 c 128,-1,1
EndSplineSet
EndChar

StartChar: sterling
Encoding: 163 163 100
Width: 308
GlyphClass: 2
Flags: W
LayerCount: 2
Fore
SplineSet
100 104 m 1,0,1
 104 72 104 72 104 64.5 c 128,-1,2
 104 57 104 57 106 57 c 0,3,4
 132 71 132 71 153 71 c 128,-1,5
 174 71 174 71 215 41.5 c 128,-1,6
 256 12 256 12 273 12 c 128,-1,7
 290 12 290 12 296 15 c 128,-1,8
 302 18 302 18 304.5 18 c 128,-1,9
 307 18 307 18 310 14.5 c 128,-1,10
 313 11 313 11 313 8 c 0,11,12
 313 -4 313 -4 285.5 -20.5 c 128,-1,13
 258 -37 258 -37 238.5 -37 c 128,-1,14
 219 -37 219 -37 176 -12.5 c 128,-1,15
 133 12 133 12 120 12 c 128,-1,16
 107 12 107 12 93.5 0 c 128,-1,17
 80 -12 80 -12 74 -21 c 128,-1,18
 68 -30 68 -30 65 -30 c 0,19,20
 55 -30 55 -30 55 -21 c 0,21,22
 55 -20 55 -20 57 -16 c 1,23,24
 60 2 60 2 60 25.5 c 128,-1,25
 60 49 60 49 56 87 c 1,26,27
 38 77 38 77 33.5 73.5 c 128,-1,28
 29 70 29 70 25 70 c 128,-1,29
 21 70 21 70 21 77 c 128,-1,30
 21 84 21 84 26.5 99.5 c 128,-1,31
 32 115 32 115 35 117 c 0,32,33
 47 125 47 125 53 128 c 1,34,35
 52 144 52 144 52 191 c 0,36,37
 52 304 52 304 143 304 c 0,38,39
 194 304 194 304 194 262 c 0,40,41
 194 240 194 240 172 222.5 c 128,-1,42
 150 205 150 205 132 205 c 128,-1,43
 114 205 114 205 114 222 c 0,44,45
 114 232 114 232 120 242 c 1,46,47
 116 246 116 246 106 246 c 0,48,49
 91 246 91 246 91 206 c 0,50,51
 91 189 91 189 95 147 c 1,52,53
 137 160 137 160 193 160 c 0,54,55
 202 160 202 160 202 152.5 c 128,-1,56
 202 145 202 145 197.5 132.5 c 128,-1,57
 193 120 193 120 186 119 c 0,58,59
 142 117 142 117 100 104 c 1,0,1
EndSplineSet
EndChar

StartChar: currency
Encoding: 164 164 101
Width: 277
GlyphClass: 2
Flags: W
LayerCount: 2
Fore
SplineSet
177 149.5 m 128,-1,1
 166 161 166 161 148 161 c 0,2,3
 114 161 114 161 114 125 c 0,4,5
 114 109 114 109 123.5 96.5 c 128,-1,6
 133 84 133 84 150.5 84 c 128,-1,7
 168 84 168 84 178 95 c 128,-1,8
 188 106 188 106 188 122 c 128,-1,0
 188 138 188 138 177 149.5 c 128,-1,1
86 31 m 1,9,10
 71 5 71 5 56.5 5 c 128,-1,11
 42 5 42 5 42 16 c 0,12,13
 42 20 42 20 43 23 c 2,14,-1
 63 57 l 1,15,16
 57 72 57 72 57 99.5 c 128,-1,17
 57 127 57 127 79 163 c 1,18,19
 48 192 48 192 48 201 c 0,20,21
 48 217 48 217 58 218 c 1,22,-1
 61 219 l 1,23,-1
 68 217 l 1,24,-1
 100 190 l 1,25,26
 128 216 128 216 164 216 c 0,27,28
 180 216 180 216 192 213 c 1,29,-1
 200 227 l 2,30,31
 210 245 210 245 222 245 c 0,32,33
 239 245 239 245 239 228 c 1,34,-1
 221 197 l 1,35,36
 241 180 241 180 241 145.5 c 128,-1,37
 241 111 241 111 215 74 c 1,38,39
 241 53 241 53 243 40 c 1,40,41
 237 22 237 22 229 22 c 0,42,43
 225 22 225 22 221 26 c 2,44,-1
 193 50 l 1,45,46
 159 23 159 23 120 23 c 0,47,48
 100 23 100 23 86 31 c 1,9,10
EndSplineSet
EndChar

StartChar: yen
Encoding: 165 165 102
Width: 270
GlyphClass: 2
Flags: W
LayerCount: 2
Fore
SplineSet
73 69 m 0,0,1
 88 80 88 80 103 87 c 1,2,3
 77 127 77 127 55 181 c 128,-1,4
 33 235 33 235 32 273 c 1,5,6
 39 296 39 296 54 317 c 128,-1,7
 69 338 69 338 82 338 c 128,-1,8
 95 338 95 338 95 316 c 0,9,10
 95 240 95 240 145 157 c 1,11,12
 147 238 147 238 177 285 c 128,-1,13
 207 332 207 332 238 332 c 0,14,15
 266 332 266 332 266 295 c 0,16,17
 266 283 266 283 256.5 266.5 c 128,-1,18
 247 250 247 250 238.5 250 c 128,-1,19
 230 250 230 250 228 254 c 1,20,21
 196 243 196 243 184 110 c 1,22,23
 214 112 214 112 227 112 c 128,-1,24
 240 112 240 112 240 104.5 c 128,-1,25
 240 97 240 97 235.5 84 c 128,-1,26
 231 71 231 71 224 71 c 0,27,28
 209 71 209 71 181 66 c 1,29,30
 179 32 179 32 179 -9 c 0,31,32
 179 -17 179 -17 162 -30.5 c 128,-1,33
 145 -44 145 -44 134 -44 c 0,34,35
 119 -44 119 -44 119 49 c 1,36,37
 90 40 90 40 78.5 31 c 128,-1,38
 67 22 67 22 63 22 c 128,-1,39
 59 22 59 22 59 29 c 128,-1,40
 59 36 59 36 64.5 51.5 c 128,-1,41
 70 67 70 67 73 69 c 0,0,1
EndSplineSet
EndChar

StartChar: brokenbar
Encoding: 166 166 103
Width: 168
GlyphClass: 2
Flags: W
LayerCount: 2
Fore
SplineSet
103 198 m 2,0,-1
 102 -26 l 2,1,2
 102 -49 102 -49 107 -80.5 c 128,-1,3
 112 -112 112 -112 112 -119 c 0,4,5
 112 -140 112 -140 88.5 -140 c 128,-1,6
 65 -140 65 -140 57.5 -134.5 c 128,-1,7
 50 -129 50 -129 50 -108 c 2,8,9
 50 -108 50 -108 54 202 c 0,10,11
 54 230 54 230 54 244 c 128,-1,12
 54 258 54 258 55.5 260.5 c 128,-1,13
 57 263 57 263 58.5 265 c 128,-1,14
 60 267 60 267 62 268 c 128,-1,15
 64 269 64 269 67 270 c 0,16,17
 73 272 73 272 79 272 c 2,18,-1
 92 272 l 2,19,20
 100 272 100 272 101.5 254 c 128,-1,21
 103 236 103 236 103 198 c 2,0,-1
57 425 m 2,22,-1
 60 600 l 2,23,24
 60 651 60 651 44 722 c 1,25,26
 46 736 46 736 58 749.5 c 128,-1,27
 70 763 70 763 81 763 c 128,-1,28
 92 763 92 763 101 643 c 128,-1,29
 110 523 110 523 110 414 c 0,30,31
 110 393 110 393 90.5 393 c 128,-1,32
 71 393 71 393 64 398 c 128,-1,33
 57 403 57 403 57 425 c 2,22,-1
EndSplineSet
EndChar

StartChar: section
Encoding: 167 167 104
Width: 304
GlyphClass: 2
Flags: W
LayerCount: 2
Fore
SplineSet
148 143 m 1,0,1
 160 121 160 121 203 100 c 0,2,3
 208 97 208 97 210 95 c 1,4,5
 229 99 229 99 229 117 c 0,6,7
 229 130 229 130 217.5 137.5 c 128,-1,8
 206 145 206 145 198.5 149 c 128,-1,9
 191 153 191 153 179 159.5 c 128,-1,10
 167 166 167 166 159 170 c 1,11,12
 148 157 148 157 148 143 c 1,0,1
70 115 m 0,13,14
 70 155 70 155 124 197 c 1,15,16
 110 215 110 215 110 233 c 0,17,18
 110 275 110 275 172.5 321 c 128,-1,19
 235 367 235 367 285 367 c 128,-1,20
 335 367 335 367 335 325 c 0,21,22
 335 303 335 303 313 285.5 c 128,-1,23
 291 268 291 268 273 268 c 128,-1,24
 255 268 255 268 255 285 c 0,25,26
 255 295 255 295 261 305 c 1,27,28
 257 309 257 309 242.5 309 c 128,-1,29
 228 309 228 309 208.5 296 c 128,-1,30
 189 283 189 283 188 261 c 1,31,32
 197 244 197 244 227.5 226.5 c 128,-1,33
 258 209 258 209 271 200 c 0,34,35
 306 176 306 176 306 137.5 c 128,-1,36
 306 99 306 99 250 64 c 1,37,38
 266 45 266 45 266 21 c 0,39,40
 266 -21 266 -21 206 -57 c 128,-1,41
 146 -93 146 -93 94 -93 c 0,42,43
 12 -93 12 -93 12 -38 c 0,44,45
 12 -22 12 -22 28.5 -7 c 128,-1,46
 45 8 45 8 60 10 c 0,47,48
 64 10 64 10 74 2 c 0,49,50
 103 -23 103 -23 165 -23 c 0,51,52
 177 -23 177 -23 183 -16 c 128,-1,53
 189 -9 189 -9 189 1.5 c 128,-1,54
 189 12 189 12 170.5 24.5 c 128,-1,55
 152 37 152 37 129.5 46.5 c 128,-1,56
 107 56 107 56 88.5 74 c 128,-1,57
 70 92 70 92 70 115 c 0,13,14
EndSplineSet
EndChar

StartChar: dieresis
Encoding: 168 168 105
Width: 500
GlyphClass: 2
Flags: W
LayerCount: 2
Fore
SplineSet
270 353 m 128,-1,1
 270 378 270 378 285.5 395 c 128,-1,2
 301 412 301 412 324 412 c 128,-1,3
 347 412 347 412 362.5 395 c 128,-1,4
 378 378 378 378 378 353 c 128,-1,5
 378 328 378 328 362.5 311 c 128,-1,6
 347 294 347 294 324 294 c 128,-1,7
 301 294 301 294 285.5 311 c 128,-1,0
 270 328 270 328 270 353 c 128,-1,1
130 353 m 128,-1,9
 130 378 130 378 145.5 395 c 128,-1,10
 161 412 161 412 184 412 c 128,-1,11
 207 412 207 412 222.5 395 c 128,-1,12
 238 378 238 378 238 353 c 128,-1,13
 238 328 238 328 222.5 311 c 128,-1,14
 207 294 207 294 184 294 c 128,-1,15
 161 294 161 294 145.5 311 c 128,-1,8
 130 328 130 328 130 353 c 128,-1,9
EndSplineSet
EndChar

StartChar: copyright
Encoding: 169 169 106
Width: 557
GlyphClass: 2
Flags: W
LayerCount: 2
Fore
SplineSet
247 172 m 128,-1,1
 264 152 264 152 296.5 152 c 128,-1,2
 329 152 329 152 353 165.5 c 128,-1,3
 377 179 377 179 379 179 c 0,4,5
 386 179 386 179 386 172 c 0,6,7
 386 147 386 147 339.5 113 c 128,-1,8
 293 79 293 79 232 79 c 0,9,10
 193 79 193 79 173.5 99 c 128,-1,11
 154 119 154 119 154 151 c 0,12,13
 154 209 154 209 203.5 266 c 128,-1,14
 253 323 253 323 316 323 c 0,15,16
 331 323 331 323 340.5 314 c 128,-1,17
 350 305 350 305 350 287.5 c 128,-1,18
 350 270 350 270 330 248.5 c 128,-1,19
 310 227 310 227 290 227 c 0,20,21
 285 227 285 227 285 232.5 c 128,-1,22
 285 238 285 238 291 245 c 128,-1,23
 297 252 297 252 297 260.5 c 128,-1,24
 297 269 297 269 291 278 c 128,-1,25
 285 287 285 287 278 287 c 0,26,27
 256 287 256 287 243 267.5 c 128,-1,28
 230 248 230 248 230 220 c 128,-1,0
 230 192 230 192 247 172 c 128,-1,1
131.5 67.5 m 128,-1,30
 162 26 162 26 238 26 c 128,-1,31
 314 26 314 26 377 99.5 c 128,-1,32
 440 173 440 173 440 252 c 0,33,34
 440 304 440 304 405.5 337 c 128,-1,35
 371 370 371 370 303.5 370 c 128,-1,36
 236 370 236 370 168.5 301.5 c 128,-1,37
 101 233 101 233 101 161 c 0,38,29
 101 109 101 109 131.5 67.5 c 128,-1,30
352 413 m 0,39,40
 452 413 452 413 500.5 377.5 c 128,-1,41
 549 342 549 342 549 289 c 128,-1,42
 549 236 549 236 518 181.5 c 128,-1,43
 487 127 487 127 437 82 c 128,-1,44
 387 37 387 37 318 7 c 128,-1,45
 249 -23 249 -23 169 -23 c 128,-1,46
 89 -23 89 -23 46 11 c 128,-1,47
 3 45 3 45 3 97 c 128,-1,48
 3 149 3 149 33 204 c 128,-1,49
 63 259 63 259 110.5 305.5 c 128,-1,50
 158 352 158 352 223 382.5 c 128,-1,51
 288 413 288 413 352 413 c 0,39,40
EndSplineSet
EndChar

StartChar: ordfeminine
Encoding: 170 170 107
Width: 305
GlyphClass: 2
Flags: W
LayerCount: 2
Fore
SplineSet
227 203 m 1,0,-1
 224 182 l 1,1,2
 224 168 224 168 235.5 153.5 c 128,-1,3
 247 139 247 139 261.5 139 c 128,-1,4
 276 139 276 139 301 157 c 1,5,6
 308 164 308 164 317 164 c 128,-1,7
 326 164 326 164 326 157 c 0,8,9
 326 142 326 142 288.5 105 c 128,-1,10
 251 68 251 68 216 68 c 0,11,12
 198 68 198 68 188.5 80 c 128,-1,13
 179 92 179 92 178 103 c 128,-1,14
 177 114 177 114 177 132 c 0,15,16
 177 135 177 135 174 135 c 128,-1,17
 171 135 171 135 140 106 c 128,-1,18
 109 77 109 77 85.5 77 c 128,-1,19
 62 77 62 77 48 90.5 c 128,-1,20
 34 104 34 104 34 133 c 128,-1,21
 34 162 34 162 53.5 195.5 c 128,-1,22
 73 229 73 229 100 249 c 0,23,24
 161 293 161 293 193 293 c 1,25,26
 243 290 243 290 243 258 c 0,27,28
 243 245 243 245 232.5 233.5 c 128,-1,29
 222 222 222 222 213 222 c 128,-1,30
 204 222 204 222 188 238 c 128,-1,31
 172 254 172 254 153 254 c 128,-1,32
 134 254 134 254 122.5 238.5 c 128,-1,33
 111 223 111 223 111 199 c 0,34,35
 111 160 111 160 152 160 c 0,36,37
 168 160 168 160 179 168 c 128,-1,38
 190 176 190 176 194 186 c 0,39,40
 206 212 206 212 218 212 c 0,41,42
 227 212 227 212 227 203 c 1,0,-1
EndSplineSet
EndChar

StartChar: guillemotleft
Encoding: 171 171 108
Width: 421
GlyphClass: 2
Flags: W
LayerCount: 2
Fore
SplineSet
365 -28.5 m 128,-1,1
 354 -42 354 -42 340 -42 c 128,-1,2
 326 -42 326 -42 306 -13 c 1,3,4
 294 11 294 11 275.5 27 c 128,-1,5
 257 43 257 43 242.5 49 c 128,-1,6
 228 55 228 55 217.5 65 c 128,-1,7
 207 75 207 75 207 90 c 128,-1,8
 207 105 207 105 217.5 115 c 128,-1,9
 228 125 228 125 242.5 131 c 128,-1,10
 257 137 257 137 275.5 153 c 128,-1,11
 294 169 294 169 306 193 c 1,12,13
 326 222 326 222 340.5 222 c 128,-1,14
 355 222 355 222 364.5 208 c 128,-1,15
 374 194 374 194 374 172.5 c 128,-1,16
 374 151 374 151 356.5 127.5 c 128,-1,17
 339 104 339 104 302 90 c 1,18,19
 376 52 376 52 376 4 c 0,20,0
 376 -15 376 -15 365 -28.5 c 128,-1,1
237 7 m 0,21,22
 237 -42 237 -42 208 -42 c 0,23,24
 192 -42 192 -42 172 -13 c 1,25,26
 160 11 160 11 136.5 27 c 128,-1,27
 113 43 113 43 93 49 c 128,-1,28
 73 55 73 55 58 65 c 128,-1,29
 43 75 43 75 43 90 c 128,-1,30
 43 105 43 105 58 115 c 128,-1,31
 73 125 73 125 93 131 c 128,-1,32
 113 137 113 137 136.5 153 c 128,-1,33
 160 169 160 169 172 193 c 1,34,35
 192 222 192 222 208 222 c 0,36,37
 237 222 237 222 237 173 c 0,38,39
 237 157 237 157 213 133.5 c 128,-1,40
 189 110 189 110 138 90 c 1,41,42
 188 77 188 77 212.5 51 c 128,-1,43
 237 25 237 25 237 7 c 0,21,22
EndSplineSet
EndChar

StartChar: logicalnot
Encoding: 172 172 109
Width: 292
GlyphClass: 2
Flags: W
LayerCount: 2
Fore
SplineSet
272 120 m 2,0,-1
 272 118 l 1,1,2
 274 72 274 72 278 30 c 0,3,4
 278 23 278 23 266 18 c 128,-1,5
 254 13 254 13 243 13 c 0,6,7
 221 13 221 13 221 56 c 0,8,9
 221 60 221 60 222 106 c 1,10,-1
 221 106 l 2,11,12
 118 106 118 106 41 99 c 0,13,14
 34 99 34 99 29 111.5 c 128,-1,15
 24 124 24 124 24 134 c 0,16,17
 24 156 24 156 67 156 c 2,18,-1
 69 156 l 2,19,20
 71 156 71 156 75.5 155.5 c 128,-1,21
 80 155 80 155 87 154.5 c 128,-1,22
 94 154 94 154 105.5 153.5 c 128,-1,23
 117 153 117 153 131.5 152.5 c 128,-1,24
 146 152 146 152 168 152 c 2,25,-1
 214 152 l 2,26,27
 235 152 235 152 253.5 144 c 128,-1,28
 272 136 272 136 272 120 c 2,0,-1
EndSplineSet
EndChar

StartChar: registered
Encoding: 174 174 110
Width: 557
GlyphClass: 2
Flags: W
LayerCount: 2
Fore
SplineSet
255 122 m 1,0,-1
 260 42 l 2,1,2
 260 36 260 36 254 36 c 0,3,4
 217 39 217 39 193 86 c 128,-1,5
 169 133 169 133 169 193.5 c 128,-1,6
 169 254 169 254 196 297 c 128,-1,7
 223 340 223 340 271 340 c 128,-1,8
 319 340 319 340 345.5 309.5 c 128,-1,9
 372 279 372 279 372 241.5 c 128,-1,10
 372 204 372 204 350 178.5 c 128,-1,11
 328 153 328 153 286 150 c 1,12,13
 284 148 284 148 284 142.5 c 128,-1,14
 284 137 284 137 306 111 c 128,-1,15
 328 85 328 85 352 75 c 1,16,17
 392 110 392 110 416 158 c 128,-1,18
 440 206 440 206 440 255 c 128,-1,19
 440 304 440 304 405.5 337 c 128,-1,20
 371 370 371 370 303.5 370 c 128,-1,21
 236 370 236 370 168.5 301.5 c 128,-1,22
 101 233 101 233 101 161 c 0,23,24
 101 109 101 109 131.5 67.5 c 128,-1,25
 162 26 162 26 232 26 c 0,26,27
 268 26 268 26 307 44 c 1,28,29
 261 74 261 74 261 171 c 0,30,31
 261 177 261 177 265 177 c 1,32,33
 280 165 280 165 292.5 164.5 c 128,-1,34
 305 164 305 164 313.5 177 c 128,-1,35
 322 190 322 190 322 217.5 c 128,-1,36
 322 245 322 245 302.5 276.5 c 128,-1,37
 283 308 283 308 250 308 c 1,38,39
 225 300 225 300 212 273.5 c 128,-1,40
 199 247 199 247 199 212 c 0,41,42
 199 142 199 142 240 99 c 1,43,44
 242 99 242 99 242 102 c 0,45,46
 242 230 242 230 250 247 c 1,47,48
 253 250 253 250 257.5 250 c 128,-1,49
 262 250 262 250 262 248 c 0,50,51
 255 229 255 229 255 122 c 1,0,-1
352 413 m 0,52,53
 452 413 452 413 500.5 377.5 c 128,-1,54
 549 342 549 342 549 289 c 128,-1,55
 549 236 549 236 518 181.5 c 128,-1,56
 487 127 487 127 437 82 c 128,-1,57
 387 37 387 37 318 7 c 128,-1,58
 249 -23 249 -23 169 -23 c 128,-1,59
 89 -23 89 -23 46 11 c 128,-1,60
 3 45 3 45 3 97 c 128,-1,61
 3 149 3 149 33 204 c 128,-1,62
 63 259 63 259 110.5 305.5 c 128,-1,63
 158 352 158 352 223 382.5 c 128,-1,64
 288 413 288 413 352 413 c 0,52,53
EndSplineSet
EndChar

StartChar: macron
Encoding: 175 175 111
Width: 358
GlyphClass: 2
Flags: W
LayerCount: 2
Fore
SplineSet
304 315 m 0,0,1
 304 301 304 301 253 301 c 0,2,3
 150 301 150 301 73 294 c 0,4,5
 66 294 66 294 61 306 c 128,-1,6
 56 318 56 318 56 329 c 0,7,8
 56 351 56 351 99 351 c 2,9,-1
 101 351 l 2,10,11
 103 351 103 351 107.5 350.5 c 128,-1,12
 112 350 112 350 119 349.5 c 128,-1,13
 126 349 126 349 137.5 348.5 c 128,-1,14
 149 348 149 348 163.5 347.5 c 128,-1,15
 178 347 178 347 200 347 c 2,16,17
 200 347 200 347 246 347 c 0,18,19
 267 347 267 347 285.5 339 c 128,-1,20
 304 331 304 331 304 315 c 0,0,1
EndSplineSet
EndChar

StartChar: degree
Encoding: 176 176 112
Width: 198
GlyphClass: 2
Flags: W
LayerCount: 2
Fore
SplineSet
147 248 m 128,-1,1
 136 260 136 260 117.5 260 c 128,-1,2
 99 260 99 260 90.5 249 c 128,-1,3
 82 238 82 238 82 222.5 c 128,-1,4
 82 207 82 207 91.5 194.5 c 128,-1,5
 101 182 101 182 118.5 182 c 128,-1,6
 136 182 136 182 147 193.5 c 128,-1,7
 158 205 158 205 158 220.5 c 128,-1,0
 158 236 158 236 147 248 c 128,-1,1
69 264 m 128,-1,9
 95 297 95 297 129 297 c 128,-1,10
 163 297 163 297 178.5 281.5 c 128,-1,11
 194 266 194 266 194 236 c 128,-1,12
 194 206 194 206 165 173 c 128,-1,13
 136 140 136 140 95 140 c 0,14,15
 43 140 43 140 43 194 c 0,16,8
 43 231 43 231 69 264 c 128,-1,9
EndSplineSet
EndChar

StartChar: plusminus
Encoding: 177 177 113
Width: 292
GlyphClass: 2
Flags: W
LayerCount: 2
Fore
SplineSet
130 202 m 1,0,-1
 128 243 l 1,1,2
 128 293 128 293 150 293 c 128,-1,3
 172 293 172 293 178.5 285.5 c 128,-1,4
 185 278 185 278 185 276 c 0,5,6
 180 218 180 218 179 202 c 1,7,-1
 242 202 l 2,8,9
 258 202 258 202 265 195.5 c 128,-1,10
 272 189 272 189 272 170 c 0,11,12
 272 156 272 156 221 156 c 2,13,-1
 179 156 l 1,14,15
 180 140 180 140 185 86 c 0,16,17
 185 79 185 79 173 74 c 128,-1,18
 161 69 161 69 150 69 c 0,19,20
 128 69 128 69 128 116 c 1,21,-1
 130 154 l 1,22,23
 100 153 100 153 41 149 c 0,24,25
 34 149 34 149 29 161.5 c 128,-1,26
 24 174 24 174 24 184 c 0,27,28
 24 206 24 206 67 206 c 1,29,30
 75 202 75 202 130 202 c 1,0,-1
272 12 m 0,31,32
 272 -2 272 -2 221 -2 c 0,33,34
 118 -2 118 -2 41 -9 c 0,35,36
 34 -9 34 -9 29 3.5 c 128,-1,37
 24 16 24 16 24 26 c 0,38,39
 24 48 24 48 67 48 c 2,40,-1
 69 48 l 2,41,42
 71 48 71 48 75.5 47.5 c 128,-1,43
 80 47 80 47 87 46.5 c 128,-1,44
 94 46 94 46 105.5 45.5 c 128,-1,45
 117 45 117 45 131.5 44.5 c 128,-1,46
 146 44 146 44 168 44 c 2,47,-1
 214 44 l 2,48,49
 235 44 235 44 253.5 36 c 128,-1,50
 272 28 272 28 272 12 c 0,31,32
EndSplineSet
EndChar

StartChar: twosuperior
Encoding: 178 178 114
Width: 200
GlyphClass: 2
Flags: W
LayerCount: 2
Fore
SplineSet
60 207 m 1,0,-1
 33 200 l 1,1,2
 25 200 25 200 25 207 c 0,3,4
 25 226 25 226 60 246 c 128,-1,5
 95 266 95 266 114.5 266 c 128,-1,6
 134 266 134 266 145.5 256.5 c 128,-1,7
 157 247 157 247 157 233 c 128,-1,8
 157 219 157 219 154 207.5 c 128,-1,9
 151 196 151 196 135.5 176.5 c 128,-1,10
 120 157 120 157 90 137 c 1,11,12
 102 137 102 137 127 130.5 c 128,-1,13
 152 124 152 124 156 124 c 128,-1,14
 160 124 160 124 173.5 130 c 128,-1,15
 187 136 187 136 191 136 c 128,-1,16
 195 136 195 136 195 125.5 c 128,-1,17
 195 115 195 115 180 93 c 128,-1,18
 165 71 165 71 151.5 70 c 128,-1,19
 138 69 138 69 120 78 c 128,-1,20
 102 87 102 87 88.5 87 c 128,-1,21
 75 87 75 87 51 77 c 128,-1,22
 27 67 27 67 23.5 67 c 128,-1,23
 20 67 20 67 17.5 72 c 128,-1,24
 15 77 15 77 15 81 c 128,-1,25
 15 85 15 85 20 90 c 0,26,27
 83 153 83 153 83 182 c 0,28,29
 83 192 83 192 76.5 199.5 c 128,-1,30
 70 207 70 207 60 207 c 1,0,-1
EndSplineSet
EndChar

StartChar: threesuperior
Encoding: 179 179 115
Width: 211
GlyphClass: 2
Flags: W
LayerCount: 2
Fore
SplineSet
93 170 m 1,0,-1
 102 182 l 2,1,2
 111 193 111 193 111 207 c 1,3,4
 109 217 109 217 97.5 217 c 128,-1,5
 86 217 86 217 73.5 203.5 c 128,-1,6
 61 190 61 190 46.5 190 c 128,-1,7
 32 190 32 190 32 203 c 0,8,9
 32 226 32 226 65 245.5 c 128,-1,10
 98 265 98 265 131 265 c 0,11,12
 192 265 192 265 192 241 c 0,13,14
 192 213 192 213 121 172 c 0,15,16
 121 171 121 171 141 170 c 128,-1,17
 161 169 161 169 181 161 c 128,-1,18
 201 153 201 153 201 130 c 128,-1,19
 201 107 201 107 157 86 c 128,-1,20
 113 65 113 65 68 65 c 128,-1,21
 23 65 23 65 15 93 c 1,22,23
 15 107 15 107 25.5 116.5 c 128,-1,24
 36 126 36 126 47 128 c 2,25,-1
 58 130 l 1,26,27
 75 130 75 130 75 115.5 c 128,-1,28
 75 101 75 101 90.5 101 c 128,-1,29
 106 101 106 101 120 108 c 128,-1,30
 134 115 134 115 134 126.5 c 128,-1,31
 134 138 134 138 127.5 145 c 128,-1,32
 121 152 121 152 114 154 c 0,33,34
 93 159 93 159 93 170 c 1,0,-1
EndSplineSet
EndChar

StartChar: acute
Encoding: 180 180 116
Width: 305
GlyphClass: 2
Flags: W
LayerCount: 2
Fore
SplineSet
255 373 m 0,0,1
 255 344 255 344 228 323.5 c 128,-1,2
 201 303 201 303 163 294 c 0,3,4
 98 280 98 280 65 280 c 0,5,6
 50 280 50 280 50 292 c 0,7,8
 50 306 50 306 76 315 c 0,9,10
 118 329 118 329 141 347.5 c 128,-1,11
 164 366 164 366 168 379 c 0,12,13
 179 410 179 410 218 410 c 0,14,15
 236 410 236 410 245.5 398 c 128,-1,16
 255 386 255 386 255 373 c 0,0,1
EndSplineSet
EndChar

StartChar: paragraph
Encoding: 182 182 117
Width: 383
GlyphClass: 2
Flags: W
LayerCount: 2
Fore
SplineSet
217 74 m 1,0,1
 133 74 133 74 81 132 c 128,-1,2
 29 190 29 190 29 256.5 c 128,-1,3
 29 323 29 323 53 382 c 128,-1,4
 77 441 77 441 109 441 c 0,5,6
 136 441 136 441 163 394 c 0,7,8
 217 298 217 298 217 74 c 1,0,1
209 -277 m 0,9,10
 213 -347 213 -347 225 -368 c 128,-1,11
 237 -389 237 -389 258 -389 c 128,-1,12
 279 -389 279 -389 301.5 -373 c 128,-1,13
 324 -357 324 -357 324 -343.5 c 128,-1,14
 324 -330 324 -330 315 -328 c 1,15,16
 270 -324 270 -324 270 -148 c 0,17,18
 270 -82 270 -82 283.5 49.5 c 128,-1,19
 297 181 297 181 297 235 c 0,20,21
 297 329 297 329 267 378.5 c 128,-1,22
 237 428 237 428 160 428 c 1,23,24
 230 336 230 336 230 81 c 0,25,26
 230 -15 230 -15 219.5 -144 c 128,-1,27
 209 -273 209 -273 209 -277 c 0,9,10
EndSplineSet
EndChar

StartChar: periodcentered
Encoding: 183 183 118
Width: 212
GlyphClass: 2
Flags: W
LayerCount: 2
Fore
SplineSet
57 127 m 128,-1,1
 57 152 57 152 72.5 169 c 128,-1,2
 88 186 88 186 111 186 c 128,-1,3
 134 186 134 186 149.5 169 c 128,-1,4
 165 152 165 152 165 127 c 128,-1,5
 165 102 165 102 149.5 85 c 128,-1,6
 134 68 134 68 111 68 c 128,-1,7
 88 68 88 68 72.5 85 c 128,-1,0
 57 102 57 102 57 127 c 128,-1,1
EndSplineSet
EndChar

StartChar: cedilla
Encoding: 184 184 119
Width: 195
GlyphClass: 2
Flags: W
LayerCount: 2
Fore
SplineSet
143 -64 m 0,0,1
 143 -118 143 -118 37 -118 c 0,2,3
 23 -118 23 -118 23 -107 c 0,4,5
 23 -104 23 -104 50.5 -97 c 128,-1,6
 78 -90 78 -90 78 -77.5 c 128,-1,7
 78 -65 78 -65 68.5 -54.5 c 128,-1,8
 59 -44 59 -44 59 -39 c 0,9,10
 59 -24 59 -24 81 -3.5 c 128,-1,11
 103 17 103 17 114.5 17 c 128,-1,12
 126 17 126 17 126 8 c 128,-1,13
 126 -1 126 -1 119.5 -11 c 128,-1,14
 113 -21 113 -21 113 -25 c 0,15,16
 113 -38 113 -38 128 -45 c 128,-1,17
 143 -52 143 -52 143 -64 c 0,0,1
EndSplineSet
EndChar

StartChar: onesuperior
Encoding: 185 185 120
Width: 133
GlyphClass: 2
Flags: W
LayerCount: 2
Fore
SplineSet
38 98 m 1,0,-1
 47 179 l 1,1,2
 47 194 47 194 41 203.5 c 128,-1,3
 35 213 35 213 28 216 c 0,4,5
 10 223 10 223 10 230 c 128,-1,6
 10 237 10 237 48 247 c 128,-1,7
 86 257 86 257 93 257 c 0,8,9
 113 257 113 257 113 238 c 0,10,11
 113 232 113 232 108.5 203 c 128,-1,12
 104 174 104 174 104 148.5 c 128,-1,13
 104 123 104 123 111 91 c 1,14,15
 111 78 111 78 96 68.5 c 128,-1,16
 81 59 81 59 67 59 c 0,17,18
 38 59 38 59 38 98 c 1,0,-1
EndSplineSet
EndChar

StartChar: ordmasculine
Encoding: 186 186 121
Width: 261
GlyphClass: 2
Flags: W
LayerCount: 2
Fore
SplineSet
179.5 232.5 m 128,-1,1
 164 249 164 249 139.5 249 c 128,-1,2
 115 249 115 249 103 234 c 128,-1,3
 91 219 91 219 91 197 c 128,-1,4
 91 175 91 175 104.5 158.5 c 128,-1,5
 118 142 118 142 142.5 142 c 128,-1,6
 167 142 167 142 181 157.5 c 128,-1,7
 195 173 195 173 195 194.5 c 128,-1,0
 195 216 195 216 179.5 232.5 c 128,-1,1
72.5 254.5 m 128,-1,9
 108 300 108 300 155 300 c 128,-1,10
 202 300 202 300 223.5 278.5 c 128,-1,11
 245 257 245 257 245 223 c 0,12,13
 245 173 245 173 205.5 128 c 128,-1,14
 166 83 166 83 109 83 c 0,15,16
 73 83 73 83 55 104 c 128,-1,17
 37 125 37 125 37 158 c 0,18,8
 37 209 37 209 72.5 254.5 c 128,-1,9
EndSplineSet
EndChar

StartChar: guillemotright
Encoding: 187 187 122
Width: 421
GlyphClass: 2
Flags: W
LayerCount: 2
Fore
SplineSet
114 -13 m 1,0,1
 94 -42 94 -42 80 -42 c 128,-1,2
 66 -42 66 -42 55 -28.5 c 128,-1,3
 44 -15 44 -15 44 4 c 0,4,5
 44 52 44 52 118 90 c 1,6,7
 81 104 81 104 63.5 127.5 c 128,-1,8
 46 151 46 151 46 172.5 c 128,-1,9
 46 194 46 194 55.5 208 c 128,-1,10
 65 222 65 222 79.5 222 c 128,-1,11
 94 222 94 222 114 193 c 1,12,13
 126 169 126 169 144.5 153 c 128,-1,14
 163 137 163 137 177.5 131 c 128,-1,15
 192 125 192 125 202.5 115 c 128,-1,16
 213 105 213 105 213 90 c 128,-1,17
 213 75 213 75 202.5 65 c 128,-1,18
 192 55 192 55 177.5 49 c 128,-1,19
 163 43 163 43 144.5 27 c 128,-1,20
 126 11 126 11 114 -13 c 1,0,1
183 7 m 0,21,22
 183 25 183 25 207.5 51 c 128,-1,23
 232 77 232 77 282 90 c 1,24,25
 231 110 231 110 207 133.5 c 128,-1,26
 183 157 183 157 183 173 c 0,27,28
 183 222 183 222 212 222 c 0,29,30
 228 222 228 222 248 193 c 1,31,32
 260 169 260 169 283.5 153 c 128,-1,33
 307 137 307 137 327 131 c 128,-1,34
 347 125 347 125 362 115 c 128,-1,35
 377 105 377 105 377 90 c 128,-1,36
 377 75 377 75 362 65 c 128,-1,37
 347 55 347 55 327 49 c 128,-1,38
 307 43 307 43 283.5 27 c 128,-1,39
 260 11 260 11 248 -13 c 1,40,41
 228 -42 228 -42 212 -42 c 0,42,43
 183 -42 183 -42 183 7 c 0,21,22
EndSplineSet
EndChar

StartChar: onequarter
Encoding: 188 188 123
Width: 415
GlyphClass: 2
Flags: W
LayerCount: 2
Fore
SplineSet
295 182 m 1,0,-1
 290 150 l 1,1,2
 290 109 290 109 311 109 c 1,3,4
 311 117 311 117 317 134.5 c 128,-1,5
 323 152 323 152 330 162 c 0,6,7
 349 191 349 191 382 191 c 0,8,9
 394 191 394 191 394 186.5 c 128,-1,10
 394 182 394 182 389 170 c 0,11,12
 375 134 375 134 375 98.5 c 128,-1,13
 375 63 375 63 378 45.5 c 128,-1,14
 381 28 381 28 381 26 c 0,15,16
 380 12 380 12 364 0.5 c 128,-1,17
 348 -11 348 -11 335.5 -11 c 128,-1,18
 323 -11 323 -11 317 -3 c 0,19,20
 315 -1 315 -1 315 75 c 2,21,-1
 315 89 l 2,22,23
 315 98 315 98 312 98 c 128,-1,24
 309 98 309 98 301 90 c 0,25,26
 278 67 278 67 259.5 67 c 128,-1,27
 241 67 241 67 230 84.5 c 128,-1,28
 219 102 219 102 219 123 c 128,-1,29
 219 144 219 144 234 162 c 0,30,31
 258 192 258 192 283 192 c 0,32,33
 295 192 295 192 295 182 c 1,0,-1
38 98 m 1,34,-1
 47 179 l 1,35,36
 47 194 47 194 41 203.5 c 128,-1,37
 35 213 35 213 28 216 c 0,38,39
 10 223 10 223 10 230 c 128,-1,40
 10 237 10 237 48 247 c 128,-1,41
 86 257 86 257 93 257 c 0,42,43
 113 257 113 257 113 238 c 0,44,45
 113 232 113 232 108.5 203 c 128,-1,46
 104 174 104 174 104 148.5 c 128,-1,47
 104 123 104 123 111 91 c 1,48,49
 111 78 111 78 96 68.5 c 128,-1,50
 81 59 81 59 67 59 c 0,51,52
 38 59 38 59 38 98 c 1,34,-1
207 264 m 0,53,54
 214 277 214 277 222 277 c 128,-1,55
 230 277 230 277 242 274.5 c 128,-1,56
 254 272 254 272 254 269 c 0,57,58
 254 260 254 260 245 244 c 1,59,60
 219 186 219 186 186 99.5 c 128,-1,61
 153 13 153 13 133 -34 c 1,62,63
 120 -57 120 -57 97 -57 c 0,64,65
 92 -57 92 -57 83.5 -54 c 128,-1,66
 75 -51 75 -51 75 -46.5 c 128,-1,67
 75 -42 75 -42 85 -25 c 128,-1,68
 95 -8 95 -8 126 75 c 128,-1,69
 157 158 157 158 207 264 c 0,53,54
EndSplineSet
EndChar

StartChar: onehalf
Encoding: 189 189 124
Width: 382
GlyphClass: 2
Flags: W
LayerCount: 2
Fore
SplineSet
38 98 m 1,0,-1
 47 179 l 1,1,2
 47 194 47 194 41 203.5 c 128,-1,3
 35 213 35 213 28 216 c 0,4,5
 10 223 10 223 10 230 c 128,-1,6
 10 237 10 237 48 247 c 128,-1,7
 86 257 86 257 93 257 c 0,8,9
 113 257 113 257 113 238 c 0,10,11
 113 232 113 232 108.5 203 c 128,-1,12
 104 174 104 174 104 148.5 c 128,-1,13
 104 123 104 123 111 91 c 1,14,15
 111 78 111 78 96 68.5 c 128,-1,16
 81 59 81 59 67 59 c 0,17,18
 38 59 38 59 38 98 c 1,0,-1
258 138 m 1,19,-1
 231 131 l 1,20,21
 223 131 223 131 223 138 c 0,22,23
 223 157 223 157 258 177 c 128,-1,24
 293 197 293 197 312.5 197 c 128,-1,25
 332 197 332 197 343.5 187.5 c 128,-1,26
 355 178 355 178 355 164 c 128,-1,27
 355 150 355 150 352 138.5 c 128,-1,28
 349 127 349 127 333.5 107.5 c 128,-1,29
 318 88 318 88 288 68 c 1,30,31
 300 68 300 68 325 61.5 c 128,-1,32
 350 55 350 55 354 55 c 128,-1,33
 358 55 358 55 371.5 61 c 128,-1,34
 385 67 385 67 389 67 c 128,-1,35
 393 67 393 67 393 56.5 c 128,-1,36
 393 46 393 46 378 24 c 128,-1,37
 363 2 363 2 349.5 1 c 128,-1,38
 336 0 336 0 318 9 c 128,-1,39
 300 18 300 18 286.5 18 c 128,-1,40
 273 18 273 18 249 8 c 128,-1,41
 225 -2 225 -2 221.5 -2 c 128,-1,42
 218 -2 218 -2 215.5 3 c 128,-1,43
 213 8 213 8 213 12 c 128,-1,44
 213 16 213 16 218 21 c 0,45,46
 281 84 281 84 281 113 c 0,47,48
 281 123 281 123 274.5 130.5 c 128,-1,49
 268 138 268 138 258 138 c 1,19,-1
207 264 m 0,50,51
 214 277 214 277 222 277 c 128,-1,52
 230 277 230 277 242 274.5 c 128,-1,53
 254 272 254 272 254 269 c 0,54,55
 254 260 254 260 245 244 c 1,56,57
 219 186 219 186 186 99.5 c 128,-1,58
 153 13 153 13 133 -34 c 1,59,60
 120 -57 120 -57 97 -57 c 0,61,62
 92 -57 92 -57 83.5 -54 c 128,-1,63
 75 -51 75 -51 75 -46.5 c 128,-1,64
 75 -42 75 -42 85 -25 c 128,-1,65
 95 -8 95 -8 126 75 c 128,-1,66
 157 158 157 158 207 264 c 0,50,51
EndSplineSet
EndChar

StartChar: threequarters
Encoding: 190 190 125
Width: 482
GlyphClass: 2
Flags: W
LayerCount: 2
Fore
SplineSet
93 170 m 1,0,-1
 102 182 l 2,1,2
 111 193 111 193 111 207 c 1,3,4
 109 217 109 217 97.5 217 c 128,-1,5
 86 217 86 217 73.5 203.5 c 128,-1,6
 61 190 61 190 46.5 190 c 128,-1,7
 32 190 32 190 32 203 c 0,8,9
 32 226 32 226 65 245.5 c 128,-1,10
 98 265 98 265 131 265 c 0,11,12
 192 265 192 265 192 241 c 0,13,14
 192 213 192 213 121 172 c 0,15,16
 121 171 121 171 141 170 c 128,-1,17
 161 169 161 169 181 161 c 128,-1,18
 201 153 201 153 201 130 c 128,-1,19
 201 107 201 107 157 86 c 128,-1,20
 113 65 113 65 68 65 c 128,-1,21
 23 65 23 65 15 93 c 1,22,23
 15 107 15 107 25.5 116.5 c 128,-1,24
 36 126 36 126 47 128 c 2,25,-1
 58 130 l 1,26,27
 75 130 75 130 75 115.5 c 128,-1,28
 75 101 75 101 90.5 101 c 128,-1,29
 106 101 106 101 120 108 c 128,-1,30
 134 115 134 115 134 126.5 c 128,-1,31
 134 138 134 138 127.5 145 c 128,-1,32
 121 152 121 152 114 154 c 0,33,34
 93 159 93 159 93 170 c 1,0,-1
362 182 m 1,35,-1
 357 150 l 1,36,37
 357 109 357 109 378 109 c 1,38,39
 378 117 378 117 384 134.5 c 128,-1,40
 390 152 390 152 397 162 c 0,41,42
 416 191 416 191 449 191 c 0,43,44
 461 191 461 191 461 186.5 c 128,-1,45
 461 182 461 182 456 170 c 0,46,47
 442 129 442 129 442 96 c 128,-1,48
 442 63 442 63 445 45.5 c 128,-1,49
 448 28 448 28 448 26 c 0,50,51
 447 12 447 12 431 0.5 c 128,-1,52
 415 -11 415 -11 402.5 -11 c 128,-1,53
 390 -11 390 -11 384 -3 c 0,54,55
 382 -1 382 -1 382 75 c 2,56,-1
 382 89 l 2,57,58
 382 98 382 98 379 98 c 128,-1,59
 376 98 376 98 368 90 c 0,60,61
 345 67 345 67 326.5 67 c 128,-1,62
 308 67 308 67 297 84.5 c 128,-1,63
 286 102 286 102 286 123 c 128,-1,64
 286 144 286 144 301 162 c 0,65,66
 325 192 325 192 350 192 c 0,67,68
 362 192 362 192 362 182 c 1,35,-1
274 264 m 0,69,70
 281 277 281 277 289 277 c 128,-1,71
 297 277 297 277 309 274.5 c 128,-1,72
 321 272 321 272 321 269 c 0,73,74
 321 260 321 260 312 244 c 1,75,76
 286 186 286 186 253 99.5 c 128,-1,77
 220 13 220 13 200 -34 c 1,78,79
 187 -57 187 -57 164 -57 c 0,80,81
 159 -57 159 -57 150.5 -54 c 128,-1,82
 142 -51 142 -51 142 -46.5 c 128,-1,83
 142 -42 142 -42 152 -25 c 128,-1,84
 162 -8 162 -8 193 75 c 128,-1,85
 224 158 224 158 274 264 c 0,69,70
EndSplineSet
EndChar

StartChar: questiondown
Encoding: 191 191 126
Width: 305
GlyphClass: 2
Flags: W
LayerCount: 2
Fore
SplineSet
209 244.5 m 128,-1,1
 228 224 228 224 228 194.5 c 128,-1,2
 228 165 228 165 209 144.5 c 128,-1,3
 190 124 190 124 163 124 c 128,-1,4
 136 124 136 124 117.5 144.5 c 128,-1,5
 99 165 99 165 99 194.5 c 128,-1,6
 99 224 99 224 117.5 244.5 c 128,-1,7
 136 265 136 265 163 265 c 128,-1,0
 190 265 190 265 209 244.5 c 128,-1,1
33 -325.5 m 128,-1,9
 -8 -300 -8 -300 -8 -256.5 c 128,-1,10
 -8 -213 -8 -213 10 -179 c 128,-1,11
 28 -145 28 -145 54 -121 c 128,-1,12
 80 -97 80 -97 106 -76 c 0,13,14
 169 -26 169 -26 169 -1 c 0,15,16
 169 36 169 36 134 54 c 0,17,18
 126 57 126 57 126 61 c 128,-1,19
 126 65 126 65 133.5 69.5 c 128,-1,20
 141 74 141 74 148 73.5 c 128,-1,21
 155 73 155 73 169 66 c 128,-1,22
 183 59 183 59 200 38.5 c 128,-1,23
 217 18 217 18 217 -14.5 c 128,-1,24
 217 -47 217 -47 164.5 -128 c 128,-1,25
 112 -209 112 -209 112 -238.5 c 128,-1,26
 112 -268 112 -268 144.5 -289 c 128,-1,27
 177 -310 177 -310 210.5 -310 c 128,-1,28
 244 -310 244 -310 244 -285 c 0,29,30
 244 -275 244 -275 209 -275 c 0,31,32
 193 -275 193 -275 193 -249 c 128,-1,33
 193 -223 193 -223 207.5 -204.5 c 128,-1,34
 222 -186 222 -186 245.5 -186 c 128,-1,35
 269 -186 269 -186 285 -205.5 c 128,-1,36
 301 -225 301 -225 301 -252 c 0,37,38
 301 -296 301 -296 250 -323.5 c 128,-1,39
 199 -351 199 -351 136.5 -351 c 128,-1,8
 74 -351 74 -351 33 -325.5 c 128,-1,9
EndSplineSet
EndChar

StartChar: Agrave
Encoding: 192 192 127
Width: 764
GlyphClass: 2
Flags: W
LayerCount: 2
Fore
SplineSet
362 858 m 0,0,1
 362 871 362 871 371.5 883 c 128,-1,2
 381 895 381 895 401 895 c 128,-1,3
 421 895 421 895 432 885.5 c 128,-1,4
 443 876 443 876 447.5 863.5 c 128,-1,5
 452 851 452 851 471 835 c 128,-1,6
 490 819 490 819 520.5 809.5 c 128,-1,7
 551 800 551 800 551 785 c 0,8,9
 551 773 551 773 536.5 773 c 128,-1,10
 522 773 522 773 502.5 775 c 128,-1,11
 483 777 483 777 446.5 783.5 c 128,-1,12
 410 790 410 790 386 809.5 c 128,-1,13
 362 829 362 829 362 858 c 0,0,1
623 624 m 128,-1,15
 648 646 648 646 648 676.5 c 128,-1,16
 648 707 648 707 627 726 c 128,-1,17
 606 745 606 745 563 745 c 0,18,19
 437 745 437 745 303.5 643 c 128,-1,20
 170 541 170 541 85.5 395.5 c 128,-1,21
 1 250 1 250 1 126 c 0,22,23
 1 63 1 63 26 20 c 0,24,25
 62 -44 62 -44 145 -44 c 128,-1,26
 228 -44 228 -44 327 52.5 c 128,-1,27
 426 149 426 149 483 291 c 1,28,29
 488 300 488 300 493 300 c 0,30,31
 496 300 496 300 496 297.5 c 128,-1,32
 496 295 496 295 481.5 224 c 128,-1,33
 467 153 467 153 467 96 c 0,34,35
 467 -46 467 -46 570 -46 c 0,36,37
 634 -46 634 -46 699 1.5 c 128,-1,38
 764 49 764 49 764 104 c 0,39,40
 764 115 764 115 752 115 c 0,41,42
 745 115 745 115 738 109 c 0,43,44
 716 91 716 91 688 91 c 0,45,46
 633 91 633 91 600 155 c 128,-1,47
 567 219 567 219 567 315.5 c 128,-1,48
 567 412 567 412 596 518 c 0,49,50
 599 527 599 527 599 534.5 c 128,-1,51
 599 542 599 542 593.5 547.5 c 128,-1,52
 588 553 588 553 579 553 c 0,53,54
 561 553 561 553 553 532 c 0,55,56
 552 531 552 531 534 482 c 0,57,58
 485 345 485 345 437 274 c 0,59,60
 334 119 334 119 246 119 c 0,61,62
 191 119 191 119 162.5 161.5 c 128,-1,63
 134 204 134 204 134 271 c 128,-1,64
 134 338 134 338 183 435 c 128,-1,65
 232 532 232 532 314 607 c 128,-1,66
 396 682 396 682 475 682 c 0,67,68
 506 682 506 682 535.5 661 c 128,-1,69
 565 640 565 640 567 616 c 0,70,71
 568 602 568 602 583 602 c 128,-1,14
 598 602 598 602 623 624 c 128,-1,15
EndSplineSet
EndChar

StartChar: Aacute
Encoding: 193 193 128
Width: 764
GlyphClass: 2
Flags: W
LayerCount: 2
Fore
SplineSet
527 849 m 0,0,1
 527 820 527 820 500 799.5 c 128,-1,2
 473 779 473 779 435 770 c 0,3,4
 370 756 370 756 337 756 c 0,5,6
 322 756 322 756 322 768 c 0,7,8
 322 782 322 782 348 791 c 0,9,10
 390 805 390 805 413 823.5 c 128,-1,11
 436 842 436 842 440 855 c 0,12,13
 451 886 451 886 490 886 c 0,14,15
 508 886 508 886 517.5 874 c 128,-1,16
 527 862 527 862 527 849 c 0,0,1
627 726 m 128,-1,18
 648 707 648 707 648 676.5 c 128,-1,19
 648 646 648 646 623 624 c 128,-1,20
 598 602 598 602 583 602 c 128,-1,21
 568 602 568 602 567 616 c 0,22,23
 565 640 565 640 535.5 661 c 128,-1,24
 506 682 506 682 475 682 c 0,25,26
 396 682 396 682 314 607 c 128,-1,27
 232 532 232 532 183 435 c 128,-1,28
 134 338 134 338 134 271 c 128,-1,29
 134 204 134 204 162.5 161.5 c 128,-1,30
 191 119 191 119 246 119 c 0,31,32
 334 119 334 119 437 274 c 0,33,34
 485 345 485 345 534 482 c 0,35,36
 552 531 552 531 553 532 c 0,37,38
 561 553 561 553 579 553 c 0,39,40
 588 553 588 553 593.5 547.5 c 128,-1,41
 599 542 599 542 599 534.5 c 128,-1,42
 599 527 599 527 596 518 c 0,43,44
 567 412 567 412 567 315.5 c 128,-1,45
 567 219 567 219 600 155 c 128,-1,46
 633 91 633 91 688 91 c 0,47,48
 716 91 716 91 738 109 c 0,49,50
 745 115 745 115 752 115 c 0,51,52
 764 115 764 115 764 104 c 0,53,54
 764 49 764 49 699 1.5 c 128,-1,55
 634 -46 634 -46 570 -46 c 0,56,57
 467 -46 467 -46 467 96 c 0,58,59
 467 153 467 153 481.5 224 c 128,-1,60
 496 295 496 295 496 297.5 c 128,-1,61
 496 300 496 300 492 300 c 128,-1,62
 488 300 488 300 483 291 c 1,63,64
 426 149 426 149 327 52.5 c 128,-1,65
 228 -44 228 -44 145 -44 c 128,-1,66
 62 -44 62 -44 26 20 c 0,67,68
 1 63 1 63 1 126 c 0,69,70
 1 250 1 250 85.5 395.5 c 128,-1,71
 170 541 170 541 303.5 643 c 128,-1,72
 437 745 437 745 563 745 c 0,73,17
 606 745 606 745 627 726 c 128,-1,18
EndSplineSet
EndChar

StartChar: Acircumflex
Encoding: 194 194 129
Width: 764
GlyphClass: 2
Flags: W
LayerCount: 2
Fore
SplineSet
475 812 m 1,0,1
 434 776 434 776 388.5 776 c 128,-1,2
 343 776 343 776 343 794 c 0,3,4
 343 805 343 805 369.5 814.5 c 128,-1,5
 396 824 396 824 412 838.5 c 128,-1,6
 428 853 428 853 434 865.5 c 128,-1,7
 440 878 440 878 450 887 c 128,-1,8
 460 896 460 896 475 896 c 128,-1,9
 490 896 490 896 500 887 c 128,-1,10
 510 878 510 878 516 865.5 c 128,-1,11
 522 853 522 853 538 838.5 c 128,-1,12
 554 824 554 824 580.5 814.5 c 128,-1,13
 607 805 607 805 607 794 c 0,14,15
 607 776 607 776 561.5 776 c 128,-1,16
 516 776 516 776 475 812 c 1,0,1
623 624 m 128,-1,18
 648 646 648 646 648 676.5 c 128,-1,19
 648 707 648 707 627 726 c 128,-1,20
 606 745 606 745 563 745 c 0,21,22
 437 745 437 745 303.5 643 c 128,-1,23
 170 541 170 541 85.5 395.5 c 128,-1,24
 1 250 1 250 1 126 c 0,25,26
 1 63 1 63 26 20 c 0,27,28
 62 -44 62 -44 145 -44 c 128,-1,29
 228 -44 228 -44 327 52.5 c 128,-1,30
 426 149 426 149 483 291 c 1,31,32
 488 300 488 300 493 300 c 0,33,34
 496 300 496 300 496 297.5 c 128,-1,35
 496 295 496 295 481.5 224 c 128,-1,36
 467 153 467 153 467 96 c 0,37,38
 467 -46 467 -46 570 -46 c 0,39,40
 634 -46 634 -46 699 1.5 c 128,-1,41
 764 49 764 49 764 104 c 0,42,43
 764 115 764 115 752 115 c 0,44,45
 745 115 745 115 738 109 c 0,46,47
 716 91 716 91 688 91 c 0,48,49
 633 91 633 91 600 155 c 128,-1,50
 567 219 567 219 567 315.5 c 128,-1,51
 567 412 567 412 596 518 c 0,52,53
 599 527 599 527 599 534.5 c 128,-1,54
 599 542 599 542 593.5 547.5 c 128,-1,55
 588 553 588 553 579 553 c 0,56,57
 561 553 561 553 553 532 c 0,58,59
 552 531 552 531 534 482 c 0,60,61
 485 345 485 345 437 274 c 0,62,63
 334 119 334 119 246 119 c 0,64,65
 191 119 191 119 162.5 161.5 c 128,-1,66
 134 204 134 204 134 271 c 128,-1,67
 134 338 134 338 183 435 c 128,-1,68
 232 532 232 532 314 607 c 128,-1,69
 396 682 396 682 475 682 c 0,70,71
 506 682 506 682 535.5 661 c 128,-1,72
 565 640 565 640 567 616 c 0,73,74
 568 602 568 602 583 602 c 128,-1,17
 598 602 598 602 623 624 c 128,-1,18
EndSplineSet
EndChar

StartChar: Atilde
Encoding: 195 195 130
Width: 764
GlyphClass: 2
Flags: W
LayerCount: 2
Fore
SplineSet
356.5 833.5 m 128,-1,1
 387 852 387 852 414.5 852 c 128,-1,2
 442 852 442 852 472 838.5 c 128,-1,3
 502 825 502 825 518.5 825 c 128,-1,4
 535 825 535 825 544 827 c 1,5,6
 554 827 554 827 555 819 c 1,7,8
 555 803 555 803 524 785 c 128,-1,9
 493 767 493 767 466 767 c 128,-1,10
 439 767 439 767 410 780 c 128,-1,11
 381 793 381 793 363.5 793 c 128,-1,12
 346 793 346 793 337 791 c 1,13,14
 327 791 327 791 326 799 c 1,15,0
 326 815 326 815 356.5 833.5 c 128,-1,1
627 726 m 128,-1,17
 648 707 648 707 648 676.5 c 128,-1,18
 648 646 648 646 623 624 c 128,-1,19
 598 602 598 602 583 602 c 128,-1,20
 568 602 568 602 567 616 c 0,21,22
 565 640 565 640 535.5 661 c 128,-1,23
 506 682 506 682 475 682 c 0,24,25
 396 682 396 682 314 607 c 128,-1,26
 232 532 232 532 183 435 c 128,-1,27
 134 338 134 338 134 271 c 128,-1,28
 134 204 134 204 162.5 161.5 c 128,-1,29
 191 119 191 119 246 119 c 0,30,31
 334 119 334 119 437 274 c 0,32,33
 485 345 485 345 534 482 c 0,34,35
 552 531 552 531 553 532 c 0,36,37
 561 553 561 553 579 553 c 0,38,39
 588 553 588 553 593.5 547.5 c 128,-1,40
 599 542 599 542 599 534.5 c 128,-1,41
 599 527 599 527 596 518 c 0,42,43
 567 412 567 412 567 315.5 c 128,-1,44
 567 219 567 219 600 155 c 128,-1,45
 633 91 633 91 688 91 c 0,46,47
 716 91 716 91 738 109 c 0,48,49
 745 115 745 115 752 115 c 0,50,51
 764 115 764 115 764 104 c 0,52,53
 764 49 764 49 699 1.5 c 128,-1,54
 634 -46 634 -46 570 -46 c 0,55,56
 467 -46 467 -46 467 96 c 0,57,58
 467 153 467 153 481.5 224 c 128,-1,59
 496 295 496 295 496 297.5 c 128,-1,60
 496 300 496 300 492 300 c 128,-1,61
 488 300 488 300 483 291 c 1,62,63
 426 149 426 149 327 52.5 c 128,-1,64
 228 -44 228 -44 145 -44 c 128,-1,65
 62 -44 62 -44 26 20 c 0,66,67
 1 63 1 63 1 126 c 0,68,69
 1 250 1 250 85.5 395.5 c 128,-1,70
 170 541 170 541 303.5 643 c 128,-1,71
 437 745 437 745 563 745 c 0,72,16
 606 745 606 745 627 726 c 128,-1,17
EndSplineSet
EndChar

StartChar: Adieresis
Encoding: 196 196 131
Width: 764
GlyphClass: 2
Flags: W
LayerCount: 2
Fore
SplineSet
437 829 m 128,-1,1
 437 854 437 854 452.5 871 c 128,-1,2
 468 888 468 888 491 888 c 128,-1,3
 514 888 514 888 529.5 871 c 128,-1,4
 545 854 545 854 545 829 c 128,-1,5
 545 804 545 804 529.5 787 c 128,-1,6
 514 770 514 770 491 770 c 128,-1,7
 468 770 468 770 452.5 787 c 128,-1,0
 437 804 437 804 437 829 c 128,-1,1
297 829 m 128,-1,9
 297 854 297 854 312.5 871 c 128,-1,10
 328 888 328 888 351 888 c 128,-1,11
 374 888 374 888 389.5 871 c 128,-1,12
 405 854 405 854 405 829 c 128,-1,13
 405 804 405 804 389.5 787 c 128,-1,14
 374 770 374 770 351 770 c 128,-1,15
 328 770 328 770 312.5 787 c 128,-1,8
 297 804 297 804 297 829 c 128,-1,9
627 726 m 128,-1,17
 648 707 648 707 648 676.5 c 128,-1,18
 648 646 648 646 623 624 c 128,-1,19
 598 602 598 602 583 602 c 128,-1,20
 568 602 568 602 567 616 c 0,21,22
 565 640 565 640 535.5 661 c 128,-1,23
 506 682 506 682 475 682 c 0,24,25
 396 682 396 682 314 607 c 128,-1,26
 232 532 232 532 183 435 c 128,-1,27
 134 338 134 338 134 271 c 128,-1,28
 134 204 134 204 162.5 161.5 c 128,-1,29
 191 119 191 119 246 119 c 0,30,31
 334 119 334 119 437 274 c 0,32,33
 485 345 485 345 534 482 c 0,34,35
 552 531 552 531 553 532 c 0,36,37
 561 553 561 553 579 553 c 0,38,39
 588 553 588 553 593.5 547.5 c 128,-1,40
 599 542 599 542 599 534.5 c 128,-1,41
 599 527 599 527 596 518 c 0,42,43
 567 412 567 412 567 315.5 c 128,-1,44
 567 219 567 219 600 155 c 128,-1,45
 633 91 633 91 688 91 c 0,46,47
 716 91 716 91 738 109 c 0,48,49
 745 115 745 115 752 115 c 0,50,51
 764 115 764 115 764 104 c 0,52,53
 764 49 764 49 699 1.5 c 128,-1,54
 634 -46 634 -46 570 -46 c 0,55,56
 467 -46 467 -46 467 96 c 0,57,58
 467 153 467 153 481.5 224 c 128,-1,59
 496 295 496 295 496 297.5 c 128,-1,60
 496 300 496 300 492 300 c 128,-1,61
 488 300 488 300 483 291 c 1,62,63
 426 149 426 149 327 52.5 c 128,-1,64
 228 -44 228 -44 145 -44 c 128,-1,65
 62 -44 62 -44 26 20 c 0,66,67
 1 63 1 63 1 126 c 0,68,69
 1 250 1 250 85.5 395.5 c 128,-1,70
 170 541 170 541 303.5 643 c 128,-1,71
 437 745 437 745 563 745 c 0,72,16
 606 745 606 745 627 726 c 128,-1,17
EndSplineSet
EndChar

StartChar: Aring
Encoding: 197 197 132
Width: 764
GlyphClass: 2
Flags: W
LayerCount: 2
Fore
SplineSet
409 862.5 m 128,-1,1
 397 851 397 851 397 838.5 c 128,-1,2
 397 826 397 826 406 817 c 128,-1,3
 415 808 415 808 427.5 808 c 128,-1,4
 440 808 440 808 451.5 819.5 c 128,-1,5
 463 831 463 831 463 843.5 c 128,-1,6
 463 856 463 856 454 865 c 128,-1,7
 445 874 445 874 433 874 c 128,-1,0
 421 874 421 874 409 862.5 c 128,-1,1
362 841 m 128,-1,9
 362 872 362 872 381.5 894 c 128,-1,10
 401 916 401 916 430 916 c 128,-1,11
 459 916 459 916 478.5 894 c 128,-1,12
 498 872 498 872 498 841 c 128,-1,13
 498 810 498 810 478.5 788 c 128,-1,14
 459 766 459 766 430 766 c 128,-1,15
 401 766 401 766 381.5 788 c 128,-1,8
 362 810 362 810 362 841 c 128,-1,9
627 726 m 128,-1,17
 648 707 648 707 648 676.5 c 128,-1,18
 648 646 648 646 623 624 c 128,-1,19
 598 602 598 602 583 602 c 128,-1,20
 568 602 568 602 567 616 c 0,21,22
 565 640 565 640 535.5 661 c 128,-1,23
 506 682 506 682 475 682 c 0,24,25
 396 682 396 682 314 607 c 128,-1,26
 232 532 232 532 183 435 c 128,-1,27
 134 338 134 338 134 271 c 128,-1,28
 134 204 134 204 162.5 161.5 c 128,-1,29
 191 119 191 119 246 119 c 0,30,31
 334 119 334 119 437 274 c 0,32,33
 485 345 485 345 534 482 c 0,34,35
 552 531 552 531 553 532 c 0,36,37
 561 553 561 553 579 553 c 0,38,39
 588 553 588 553 593.5 547.5 c 128,-1,40
 599 542 599 542 599 534.5 c 128,-1,41
 599 527 599 527 596 518 c 0,42,43
 567 412 567 412 567 315.5 c 128,-1,44
 567 219 567 219 600 155 c 128,-1,45
 633 91 633 91 688 91 c 0,46,47
 716 91 716 91 738 109 c 0,48,49
 745 115 745 115 752 115 c 0,50,51
 764 115 764 115 764 104 c 0,52,53
 764 49 764 49 699 1.5 c 128,-1,54
 634 -46 634 -46 570 -46 c 0,55,56
 467 -46 467 -46 467 96 c 0,57,58
 467 153 467 153 481.5 224 c 128,-1,59
 496 295 496 295 496 297.5 c 128,-1,60
 496 300 496 300 492 300 c 128,-1,61
 488 300 488 300 483 291 c 1,62,63
 426 149 426 149 327 52.5 c 128,-1,64
 228 -44 228 -44 145 -44 c 128,-1,65
 62 -44 62 -44 26 20 c 0,66,67
 1 63 1 63 1 126 c 0,68,69
 1 250 1 250 85.5 395.5 c 128,-1,70
 170 541 170 541 303.5 643 c 128,-1,71
 437 745 437 745 563 745 c 0,72,16
 606 745 606 745 627 726 c 128,-1,17
EndSplineSet
EndChar

StartChar: AE
Encoding: 198 198 133
Width: 939
GlyphClass: 2
Flags: W
LayerCount: 2
Fore
SplineSet
571 249 m 1,0,1
 583 261 583 261 592 269 c 128,-1,2
 601 277 601 277 607.5 284 c 128,-1,3
 614 291 614 291 617.5 295.5 c 128,-1,4
 621 300 621 300 625 305 c 0,5,6
 632 314 632 314 632 327 c 0,7,8
 632 350 632 350 569 378 c 1,9,10
 567 356 567 356 567 322.5 c 128,-1,11
 567 289 567 289 571 249 c 1,0,1
437 274 m 0,12,13
 467 320 467 320 507 412 c 1,14,15
 472 439 472 439 472 479 c 0,16,17
 472 551 472 551 564 628 c 1,18,19
 555 650 555 650 528 666 c 128,-1,20
 501 682 501 682 475 682 c 0,21,22
 396 682 396 682 314 607 c 128,-1,23
 232 532 232 532 183 435 c 128,-1,24
 134 338 134 338 134 271 c 128,-1,25
 134 204 134 204 162.5 161.5 c 128,-1,26
 191 119 191 119 246 119 c 0,27,28
 334 119 334 119 437 274 c 0,12,13
895 666 m 1,29,-1
 900 686 l 1,30,31
 900 704 900 704 881.5 712.5 c 128,-1,32
 863 721 863 721 845 721 c 0,33,34
 803 721 803 721 741 694 c 128,-1,35
 679 667 679 667 632 629.5 c 128,-1,36
 585 592 585 592 584.5 566 c 128,-1,37
 584 540 584 540 609.5 518 c 128,-1,38
 635 496 635 496 665.5 482 c 128,-1,39
 696 468 696 468 721.5 446.5 c 128,-1,40
 747 425 747 425 747 399.5 c 128,-1,41
 747 374 747 374 731.5 351 c 128,-1,42
 716 328 716 328 694 310.5 c 128,-1,43
 672 293 672 293 650 275 c 0,44,45
 598 231 598 231 598 177 c 0,46,47
 598 142 598 142 627.5 116.5 c 128,-1,48
 657 91 657 91 695.5 91 c 128,-1,49
 734 91 734 91 771 103.5 c 128,-1,50
 808 116 808 116 840 142 c 0,51,52
 885 178 885 178 930 226 c 0,53,54
 937 233 937 233 944 233 c 128,-1,55
 951 233 951 233 956 226 c 128,-1,56
 961 219 961 219 961 211 c 0,57,58
 961 191 961 191 925.5 150 c 128,-1,59
 890 109 890 109 837.5 67 c 128,-1,60
 785 25 785 25 715 -7 c 128,-1,61
 645 -39 645 -39 590 -39 c 128,-1,62
 535 -39 535 -39 501 -11 c 128,-1,63
 467 17 467 17 467 70.5 c 128,-1,64
 467 124 467 124 481.5 209.5 c 128,-1,65
 496 295 496 295 496 297.5 c 128,-1,66
 496 300 496 300 492 300 c 128,-1,67
 488 300 488 300 483 291 c 1,68,69
 426 149 426 149 327 52.5 c 128,-1,70
 228 -44 228 -44 145 -44 c 128,-1,71
 62 -44 62 -44 26 20 c 0,72,73
 1 63 1 63 1 126 c 0,74,75
 1 250 1 250 85.5 395.5 c 128,-1,76
 170 541 170 541 303.5 643 c 128,-1,77
 437 745 437 745 563 745 c 0,78,79
 603 745 603 745 624 728.5 c 128,-1,80
 645 712 645 712 648 688 c 1,81,82
 733 741 733 741 828 776.5 c 128,-1,83
 923 812 923 812 961 812 c 128,-1,84
 999 812 999 812 1017.5 796 c 128,-1,85
 1036 780 1036 780 1036 756 c 0,86,87
 1036 721 1036 721 984 689.5 c 128,-1,88
 932 658 932 658 913.5 658.5 c 128,-1,89
 895 659 895 659 895 666 c 1,29,-1
EndSplineSet
EndChar

StartChar: Ccedilla
Encoding: 199 199 134
Width: 504
GlyphClass: 2
Flags: W
LayerCount: 2
Fore
SplineSet
478 165 m 128,-1,1
 489 165 489 165 489 153.5 c 128,-1,2
 489 142 489 142 481 134 c 1,3,4
 446 87 446 87 390.5 43 c 128,-1,5
 335 -1 335 -1 276 -23 c 1,6,-1
 276 -25 l 2,7,8
 276 -38 276 -38 291 -45 c 128,-1,9
 306 -52 306 -52 306 -64 c 0,10,11
 306 -118 306 -118 200 -118 c 0,12,13
 186 -118 186 -118 186 -107 c 0,14,15
 186 -104 186 -104 213.5 -97 c 128,-1,16
 241 -90 241 -90 241 -77.5 c 128,-1,17
 241 -65 241 -65 231.5 -54.5 c 128,-1,18
 222 -44 222 -44 222 -38 c 1,19,20
 196 -42 196 -42 184 -42 c 0,21,22
 91 -42 91 -42 45.5 13.5 c 128,-1,23
 0 69 0 69 0 161 c 128,-1,24
 0 253 0 253 42 361.5 c 128,-1,25
 84 470 84 470 151.5 563.5 c 128,-1,26
 219 657 219 657 315.5 719.5 c 128,-1,27
 412 782 412 782 511 782 c 0,28,29
 597 782 597 782 597 703 c 0,30,31
 597 645 597 645 554 568 c 128,-1,32
 511 491 511 491 445 434.5 c 128,-1,33
 379 378 379 378 323 378 c 0,34,35
 293 378 293 378 293 410 c 0,36,37
 293 434 293 434 321 470 c 128,-1,38
 349 506 349 506 373 506 c 0,39,40
 386 506 386 506 383 483 c 128,-1,41
 380 460 380 460 405 460 c 0,42,43
 441 460 441 460 472.5 515 c 128,-1,44
 504 570 504 570 504 618 c 0,45,46
 504 717 504 717 422 717 c 0,47,48
 347 717 347 717 277.5 649 c 128,-1,49
 208 581 208 581 167.5 483.5 c 128,-1,50
 127 386 127 386 127 296 c 128,-1,51
 127 206 127 206 170.5 151.5 c 128,-1,52
 214 97 214 97 306 97 c 0,53,54
 345 97 345 97 381 110 c 0,55,56
 431 127 431 127 449 146 c 128,-1,0
 467 165 467 165 478 165 c 128,-1,1
EndSplineSet
EndChar

StartChar: Egrave
Encoding: 200 200 135
Width: 472
GlyphClass: 2
Flags: W
LayerCount: 2
Fore
SplineSet
210 900 m 0,0,1
 210 913 210 913 219.5 925 c 128,-1,2
 229 937 229 937 249 937 c 128,-1,3
 269 937 269 937 280 927.5 c 128,-1,4
 291 918 291 918 295.5 905.5 c 128,-1,5
 300 893 300 893 319 877 c 128,-1,6
 338 861 338 861 368.5 851.5 c 128,-1,7
 399 842 399 842 399 827 c 0,8,9
 399 815 399 815 384.5 815 c 128,-1,10
 370 815 370 815 350.5 817 c 128,-1,11
 331 819 331 819 294.5 825.5 c 128,-1,12
 258 832 258 832 234 851.5 c 128,-1,13
 210 871 210 871 210 900 c 0,0,1
433 686 m 1,14,-1
 428 666 l 1,15,16
 428 659 428 659 446.5 658.5 c 128,-1,17
 465 658 465 658 517 689.5 c 128,-1,18
 569 721 569 721 569 756 c 0,19,20
 569 780 569 780 550.5 796 c 128,-1,21
 532 812 532 812 496.5 812 c 128,-1,22
 461 812 461 812 381 783 c 128,-1,23
 301 754 301 754 216 709.5 c 128,-1,24
 131 665 131 665 68 601.5 c 128,-1,25
 5 538 5 538 5 479 c 0,26,27
 5 445 5 445 30 421 c 128,-1,28
 55 397 55 397 85 386 c 0,29,30
 165 358 165 358 165 322 c 0,31,32
 165 308 165 308 139 281 c 128,-1,33
 113 254 113 254 82.5 226 c 128,-1,34
 52 198 52 198 26 154 c 128,-1,35
 0 110 0 110 0 63.5 c 128,-1,36
 0 17 0 17 34 -11 c 128,-1,37
 68 -39 68 -39 123 -39 c 128,-1,38
 178 -39 178 -39 248 -7 c 128,-1,39
 318 25 318 25 370.5 67 c 128,-1,40
 423 109 423 109 458.5 150 c 128,-1,41
 494 191 494 191 494 211 c 0,42,43
 494 219 494 219 489 226 c 128,-1,44
 484 233 484 233 477 233 c 128,-1,45
 470 233 470 233 463 226 c 0,46,47
 370 126 370 126 304 104 c 0,48,49
 267 91 267 91 228.5 91 c 128,-1,50
 190 91 190 91 160.5 116.5 c 128,-1,51
 131 142 131 142 131 174.5 c 128,-1,52
 131 207 131 207 146.5 232 c 128,-1,53
 162 257 162 257 184 275 c 128,-1,54
 206 293 206 293 228 310 c 0,55,56
 280 353 280 353 280 401 c 0,57,58
 280 425 280 425 254.5 446.5 c 128,-1,59
 229 468 229 468 198.5 482 c 128,-1,60
 168 496 168 496 142.5 518 c 128,-1,61
 117 540 117 540 117.5 566 c 128,-1,62
 118 592 118 592 165 629.5 c 128,-1,63
 212 667 212 667 274 694 c 128,-1,64
 336 721 336 721 378 721 c 0,65,66
 396 721 396 721 414.5 712.5 c 128,-1,67
 433 704 433 704 433 686 c 1,14,-1
EndSplineSet
EndChar

StartChar: Eacute
Encoding: 201 201 136
Width: 472
GlyphClass: 2
Flags: W
LayerCount: 2
Fore
SplineSet
388 887 m 0,0,1
 388 858 388 858 361 837.5 c 128,-1,2
 334 817 334 817 296 808 c 0,3,4
 231 794 231 794 198 794 c 0,5,6
 183 794 183 794 183 806 c 0,7,8
 183 820 183 820 209 829 c 0,9,10
 251 843 251 843 274 861.5 c 128,-1,11
 297 880 297 880 302 893 c 0,12,13
 312 924 312 924 351 924 c 0,14,15
 369 924 369 924 378.5 912 c 128,-1,16
 388 900 388 900 388 887 c 0,0,1
428 666 m 1,17,-1
 433 686 l 1,18,19
 433 704 433 704 414.5 712.5 c 128,-1,20
 396 721 396 721 378 721 c 0,21,22
 336 721 336 721 274 694 c 128,-1,23
 212 667 212 667 165 629.5 c 128,-1,24
 118 592 118 592 117.5 566 c 128,-1,25
 117 540 117 540 142.5 518 c 128,-1,26
 168 496 168 496 198.5 482 c 128,-1,27
 229 468 229 468 254.5 446.5 c 128,-1,28
 280 425 280 425 280 399.5 c 128,-1,29
 280 374 280 374 264.5 351 c 128,-1,30
 249 328 249 328 227 310.5 c 128,-1,31
 205 293 205 293 184 275 c 0,32,33
 131 231 131 231 131 177 c 0,34,35
 131 142 131 142 160.5 116.5 c 128,-1,36
 190 91 190 91 228.5 91 c 128,-1,37
 267 91 267 91 304 103.5 c 128,-1,38
 341 116 341 116 374 142 c 0,39,40
 418 178 418 178 463 226 c 0,41,42
 470 233 470 233 477 233 c 128,-1,43
 484 233 484 233 489 226 c 128,-1,44
 494 219 494 219 494 211 c 0,45,46
 494 191 494 191 458.5 150 c 128,-1,47
 423 109 423 109 370.5 67 c 128,-1,48
 318 25 318 25 248 -7 c 128,-1,49
 178 -39 178 -39 123 -39 c 128,-1,50
 68 -39 68 -39 34 -11 c 128,-1,51
 0 17 0 17 0 63.5 c 128,-1,52
 0 110 0 110 26 154 c 128,-1,53
 52 198 52 198 82.5 226 c 128,-1,54
 113 254 113 254 139 281 c 128,-1,55
 165 308 165 308 165 325.5 c 128,-1,56
 165 343 165 343 140 359.5 c 128,-1,57
 115 376 115 376 85 386.5 c 128,-1,58
 55 397 55 397 30 421 c 128,-1,59
 5 445 5 445 5 479 c 0,60,61
 5 538 5 538 68 601.5 c 128,-1,62
 131 665 131 665 216 709.5 c 128,-1,63
 301 754 301 754 381 783 c 128,-1,64
 461 812 461 812 496.5 812 c 128,-1,65
 532 812 532 812 550.5 796 c 128,-1,66
 569 780 569 780 569 756 c 0,67,68
 569 721 569 721 517 689.5 c 128,-1,69
 465 658 465 658 446.5 658.5 c 128,-1,70
 428 659 428 659 428 666 c 1,17,-1
EndSplineSet
EndChar

StartChar: Ecircumflex
Encoding: 202 202 137
Width: 472
GlyphClass: 2
Flags: W
LayerCount: 2
Fore
SplineSet
300 853 m 1,0,1
 259 817 259 817 213.5 817 c 128,-1,2
 168 817 168 817 168 835 c 0,3,4
 168 846 168 846 194.5 855.5 c 128,-1,5
 221 865 221 865 237 879.5 c 128,-1,6
 253 894 253 894 259 906.5 c 128,-1,7
 265 919 265 919 275 928 c 128,-1,8
 285 937 285 937 300 937 c 128,-1,9
 315 937 315 937 325 928 c 128,-1,10
 335 919 335 919 341 906.5 c 128,-1,11
 347 894 347 894 363 879.5 c 128,-1,12
 379 865 379 865 405.5 855.5 c 128,-1,13
 432 846 432 846 432 835 c 0,14,15
 432 817 432 817 386.5 817 c 128,-1,16
 341 817 341 817 300 853 c 1,0,1
433 686 m 1,17,-1
 428 666 l 1,18,19
 428 659 428 659 446.5 658.5 c 128,-1,20
 465 658 465 658 517 689.5 c 128,-1,21
 569 721 569 721 569 756 c 0,22,23
 569 780 569 780 550.5 796 c 128,-1,24
 532 812 532 812 496.5 812 c 128,-1,25
 461 812 461 812 381 783 c 128,-1,26
 301 754 301 754 216 709.5 c 128,-1,27
 131 665 131 665 68 601.5 c 128,-1,28
 5 538 5 538 5 479 c 0,29,30
 5 445 5 445 30 421 c 128,-1,31
 55 397 55 397 85 386 c 0,32,33
 165 358 165 358 165 322 c 0,34,35
 165 308 165 308 139 281 c 128,-1,36
 113 254 113 254 82.5 226 c 128,-1,37
 52 198 52 198 26 154 c 128,-1,38
 0 110 0 110 0 63.5 c 128,-1,39
 0 17 0 17 34 -11 c 128,-1,40
 68 -39 68 -39 123 -39 c 128,-1,41
 178 -39 178 -39 248 -7 c 128,-1,42
 318 25 318 25 370.5 67 c 128,-1,43
 423 109 423 109 458.5 150 c 128,-1,44
 494 191 494 191 494 211 c 0,45,46
 494 219 494 219 489 226 c 128,-1,47
 484 233 484 233 477 233 c 128,-1,48
 470 233 470 233 463 226 c 0,49,50
 370 126 370 126 304 104 c 0,51,52
 267 91 267 91 228.5 91 c 128,-1,53
 190 91 190 91 160.5 116.5 c 128,-1,54
 131 142 131 142 131 174.5 c 128,-1,55
 131 207 131 207 146.5 232 c 128,-1,56
 162 257 162 257 184 275 c 128,-1,57
 206 293 206 293 228 310 c 0,58,59
 280 353 280 353 280 401 c 0,60,61
 280 425 280 425 254.5 446.5 c 128,-1,62
 229 468 229 468 198.5 482 c 128,-1,63
 168 496 168 496 142.5 518 c 128,-1,64
 117 540 117 540 117.5 566 c 128,-1,65
 118 592 118 592 165 629.5 c 128,-1,66
 212 667 212 667 274 694 c 128,-1,67
 336 721 336 721 378 721 c 0,68,69
 396 721 396 721 414.5 712.5 c 128,-1,70
 433 704 433 704 433 686 c 1,17,-1
EndSplineSet
EndChar

StartChar: Edieresis
Encoding: 203 203 138
Width: 472
GlyphClass: 2
Flags: W
LayerCount: 2
Fore
SplineSet
309 889 m 128,-1,1
 309 914 309 914 324.5 931 c 128,-1,2
 340 948 340 948 363 948 c 128,-1,3
 386 948 386 948 401.5 931 c 128,-1,4
 417 914 417 914 417 889 c 128,-1,5
 417 864 417 864 401.5 847 c 128,-1,6
 386 830 386 830 363 830 c 128,-1,7
 340 830 340 830 324.5 847 c 128,-1,0
 309 864 309 864 309 889 c 128,-1,1
169 889 m 128,-1,9
 169 914 169 914 184.5 931 c 128,-1,10
 200 948 200 948 223 948 c 128,-1,11
 246 948 246 948 261.5 931 c 128,-1,12
 277 914 277 914 277 889 c 128,-1,13
 277 864 277 864 261.5 847 c 128,-1,14
 246 830 246 830 223 830 c 128,-1,15
 200 830 200 830 184.5 847 c 128,-1,8
 169 864 169 864 169 889 c 128,-1,9
428 666 m 1,16,-1
 433 686 l 1,17,18
 433 704 433 704 414.5 712.5 c 128,-1,19
 396 721 396 721 378 721 c 0,20,21
 336 721 336 721 274 694 c 128,-1,22
 212 667 212 667 165 629.5 c 128,-1,23
 118 592 118 592 117.5 566 c 128,-1,24
 117 540 117 540 142.5 518 c 128,-1,25
 168 496 168 496 198.5 482 c 128,-1,26
 229 468 229 468 254.5 446.5 c 128,-1,27
 280 425 280 425 280 399.5 c 128,-1,28
 280 374 280 374 264.5 351 c 128,-1,29
 249 328 249 328 227 310.5 c 128,-1,30
 205 293 205 293 184 275 c 0,31,32
 131 231 131 231 131 177 c 0,33,34
 131 142 131 142 160.5 116.5 c 128,-1,35
 190 91 190 91 228.5 91 c 128,-1,36
 267 91 267 91 304 103.5 c 128,-1,37
 341 116 341 116 374 142 c 0,38,39
 418 178 418 178 463 226 c 0,40,41
 470 233 470 233 477 233 c 128,-1,42
 484 233 484 233 489 226 c 128,-1,43
 494 219 494 219 494 211 c 0,44,45
 494 191 494 191 458.5 150 c 128,-1,46
 423 109 423 109 370.5 67 c 128,-1,47
 318 25 318 25 248 -7 c 128,-1,48
 178 -39 178 -39 123 -39 c 128,-1,49
 68 -39 68 -39 34 -11 c 128,-1,50
 0 17 0 17 0 63.5 c 128,-1,51
 0 110 0 110 26 154 c 128,-1,52
 52 198 52 198 82.5 226 c 128,-1,53
 113 254 113 254 139 281 c 128,-1,54
 165 308 165 308 165 325.5 c 128,-1,55
 165 343 165 343 140 359.5 c 128,-1,56
 115 376 115 376 85 386.5 c 128,-1,57
 55 397 55 397 30 421 c 128,-1,58
 5 445 5 445 5 479 c 0,59,60
 5 538 5 538 68 601.5 c 128,-1,61
 131 665 131 665 216 709.5 c 128,-1,62
 301 754 301 754 381 783 c 128,-1,63
 461 812 461 812 496.5 812 c 128,-1,64
 532 812 532 812 550.5 796 c 128,-1,65
 569 780 569 780 569 756 c 0,66,67
 569 721 569 721 517 689.5 c 128,-1,68
 465 658 465 658 446.5 658.5 c 128,-1,69
 428 659 428 659 428 666 c 1,16,-1
EndSplineSet
EndChar

StartChar: Igrave
Encoding: 204 204 139
Width: 382
GlyphClass: 2
Flags: W
LayerCount: 2
Fore
SplineSet
61 971 m 0,0,1
 61 984 61 984 70.5 996 c 128,-1,2
 80 1008 80 1008 100 1008 c 128,-1,3
 120 1008 120 1008 131 998.5 c 128,-1,4
 142 989 142 989 146.5 976.5 c 128,-1,5
 151 964 151 964 170 948 c 128,-1,6
 189 932 189 932 219.5 922.5 c 128,-1,7
 250 913 250 913 250 898 c 0,8,9
 250 886 250 886 235.5 886 c 128,-1,10
 221 886 221 886 201.5 888 c 128,-1,11
 182 890 182 890 145.5 896.5 c 128,-1,12
 109 903 109 903 85 922.5 c 128,-1,13
 61 942 61 942 61 971 c 0,0,1
74 -82.5 m 128,-1,15
 54 -41 54 -41 54 -29 c 128,-1,16
 54 -17 54 -17 63 -10.5 c 128,-1,17
 72 -4 72 -4 120 28 c 0,18,19
 240 109 240 109 287 109 c 0,20,21
 300 109 300 109 308 99 c 1,22,23
 317 85 317 85 330 56 c 128,-1,24
 343 27 343 27 343 21 c 128,-1,25
 343 15 343 15 342 12 c 0,26,27
 339 4 339 4 336 2 c 0,28,29
 324 -4 324 -4 318.5 -7 c 128,-1,30
 313 -10 313 -10 264 -40 c 0,31,32
 128 -124 128 -124 114 -124 c 0,33,14
 94 -124 94 -124 74 -82.5 c 128,-1,15
194 343 m 1,34,-1
 204 129 l 2,35,36
 204 110 204 110 192 93.5 c 128,-1,37
 180 77 180 77 160 77 c 0,38,39
 151 77 151 77 151 91 c 0,40,41
 151 243 151 243 143.5 369 c 128,-1,42
 136 495 136 495 136 660 c 0,43,44
 136 676 136 676 143 680 c 0,45,46
 163 693 163 693 171.5 693 c 128,-1,47
 180 693 180 693 182 691 c 0,48,49
 186 684 186 684 186 629.5 c 128,-1,50
 186 575 186 575 194 343 c 1,34,-1
17 736 m 2,51,52
 18 743 18 743 73 772 c 0,53,54
 225 852 225 852 258 852 c 0,55,56
 268 852 268 852 269.5 848 c 128,-1,57
 271 844 271 844 278 828.5 c 128,-1,58
 285 813 285 813 289 800.5 c 128,-1,59
 293 788 293 788 293 778 c 128,-1,60
 293 768 293 768 279 761 c 0,61,62
 276 759 276 759 239 742.5 c 128,-1,63
 202 726 202 726 164 708 c 0,64,65
 67 664 67 664 42 644.5 c 128,-1,66
 17 625 17 625 8.5 625 c 128,-1,67
 0 625 0 625 0 635 c 1,68,-1
 17 736 l 2,51,52
EndSplineSet
EndChar

StartChar: Iacute
Encoding: 205 205 140
Width: 382
GlyphClass: 2
Flags: W
LayerCount: 2
Fore
SplineSet
268 972 m 0,0,1
 268 943 268 943 241 922.5 c 128,-1,2
 214 902 214 902 176 894 c 0,3,4
 111 879 111 879 78 879 c 0,5,6
 63 879 63 879 63 891 c 0,7,8
 63 905 63 905 89 914 c 0,9,10
 131 928 131 928 154 946.5 c 128,-1,11
 177 965 177 965 182 978 c 0,12,13
 192 1009 192 1009 231 1009 c 0,14,15
 249 1009 249 1009 258.5 997 c 128,-1,16
 268 985 268 985 268 972 c 0,0,1
74 -82.5 m 128,-1,18
 54 -41 54 -41 54 -29 c 128,-1,19
 54 -17 54 -17 63 -10.5 c 128,-1,20
 72 -4 72 -4 120 28 c 0,21,22
 240 109 240 109 287 109 c 0,23,24
 300 109 300 109 308 99 c 1,25,26
 317 85 317 85 330 56 c 128,-1,27
 343 27 343 27 343 21 c 128,-1,28
 343 15 343 15 342 12 c 0,29,30
 339 4 339 4 336 2 c 0,31,32
 324 -4 324 -4 318.5 -7 c 128,-1,33
 313 -10 313 -10 264 -40 c 0,34,35
 128 -124 128 -124 114 -124 c 0,36,17
 94 -124 94 -124 74 -82.5 c 128,-1,18
194 343 m 1,37,-1
 204 129 l 2,38,39
 204 110 204 110 192 93.5 c 128,-1,40
 180 77 180 77 160 77 c 0,41,42
 151 77 151 77 151 91 c 0,43,44
 151 243 151 243 143.5 369 c 128,-1,45
 136 495 136 495 136 660 c 0,46,47
 136 676 136 676 143 680 c 0,48,49
 163 693 163 693 171.5 693 c 128,-1,50
 180 693 180 693 182 691 c 0,51,52
 186 684 186 684 186 629.5 c 128,-1,53
 186 575 186 575 194 343 c 1,37,-1
17 736 m 2,54,55
 18 743 18 743 73 772 c 0,56,57
 225 852 225 852 258 852 c 0,58,59
 268 852 268 852 269.5 848 c 128,-1,60
 271 844 271 844 278 828.5 c 128,-1,61
 285 813 285 813 289 800.5 c 128,-1,62
 293 788 293 788 293 778 c 128,-1,63
 293 768 293 768 279 761 c 0,64,65
 276 759 276 759 239 742.5 c 128,-1,66
 202 726 202 726 164 708 c 0,67,68
 67 664 67 664 42 644.5 c 128,-1,69
 17 625 17 625 8.5 625 c 128,-1,70
 0 625 0 625 0 635 c 1,71,-1
 17 736 l 2,54,55
EndSplineSet
EndChar

StartChar: Icircumflex
Encoding: 206 206 141
Width: 382
GlyphClass: 2
Flags: W
LayerCount: 2
Fore
SplineSet
151 914 m 1,0,1
 110 878 110 878 64.5 878 c 128,-1,2
 19 878 19 878 19 896 c 0,3,4
 19 907 19 907 45.5 916.5 c 128,-1,5
 72 926 72 926 88 940.5 c 128,-1,6
 104 955 104 955 110 967.5 c 128,-1,7
 116 980 116 980 126 989 c 128,-1,8
 136 998 136 998 151 998 c 128,-1,9
 166 998 166 998 176 989 c 128,-1,10
 186 980 186 980 192 967.5 c 128,-1,11
 198 955 198 955 214 940.5 c 128,-1,12
 230 926 230 926 256.5 916.5 c 128,-1,13
 283 907 283 907 283 896 c 0,14,15
 283 878 283 878 237.5 878 c 128,-1,16
 192 878 192 878 151 914 c 1,0,1
74 -82.5 m 128,-1,18
 54 -41 54 -41 54 -29 c 128,-1,19
 54 -17 54 -17 63 -10.5 c 128,-1,20
 72 -4 72 -4 120 28 c 0,21,22
 240 109 240 109 287 109 c 0,23,24
 300 109 300 109 308 99 c 1,25,26
 317 85 317 85 330 56 c 128,-1,27
 343 27 343 27 343 21 c 128,-1,28
 343 15 343 15 342 12 c 0,29,30
 339 4 339 4 336 2 c 0,31,32
 324 -4 324 -4 318.5 -7 c 128,-1,33
 313 -10 313 -10 264 -40 c 0,34,35
 128 -124 128 -124 114 -124 c 0,36,17
 94 -124 94 -124 74 -82.5 c 128,-1,18
194 343 m 1,37,-1
 204 129 l 2,38,39
 204 110 204 110 192 93.5 c 128,-1,40
 180 77 180 77 160 77 c 0,41,42
 151 77 151 77 151 91 c 0,43,44
 151 243 151 243 143.5 369 c 128,-1,45
 136 495 136 495 136 660 c 0,46,47
 136 676 136 676 143 680 c 0,48,49
 163 693 163 693 171.5 693 c 128,-1,50
 180 693 180 693 182 691 c 0,51,52
 186 684 186 684 186 629.5 c 128,-1,53
 186 575 186 575 194 343 c 1,37,-1
17 736 m 2,54,55
 18 743 18 743 73 772 c 0,56,57
 225 852 225 852 258 852 c 0,58,59
 268 852 268 852 269.5 848 c 128,-1,60
 271 844 271 844 278 828.5 c 128,-1,61
 285 813 285 813 289 800.5 c 128,-1,62
 293 788 293 788 293 778 c 128,-1,63
 293 768 293 768 279 761 c 0,64,65
 276 759 276 759 239 742.5 c 128,-1,66
 202 726 202 726 164 708 c 0,67,68
 67 664 67 664 42 644.5 c 128,-1,69
 17 625 17 625 8.5 625 c 128,-1,70
 0 625 0 625 0 635 c 1,71,-1
 17 736 l 2,54,55
EndSplineSet
EndChar

StartChar: Idieresis
Encoding: 207 207 142
Width: 382
GlyphClass: 2
Flags: W
LayerCount: 2
Fore
SplineSet
192 942 m 128,-1,1
 192 967 192 967 207.5 984 c 128,-1,2
 223 1001 223 1001 246 1001 c 128,-1,3
 269 1001 269 1001 284.5 984 c 128,-1,4
 300 967 300 967 300 942 c 128,-1,5
 300 917 300 917 284.5 900 c 128,-1,6
 269 883 269 883 246 883 c 128,-1,7
 223 883 223 883 207.5 900 c 128,-1,0
 192 917 192 917 192 942 c 128,-1,1
52 942 m 128,-1,9
 52 967 52 967 67.5 984 c 128,-1,10
 83 1001 83 1001 106 1001 c 128,-1,11
 129 1001 129 1001 144.5 984 c 128,-1,12
 160 967 160 967 160 942 c 128,-1,13
 160 917 160 917 144.5 900 c 128,-1,14
 129 883 129 883 106 883 c 128,-1,15
 83 883 83 883 67.5 900 c 128,-1,8
 52 917 52 917 52 942 c 128,-1,9
74 -82.5 m 128,-1,17
 54 -41 54 -41 54 -29 c 128,-1,18
 54 -17 54 -17 63 -10.5 c 128,-1,19
 72 -4 72 -4 120 28 c 0,20,21
 240 109 240 109 287 109 c 0,22,23
 300 109 300 109 308 99 c 1,24,25
 317 85 317 85 330 56 c 128,-1,26
 343 27 343 27 343 21 c 128,-1,27
 343 15 343 15 342 12 c 0,28,29
 339 4 339 4 336 2 c 0,30,31
 324 -4 324 -4 318.5 -7 c 128,-1,32
 313 -10 313 -10 264 -40 c 0,33,34
 128 -124 128 -124 114 -124 c 0,35,16
 94 -124 94 -124 74 -82.5 c 128,-1,17
194 343 m 1,36,-1
 204 129 l 2,37,38
 204 110 204 110 192 93.5 c 128,-1,39
 180 77 180 77 160 77 c 0,40,41
 151 77 151 77 151 91 c 0,42,43
 151 243 151 243 143.5 369 c 128,-1,44
 136 495 136 495 136 660 c 0,45,46
 136 676 136 676 143 680 c 0,47,48
 163 693 163 693 171.5 693 c 128,-1,49
 180 693 180 693 182 691 c 0,50,51
 186 684 186 684 186 629.5 c 128,-1,52
 186 575 186 575 194 343 c 1,36,-1
17 736 m 2,53,54
 18 743 18 743 73 772 c 0,55,56
 225 852 225 852 258 852 c 0,57,58
 268 852 268 852 269.5 848 c 128,-1,59
 271 844 271 844 278 828.5 c 128,-1,60
 285 813 285 813 289 800.5 c 128,-1,61
 293 788 293 788 293 778 c 128,-1,62
 293 768 293 768 279 761 c 0,63,64
 276 759 276 759 239 742.5 c 128,-1,65
 202 726 202 726 164 708 c 0,66,67
 67 664 67 664 42 644.5 c 128,-1,68
 17 625 17 625 8.5 625 c 128,-1,69
 0 625 0 625 0 635 c 1,70,-1
 17 736 l 2,53,54
EndSplineSet
EndChar

StartChar: Eth
Encoding: 208 208 143
Width: 693
GlyphClass: 2
Flags: W
LayerCount: 2
Fore
SplineSet
211 54 m 0,0,1
 211 56 211 56 202 150 c 1,2,-1
 195 150 l 2,3,4
 147 150 147 150 147 90 c 0,5,6
 147 45 147 45 195 11.5 c 128,-1,7
 243 -22 243 -22 293 -22 c 128,-1,8
 343 -22 343 -22 408 24 c 1,9,10
 389 37 389 37 354 64 c 0,11,12
 280 122 280 122 243 139 c 1,13,14
 249 73 249 73 249 60 c 0,15,16
 249 38 249 38 231 38 c 128,-1,17
 213 38 213 38 211 54 c 0,0,1
208.5 567.5 m 128,-1,19
 214 553 214 553 214 538.5 c 128,-1,20
 214 524 214 524 224 397 c 1,21,22
 280 410 280 410 309 410 c 0,23,24
 318 410 318 410 318 402.5 c 128,-1,25
 318 395 318 395 313.5 382.5 c 128,-1,26
 309 370 309 370 302 369 c 0,27,28
 280 367 280 367 227 356 c 1,29,30
 236 235 236 235 236 232 c 1,31,32
 269 242 269 242 298.5 242 c 128,-1,33
 328 242 328 242 360 229.5 c 128,-1,34
 392 217 392 217 409 206 c 128,-1,35
 426 195 426 195 462.5 167 c 128,-1,36
 499 139 499 139 508 133 c 1,37,38
 534 180 534 180 534 231.5 c 128,-1,39
 534 283 534 283 485.5 364.5 c 128,-1,40
 437 446 437 446 367.5 520 c 128,-1,41
 298 594 298 594 212 647 c 128,-1,42
 126 700 126 700 65.5 700 c 128,-1,43
 5 700 5 700 -46 649 c 1,44,45
 -88 604 -88 604 -106 567 c 0,46,47
 -111 558 -111 558 -118 558 c 128,-1,48
 -125 558 -125 558 -129 560 c 0,49,50
 -141 565 -141 565 -141 576 c 1,51,-1
 -140 583 l 1,52,53
 -115 629 -115 629 -38 702 c 0,54,55
 0 739 0 739 48.5 764.5 c 128,-1,56
 97 790 97 790 143.5 790 c 128,-1,57
 190 790 190 790 252 766 c 128,-1,58
 314 742 314 742 376 696.5 c 128,-1,59
 438 651 438 651 490.5 593.5 c 128,-1,60
 543 536 543 536 575.5 461.5 c 128,-1,61
 608 387 608 387 608 304.5 c 128,-1,62
 608 222 608 222 543 111 c 1,63,64
 580 90 580 90 615 90 c 0,65,66
 626 90 626 90 644 102.5 c 128,-1,67
 662 115 662 115 669 115 c 0,68,69
 683 115 683 115 683 101 c 0,70,71
 683 73 683 73 627.5 24.5 c 128,-1,72
 572 -24 572 -24 518 -24 c 0,73,74
 490 -24 490 -24 452 -4 c 1,75,76
 320 -136 320 -136 167 -136 c 0,77,78
 111 -136 111 -136 81.5 -106 c 128,-1,79
 52 -76 52 -76 52 -19 c 128,-1,80
 52 38 52 38 92 108 c 128,-1,81
 132 178 132 178 196 214 c 1,82,-1
 184 346 l 1,83,84
 98 322 98 322 65 299 c 0,85,86
 64 298 64 298 60 298 c 128,-1,87
 56 298 56 298 56 305 c 128,-1,88
 56 312 56 312 61.5 327.5 c 128,-1,89
 67 343 67 343 70 345 c 0,90,91
 95 363 95 363 181 387 c 1,92,93
 169 509 169 509 168.5 516 c 128,-1,94
 168 523 168 523 161.5 528.5 c 128,-1,95
 155 534 155 534 155 544.5 c 128,-1,96
 155 555 155 555 168 568.5 c 128,-1,97
 181 582 181 582 192 582 c 128,-1,18
 203 582 203 582 208.5 567.5 c 128,-1,19
EndSplineSet
EndChar

StartChar: Ntilde
Encoding: 209 209 144
Width: 543
GlyphClass: 2
Flags: W
LayerCount: 2
Fore
SplineSet
150 592 m 1,0,1
 155 598 155 598 158 602 c 128,-1,2
 161 606 161 606 165 610 c 0,3,4
 175 620 175 620 181.5 620 c 128,-1,5
 188 620 188 620 188 611 c 1,6,7
 183 587 183 587 176.5 445 c 128,-1,8
 170 303 170 303 170 236.5 c 128,-1,9
 170 170 170 170 179.5 88.5 c 128,-1,10
 189 7 189 7 189 -5 c 128,-1,11
 189 -17 189 -17 174 -29.5 c 128,-1,12
 159 -42 159 -42 145 -42 c 0,13,14
 127 -42 127 -42 124 -15.5 c 128,-1,15
 121 11 121 11 121 102.5 c 128,-1,16
 121 194 121 194 132 377 c 128,-1,17
 143 560 143 560 150 592 c 1,0,1
494 26 m 0,18,19
 477 -42 477 -42 446 -42 c 0,20,21
 400 -42 400 -42 400 73 c 0,22,23
 400 105 400 105 405.5 141 c 128,-1,24
 411 177 411 177 411 179 c 0,25,26
 411 207 411 207 386.5 283.5 c 128,-1,27
 362 360 362 360 323 446.5 c 128,-1,28
 284 533 284 533 225.5 599 c 128,-1,29
 167 665 167 665 110 665 c 0,30,31
 74 665 74 665 48 627 c 1,32,33
 28 600 28 600 22 600 c 0,34,35
 12 600 12 600 0 630 c 1,36,37
 29 670 29 670 90 713.5 c 128,-1,38
 151 757 151 757 208 757 c 0,39,40
 279 757 279 757 351.5 643.5 c 128,-1,41
 424 530 424 530 466 365 c 1,42,43
 468 371 468 371 476.5 404.5 c 128,-1,44
 485 438 485 438 488.5 449 c 128,-1,45
 492 460 492 460 501 491 c 128,-1,46
 510 522 510 522 517.5 541.5 c 128,-1,47
 525 561 525 561 536 591 c 0,48,49
 551 630 551 630 592 711 c 0,50,51
 607 740 607 740 662 747 c 1,52,53
 674 747 674 747 674 738 c 0,54,55
 674 733 674 733 670 728 c 0,56,57
 624 675 624 675 570.5 541 c 128,-1,58
 517 407 517 407 484 278 c 1,59,60
 502 175 502 175 502 118 c 128,-1,61
 502 61 502 61 494 26 c 0,18,19
315.5 839.5 m 128,-1,63
 346 858 346 858 373 858 c 128,-1,64
 400 858 400 858 430 844.5 c 128,-1,65
 460 831 460 831 477 831 c 128,-1,66
 494 831 494 831 503 833 c 1,67,68
 513 833 513 833 514 825 c 1,69,70
 514 809 514 809 483 791 c 128,-1,71
 452 773 452 773 425 773 c 128,-1,72
 398 773 398 773 369 786 c 128,-1,73
 340 799 340 799 322.5 799 c 128,-1,74
 305 799 305 799 296 797 c 1,75,76
 286 797 286 797 285 805 c 1,77,62
 285 821 285 821 315.5 839.5 c 128,-1,63
EndSplineSet
EndChar

StartChar: Ograve
Encoding: 210 210 145
Width: 530
GlyphClass: 2
Flags: W
LayerCount: 2
Fore
SplineSet
300 950 m 0,0,1
 300 963 300 963 309.5 975 c 128,-1,2
 319 987 319 987 339 987 c 128,-1,3
 359 987 359 987 370 977.5 c 128,-1,4
 381 968 381 968 385.5 955.5 c 128,-1,5
 390 943 390 943 409 927 c 128,-1,6
 428 911 428 911 458.5 901.5 c 128,-1,7
 489 892 489 892 489 877 c 0,8,9
 489 865 489 865 474.5 865 c 128,-1,10
 460 865 460 865 440.5 867 c 128,-1,11
 421 869 421 869 384.5 875.5 c 128,-1,12
 348 882 348 882 324 901.5 c 128,-1,13
 300 921 300 921 300 950 c 0,0,1
228.5 490.5 m 128,-1,15
 196 410 196 410 196 345.5 c 128,-1,16
 196 281 196 281 238 226.5 c 128,-1,17
 280 172 280 172 349 172 c 0,18,19
 388 172 388 172 428 189 c 1,20,21
 355 92 355 92 269 92 c 0,22,23
 221 92 221 92 186 114 c 128,-1,24
 151 136 151 136 134 172 c 0,25,26
 100 242 100 242 100 325.5 c 128,-1,27
 100 409 100 409 147.5 513 c 128,-1,28
 195 617 195 617 267 689.5 c 128,-1,29
 339 762 339 762 404 762 c 0,30,31
 432 762 432 762 443.5 752.5 c 128,-1,32
 455 743 455 743 455 718 c 0,33,34
 455 714 455 714 456 713 c 1,35,36
 385 702 385 702 323 636.5 c 128,-1,14
 261 571 261 571 228.5 490.5 c 128,-1,15
417 263 m 0,37,38
 368 263 368 263 320.5 305.5 c 128,-1,39
 273 348 273 348 273 428.5 c 128,-1,40
 273 509 273 509 324 580.5 c 128,-1,41
 375 652 375 652 439 652 c 0,42,43
 489 652 489 652 515.5 609 c 128,-1,44
 542 566 542 566 542 507 c 0,45,46
 542 399 542 399 480 273 c 1,47,48
 448 263 448 263 417 263 c 0,37,38
517 745.5 m 128,-1,50
 531 767 531 767 531 787.5 c 128,-1,51
 531 808 531 808 512.5 824 c 128,-1,52
 494 840 494 840 474 840 c 0,53,54
 422 840 422 840 358 804 c 128,-1,55
 294 768 294 768 231.5 702.5 c 128,-1,56
 169 637 169 637 117 555.5 c 128,-1,57
 65 474 65 474 32.5 374 c 128,-1,58
 0 274 0 274 0 175 c 128,-1,59
 0 76 0 76 45 11 c 128,-1,60
 90 -54 90 -54 175 -54 c 128,-1,61
 260 -54 260 -54 346 24 c 128,-1,62
 432 102 432 102 496 225 c 1,63,64
 543 258 543 258 578 298 c 128,-1,65
 613 338 613 338 614 354 c 0,66,67
 614 359 614 359 610 363.5 c 128,-1,68
 606 368 606 368 603 368 c 128,-1,69
 600 368 600 368 598 366 c 128,-1,70
 596 364 596 364 590 356.5 c 128,-1,71
 584 349 584 349 576 340 c 0,72,73
 556 317 556 317 529 298 c 1,74,75
 591 447 591 447 591 575 c 0,76,77
 591 632 591 632 563 673.5 c 128,-1,78
 535 715 535 715 484 715 c 1,79,49
 503 724 503 724 517 745.5 c 128,-1,50
EndSplineSet
EndChar

StartChar: Oacute
Encoding: 211 211 146
Width: 530
GlyphClass: 2
Flags: W
LayerCount: 2
Fore
SplineSet
491 961 m 0,0,1
 491 932 491 932 464 911.5 c 128,-1,2
 437 891 437 891 399 882 c 0,3,4
 334 868 334 868 301 868 c 0,5,6
 286 868 286 868 286 880 c 0,7,8
 286 894 286 894 312 903 c 0,9,10
 354 917 354 917 377 935.5 c 128,-1,11
 400 954 400 954 404 967 c 0,12,13
 415 998 415 998 454 998 c 0,14,15
 472 998 472 998 481.5 986 c 128,-1,16
 491 974 491 974 491 961 c 0,0,1
238 226.5 m 128,-1,18
 196 281 196 281 196 345.5 c 128,-1,19
 196 410 196 410 228.5 490.5 c 128,-1,20
 261 571 261 571 323 636.5 c 128,-1,21
 385 702 385 702 456 713 c 1,22,23
 455 714 455 714 455 718 c 0,24,25
 455 743 455 743 443.5 752.5 c 128,-1,26
 432 762 432 762 404 762 c 0,27,28
 339 762 339 762 267 689.5 c 128,-1,29
 195 617 195 617 147.5 513 c 128,-1,30
 100 409 100 409 100 321 c 0,31,32
 100 242 100 242 134 172 c 0,33,34
 151 136 151 136 186 114 c 128,-1,35
 221 92 221 92 269 92 c 0,36,37
 355 92 355 92 428 189 c 1,38,39
 388 172 388 172 349 172 c 0,40,17
 280 172 280 172 238 226.5 c 128,-1,18
417 263 m 0,41,42
 448 263 448 263 480 273 c 1,43,44
 542 399 542 399 542 507 c 0,45,46
 542 566 542 566 515.5 609 c 128,-1,47
 489 652 489 652 439 652 c 0,48,49
 375 652 375 652 324 580.5 c 128,-1,50
 273 509 273 509 273 428.5 c 128,-1,51
 273 348 273 348 320.5 305.5 c 128,-1,52
 368 263 368 263 417 263 c 0,41,42
512.5 824 m 128,-1,54
 531 808 531 808 531 787.5 c 128,-1,55
 531 767 531 767 517 745.5 c 128,-1,56
 503 724 503 724 484 715 c 1,57,58
 535 715 535 715 563 673.5 c 128,-1,59
 591 632 591 632 591 575 c 0,60,61
 591 447 591 447 529 298 c 1,62,63
 562 322 562 322 590 356 c 0,64,65
 599 368 599 368 602.5 368 c 128,-1,66
 606 368 606 368 610 363.5 c 128,-1,67
 614 359 614 359 614 354 c 0,68,69
 613 338 613 338 578 298 c 128,-1,70
 543 258 543 258 496 225 c 1,71,72
 432 102 432 102 346 24 c 128,-1,73
 260 -54 260 -54 175 -54 c 128,-1,74
 90 -54 90 -54 45 11 c 128,-1,75
 0 76 0 76 0 175 c 128,-1,76
 0 274 0 274 32.5 374 c 128,-1,77
 65 474 65 474 117 555.5 c 128,-1,78
 169 637 169 637 231.5 702.5 c 128,-1,79
 294 768 294 768 358 804 c 128,-1,80
 422 840 422 840 474 840 c 0,81,53
 494 840 494 840 512.5 824 c 128,-1,54
EndSplineSet
EndChar

StartChar: Ocircumflex
Encoding: 212 212 147
Width: 530
GlyphClass: 2
Flags: W
LayerCount: 2
Fore
SplineSet
414 895 m 1,0,1
 373 859 373 859 327.5 859 c 128,-1,2
 282 859 282 859 282 877 c 0,3,4
 282 888 282 888 308.5 897.5 c 128,-1,5
 335 907 335 907 351 921.5 c 128,-1,6
 367 936 367 936 373 948.5 c 128,-1,7
 379 961 379 961 389 970 c 128,-1,8
 399 979 399 979 414 979 c 128,-1,9
 429 979 429 979 439 970 c 128,-1,10
 449 961 449 961 455 948.5 c 128,-1,11
 461 936 461 936 477 921.5 c 128,-1,12
 493 907 493 907 519.5 897.5 c 128,-1,13
 546 888 546 888 546 877 c 0,14,15
 546 859 546 859 500.5 859 c 128,-1,16
 455 859 455 859 414 895 c 1,0,1
228.5 490.5 m 128,-1,18
 196 410 196 410 196 345.5 c 128,-1,19
 196 281 196 281 238 226.5 c 128,-1,20
 280 172 280 172 349 172 c 0,21,22
 388 172 388 172 428 189 c 1,23,24
 355 92 355 92 269 92 c 0,25,26
 221 92 221 92 186 114 c 128,-1,27
 151 136 151 136 134 172 c 0,28,29
 100 242 100 242 100 325.5 c 128,-1,30
 100 409 100 409 147.5 513 c 128,-1,31
 195 617 195 617 267 689.5 c 128,-1,32
 339 762 339 762 404 762 c 0,33,34
 432 762 432 762 443.5 752.5 c 128,-1,35
 455 743 455 743 455 718 c 0,36,37
 455 714 455 714 456 713 c 1,38,39
 385 702 385 702 323 636.5 c 128,-1,17
 261 571 261 571 228.5 490.5 c 128,-1,18
417 263 m 0,40,41
 368 263 368 263 320.5 305.5 c 128,-1,42
 273 348 273 348 273 428.5 c 128,-1,43
 273 509 273 509 324 580.5 c 128,-1,44
 375 652 375 652 439 652 c 0,45,46
 489 652 489 652 515.5 609 c 128,-1,47
 542 566 542 566 542 507 c 0,48,49
 542 399 542 399 480 273 c 1,50,51
 448 263 448 263 417 263 c 0,40,41
517 745.5 m 128,-1,53
 531 767 531 767 531 787.5 c 128,-1,54
 531 808 531 808 512.5 824 c 128,-1,55
 494 840 494 840 474 840 c 0,56,57
 422 840 422 840 358 804 c 128,-1,58
 294 768 294 768 231.5 702.5 c 128,-1,59
 169 637 169 637 117 555.5 c 128,-1,60
 65 474 65 474 32.5 374 c 128,-1,61
 0 274 0 274 0 175 c 128,-1,62
 0 76 0 76 45 11 c 128,-1,63
 90 -54 90 -54 175 -54 c 128,-1,64
 260 -54 260 -54 346 24 c 128,-1,65
 432 102 432 102 496 225 c 1,66,67
 543 258 543 258 578 298 c 128,-1,68
 613 338 613 338 614 354 c 0,69,70
 614 359 614 359 610 363.5 c 128,-1,71
 606 368 606 368 603 368 c 128,-1,72
 600 368 600 368 598 366 c 128,-1,73
 596 364 596 364 590 356.5 c 128,-1,74
 584 349 584 349 576 340 c 0,75,76
 556 317 556 317 529 298 c 1,77,78
 591 447 591 447 591 575 c 0,79,80
 591 632 591 632 563 673.5 c 128,-1,81
 535 715 535 715 484 715 c 1,82,52
 503 724 503 724 517 745.5 c 128,-1,53
EndSplineSet
EndChar

StartChar: Otilde
Encoding: 213 213 148
Width: 530
GlyphClass: 2
Flags: W
LayerCount: 2
Fore
SplineSet
296.5 924.5 m 128,-1,1
 327 943 327 943 354.5 943 c 128,-1,2
 382 943 382 943 412 929.5 c 128,-1,3
 442 916 442 916 458.5 916 c 128,-1,4
 475 916 475 916 484 918 c 1,5,6
 494 918 494 918 495 910 c 1,7,8
 495 894 495 894 464 876 c 128,-1,9
 433 858 433 858 406 858 c 128,-1,10
 379 858 379 858 350 871 c 128,-1,11
 321 884 321 884 303.5 884 c 128,-1,12
 286 884 286 884 277 882 c 1,13,14
 267 882 267 882 266 890 c 1,15,0
 266 906 266 906 296.5 924.5 c 128,-1,1
238 226.5 m 128,-1,17
 196 281 196 281 196 345.5 c 128,-1,18
 196 410 196 410 228.5 490.5 c 128,-1,19
 261 571 261 571 323 636.5 c 128,-1,20
 385 702 385 702 456 713 c 1,21,22
 455 714 455 714 455 718 c 0,23,24
 455 743 455 743 443.5 752.5 c 128,-1,25
 432 762 432 762 404 762 c 0,26,27
 339 762 339 762 267 689.5 c 128,-1,28
 195 617 195 617 147.5 513 c 128,-1,29
 100 409 100 409 100 321 c 0,30,31
 100 242 100 242 134 172 c 0,32,33
 151 136 151 136 186 114 c 128,-1,34
 221 92 221 92 269 92 c 0,35,36
 355 92 355 92 428 189 c 1,37,38
 388 172 388 172 349 172 c 0,39,16
 280 172 280 172 238 226.5 c 128,-1,17
417 263 m 0,40,41
 448 263 448 263 480 273 c 1,42,43
 542 399 542 399 542 507 c 0,44,45
 542 566 542 566 515.5 609 c 128,-1,46
 489 652 489 652 439 652 c 0,47,48
 375 652 375 652 324 580.5 c 128,-1,49
 273 509 273 509 273 428.5 c 128,-1,50
 273 348 273 348 320.5 305.5 c 128,-1,51
 368 263 368 263 417 263 c 0,40,41
512.5 824 m 128,-1,53
 531 808 531 808 531 787.5 c 128,-1,54
 531 767 531 767 517 745.5 c 128,-1,55
 503 724 503 724 484 715 c 1,56,57
 535 715 535 715 563 673.5 c 128,-1,58
 591 632 591 632 591 575 c 0,59,60
 591 447 591 447 529 298 c 1,61,62
 562 322 562 322 590 356 c 0,63,64
 599 368 599 368 602.5 368 c 128,-1,65
 606 368 606 368 610 363.5 c 128,-1,66
 614 359 614 359 614 354 c 0,67,68
 613 338 613 338 578 298 c 128,-1,69
 543 258 543 258 496 225 c 1,70,71
 432 102 432 102 346 24 c 128,-1,72
 260 -54 260 -54 175 -54 c 128,-1,73
 90 -54 90 -54 45 11 c 128,-1,74
 0 76 0 76 0 175 c 128,-1,75
 0 274 0 274 32.5 374 c 128,-1,76
 65 474 65 474 117 555.5 c 128,-1,77
 169 637 169 637 231.5 702.5 c 128,-1,78
 294 768 294 768 358 804 c 128,-1,79
 422 840 422 840 474 840 c 0,80,52
 494 840 494 840 512.5 824 c 128,-1,53
EndSplineSet
EndChar

